<?xml version="1.0" standalone="no"?>
<!DOCTYPE svg PUBLIC "-//W3C//DTD SVG 20010904//EN"
 "http://www.w3.org/TR/2001/REC-SVG-20010904/DTD/svg10.dtd">
<svg version="1.0" xmlns="http://www.w3.org/2000/svg"
 width="1181.000000pt" height="301.000000pt" viewBox="0 0 1181.000000 301.000000"
 preserveAspectRatio="xMidYMid meet">

<g transform="translate(0.000000,301.000000) scale(0.100000,-0.100000)"
fill="#000000" stroke="none">
<path d="M4063 2911 c-86 -22 -161 -91 -183 -169 -6 -24 -10 -318 -10 -842 0
-877 1 -866 -57 -972 -14 -26 -54 -74 -87 -107 -106 -101 -206 -137 -364 -129
-79 4 -99 9 -164 41 -134 66 -223 176 -254 316 -48 216 53 429 251 527 56 28
89 36 165 44 129 14 164 25 212 68 56 51 80 107 80 193 0 82 -25 142 -79 190
-57 49 -91 59 -205 59 -296 -1 -559 -130 -746 -368 l-42 -54 0 -550 0 -550 35
-48 c42 -58 165 -175 228 -219 70 -48 202 -108 292 -133 69 -19 105 -22 265
-22 158 0 196 3 262 22 376 104 655 418 707 796 15 104 15 1686 1 1738 -16 55
-69 118 -120 144 -51 25 -139 37 -187 25z"/>
<path d="M5935 2914 c-90 -23 -150 -66 -188 -138 -22 -41 -22 -42 -27 -891 -5
-809 -6 -852 -24 -895 -52 -122 -134 -206 -256 -264 -115 -54 -289 -48 -411
15 -70 35 -156 126 -194 203 -91 186 -56 396 91 544 88 87 157 118 306 136 91
10 126 19 160 39 141 82 157 295 30 409 -59 53 -95 61 -241 55 -246 -10 -435
-92 -613 -265 l-78 -75 0 -366 c0 -413 -7 -487 -65 -647 l-34 -98 21 -35 c69
-114 185 -233 305 -312 156 -102 324 -149 533 -149 279 0 484 80 677 264 156
149 243 301 284 501 17 84 19 150 19 929 0 614 -3 849 -12 878 -15 52 -78 122
-127 141 -43 18 -125 28 -156 21z"/>
<path d="M6603 2885 c-18 -8 -42 -29 -53 -47 -20 -33 -20 -47 -20 -1273 0
-1226 0 -1240 20 -1273 53 -87 213 -81 262 9 17 32 18 92 18 1264 0 1172 -1
1232 -18 1264 -34 64 -131 90 -209 56z"/>
<path d="M7216 2886 c-47 -18 -101 -68 -129 -121 -28 -52 -29 -155 -3 -205 47
-89 119 -134 216 -134 240 0 330 312 126 438 -57 36 -147 45 -210 22z"/>
<path d="M9813 2881 c-23 -11 -50 -32 -60 -47 -17 -27 -18 -84 -18 -1270 0
-1241 0 -1243 21 -1271 59 -80 202 -85 262 -8 22 27 22 34 22 380 l0 352 123
103 c67 57 132 112 144 123 l21 19 357 -478 c197 -264 371 -494 388 -512 60
-63 152 -65 218 -5 42 38 59 89 41 128 -6 13 -180 252 -388 531 -207 279 -377
513 -378 519 -1 7 150 135 334 285 184 149 352 289 373 309 71 70 55 160 -36
201 -49 23 -81 25 -128 8 -19 -6 -252 -193 -537 -430 -277 -231 -510 -422
-518 -425 -12 -4 -14 90 -14 709 l0 715 -25 27 c-52 56 -129 70 -202 37z"/>
<path d="M7215 2241 c-16 -10 -39 -28 -50 -41 -20 -22 -20 -38 -23 -942 -3
-1006 -5 -958 55 -1002 36 -26 118 -32 166 -13 20 9 45 30 57 49 20 32 20 48
20 953 0 905 0 921 -20 953 -36 59 -143 82 -205 43z"/>
<path d="M7821 2243 c-18 -9 -42 -31 -52 -47 -18 -30 -19 -70 -19 -951 0 -883
1 -921 19 -951 52 -85 210 -85 262 0 18 29 19 62 19 651 0 381 4 637 11 664
38 165 187 308 384 367 95 29 267 25 370 -9 190 -63 333 -214 365 -386 6 -32
10 -296 10 -661 0 -601 0 -608 21 -634 29 -37 71 -56 124 -56 52 0 89 16 125
55 l25 27 0 651 0 652 -23 75 c-41 129 -88 206 -187 306 -130 132 -269 206
-460 245 -101 21 -255 25 -355 8 -102 -16 -245 -68 -331 -120 l-79 -47 0 41
c0 81 -62 137 -152 137 -23 0 -58 -8 -77 -17z"/>
<path d="M2159 2139 c-88 -13 -163 -68 -193 -141 -14 -32 -16 -105 -16 -500 0
-500 -3 -536 -53 -621 -57 -97 -189 -188 -322 -222 -73 -19 -203 -19 -271 -1
-132 35 -268 143 -331 262 -105 197 -76 430 72 593 102 112 234 172 380 173
93 0 149 -13 223 -52 l52 -28 -2 241 -3 242 -70 19 c-110 29 -302 25 -429 -8
-332 -86 -590 -337 -692 -671 -25 -83 -28 -103 -28 -260 0 -144 3 -182 22
-248 92 -331 338 -582 669 -684 81 -25 102 -27 263 -27 204 -1 268 13 430 91
53 26 96 41 98 35 10 -32 67 -94 108 -118 67 -40 178 -46 252 -14 66 28 126
94 141 155 8 30 11 278 11 808 0 862 2 831 -72 904 -63 61 -145 86 -239 72z"/>
</g>
</svg>
