<?xml version="1.0" encoding="UTF-8"?>
<svg xmlns="http://www.w3.org/2000/svg" xmlns:xlink="http://www.w3.org/1999/xlink" width="536pt" height="310pt" viewBox="0 0 536 310" version="1.1">
<g id="surface1">
<path style=" stroke:none;fill-rule:evenodd;fill:rgb(0%,0%,0%);fill-opacity:1;" d="M 73.59375 127.875 L 73.957031 127.875 C 73.957031 131.609375 74.136719 134.710938 74.136719 138.429688 C 74.136719 140.433594 74.328125 141.863281 74.320313 143.707031 C 74.3125 145.496094 74.261719 147.398438 74.316406 149.175781 C 74.34375 150.121094 74.511719 150.414063 74.507813 151.53125 C 74.503906 152.441406 74.503906 153.355469 74.503906 154.265625 C 74.503906 156.269531 74.691406 157.699219 74.683594 159.542969 C 74.671875 163.351563 74.867188 166.589844 74.867188 170.28125 L 54.304688 170.28125 L 55.457031 167.609375 C 55.910156 166.714844 56.25 165.863281 56.671875 165.007813 C 56.886719 164.578125 57.019531 164.175781 57.21875 163.730469 L 60.257813 157.125 C 62.34375 152.230469 65.363281 146.382813 67.535156 141.289063 L 71.777344 132.0625 C 71.984375 131.59375 72.195313 131.257813 72.425781 130.710938 C 72.765625 129.882813 73.53125 128.613281 73.59375 127.875 Z M 0.0820313 214.328125 L 33.925781 214.328125 C 34.058594 213.761719 34.171875 213.683594 34.410156 213.171875 L 42.230469 196.242188 C 42.484375 195.667969 42.425781 195.214844 43.023438 195.214844 L 75.59375 195.214844 L 75.960938 207.226563 C 76.003906 208.023438 75.957031 208.964844 75.957031 209.777344 C 75.957031 211.492188 75.597656 214.328125 76.503906 214.328125 L 106.890625 214.328125 C 106.890625 212.339844 105.6875 202.664063 105.617188 199.765625 L 102.390625 163.316406 C 102.222656 162.023438 102.277344 160.886719 102.109375 159.59375 L 100.519531 141.34375 C 100.472656 140.199219 100.214844 138.808594 100.160156 137.699219 C 100.097656 136.414063 99.988281 135.105469 99.84375 134.011719 L 98.894531 123.128906 C 98.792969 121.777344 98.785156 120.746094 98.597656 119.425781 C 98.097656 115.945313 97.804688 108.601563 97.296875 104.710938 L 96.699219 97.296875 L 63.039063 97.296875 C 62.875 98 62.519531 98.570313 62.164063 99.152344 L 37.507813 144.742188 C 36.792969 146.019531 36.21875 147.1875 35.566406 148.441406 C 33.269531 152.859375 29.863281 158.625 27.675781 162.9375 L 24.769531 168.402344 C 22.941406 172.074219 19.667969 177.488281 17.792969 181.261719 L 13.851563 188.605469 C 13.492188 189.273438 13.238281 189.636719 12.878906 190.363281 L 5.941406 203.261719 C 5.5625 203.882813 5.335938 204.433594 4.988281 205.035156 L 1.960938 210.5625 C 1.425781 211.640625 0.296875 213.414063 0.0820313 214.328125 "/>
<path style=" stroke:none;fill-rule:evenodd;fill:rgb(0%,0%,0%);fill-opacity:1;" d="M 180.945313 164.457031 L 153.652344 164.457031 C 154.277344 163.15625 154.910156 160.648438 156.078125 158.328125 C 158.902344 152.726563 163.765625 146.621094 170.574219 146.621094 C 176.429688 146.621094 181.492188 150.855469 181.492188 156.996094 C 181.492188 159.078125 181.578125 160.253906 181.300781 162.265625 C 181.195313 163.019531 180.960938 163.695313 180.945313 164.457031 Z M 122.71875 178.289063 C 122.71875 185.367188 123.097656 190.761719 125.875 196.972656 C 127.855469 201.410156 129.847656 204.609375 133.042969 207.824219 C 133.726563 208.507813 134.660156 209.199219 135.429688 209.804688 C 141.792969 214.808594 153.160156 216.328125 161.113281 216.328125 C 171.824219 216.328125 180.742188 213.972656 187.460938 209.925781 C 193.367188 206.367188 198.011719 201.085938 201.515625 195.226563 C 201.949219 194.503906 202.753906 193.371094 202.960938 192.484375 L 175.851563 189.574219 C 172.796875 194.136719 168.28125 197.21875 162.566406 197.21875 C 156.335938 197.21875 152.710938 193.5 151.246094 187.792969 C 150.550781 185.082031 150.378906 183.269531 150.378906 180.292969 L 206.238281 180.292969 L 207.847656 171.710938 C 208.90625 165.355469 208.964844 165.277344 208.964844 158.996094 C 208.964844 154.410156 207.484375 148.78125 205.996094 145.589844 C 203.777344 140.832031 201.90625 138.171875 198.183594 134.835938 C 197.800781 134.496094 197.496094 134.269531 197.0625 133.957031 C 189.15625 128.253906 179.847656 127.691406 170.027344 127.691406 C 164.96875 127.691406 156.824219 128.980469 152.316406 131.269531 C 148.0625 133.433594 146.828125 134.078125 142.941406 137.179688 C 138.132813 141.019531 134.582031 145.011719 131.308594 150.113281 C 130.484375 151.394531 129.894531 152.582031 129.144531 153.957031 C 128.890625 154.421875 128.886719 154.386719 128.628906 154.898438 L 127.136719 158.136719 C 124.703125 163.835938 122.71875 171.621094 122.71875 178.289063 "/>
<path style=" stroke:none;fill-rule:evenodd;fill:rgb(0%,0%,0%);fill-opacity:1;" d="M 327.054688 149.714844 C 329.519531 149.714844 330.566406 149.652344 332.816406 150.867188 C 335.34375 152.222656 336.960938 154.089844 337.789063 156.8125 C 338.542969 159.28125 338.515625 160.800781 338.515625 163.363281 C 338.515625 173.769531 333.105469 191.613281 322.679688 193.933594 C 319.25 194.695313 316.445313 194.078125 313.84375 192.046875 C 312.546875 191.03125 311.195313 189.019531 310.492188 187.574219 C 308.863281 184.242188 309.089844 182.675781 308.71875 179.6875 C 308.589844 178.632813 309.480469 172.191406 309.691406 171.113281 C 309.921875 169.945313 310.171875 169.046875 310.472656 168.074219 C 310.792969 167.042969 311.070313 166.050781 311.460938 165.054688 C 312.71875 161.847656 314.5625 157.488281 316.820313 154.949219 C 319.390625 152.058594 322.746094 149.714844 327.054688 149.714844 Z M 281.203125 178.472656 C 281.203125 186.34375 281.316406 189.800781 284.214844 197.117188 C 286.417969 202.675781 290.691406 208.261719 295.832031 211.339844 C 305.878906 217.355469 322.070313 217.597656 333.171875 213.894531 C 334.921875 213.308594 336.171875 212.769531 337.765625 212.117188 L 341.792969 209.960938 C 344.257813 208.316406 346.710938 206.789063 348.84375 204.636719 C 350.277344 203.1875 351.433594 202.199219 352.683594 200.652344 C 352.972656 200.296875 353.15625 200.128906 353.4375 199.769531 C 360.304688 190.953125 365.992188 176.921875 365.992188 165.550781 C 365.992188 157.230469 365.359375 151.921875 361.808594 144.800781 C 360.625 142.425781 359.980469 141.605469 358.570313 139.484375 C 357.320313 137.601563 355.828125 136.363281 354.484375 135.015625 C 353.796875 134.320313 352.933594 133.796875 352.113281 133.203125 C 347.03125 129.527344 338.476563 127.691406 331.96875 127.691406 C 328.230469 127.691406 326.398438 127.597656 322.582031 128.132813 C 319.441406 128.574219 315.625 129.4375 312.785156 130.527344 C 309.691406 131.710938 309.238281 131.933594 306.554688 133.394531 C 304.433594 134.554688 302.910156 135.671875 300.980469 137.105469 C 298.359375 139.054688 296.8125 140.761719 294.710938 143.023438 C 288.960938 149.203125 284.640625 159.421875 282.65625 167.550781 C 281.960938 170.394531 281.203125 175.363281 281.203125 178.472656 "/>
<path style=" stroke:none;fill-rule:evenodd;fill:rgb(0%,0%,0%);fill-opacity:1;" d="M 253.363281 146.4375 C 253.363281 145.308594 254.007813 143.3125 254.273438 142.253906 L 257.367188 129.511719 L 230.980469 129.511719 L 229.671875 134.753906 C 227.941406 141.613281 226.410156 149.183594 224.6875 155.976563 C 224.214844 157.835938 223.917969 159.429688 223.449219 161.289063 L 210.96875 214.328125 L 239.351563 214.328125 C 239.496094 212.621094 247.863281 178.257813 247.863281 178.25 C 248.695313 175.265625 249.601563 172.699219 250.683594 169.96875 C 251.578125 167.71875 252.261719 166.355469 253.4375 164.351563 C 257.457031 157.511719 263.652344 153.378906 271.980469 154.753906 C 273.050781 154.933594 273.925781 155.28125 274.832031 155.355469 C 276.632813 151.953125 279.445313 145.285156 281.386719 141.34375 L 286.480469 130.238281 C 279.15625 126.363281 271.441406 126.804688 264.980469 132.03125 C 261.566406 134.789063 257.972656 139.777344 255.519531 143.316406 L 253.363281 146.4375 "/>
<path style=" stroke:none;fill-rule:evenodd;fill:rgb(0%,64.256287%,90.234375%);fill-opacity:1;" d="M 445.324219 187.570313 C 446.0625 187.078125 446.167969 186.507813 446.933594 185.90625 L 450.390625 182.445313 C 450.933594 181.757813 451.5625 181.539063 452.183594 180.785156 C 452.484375 180.421875 452.570313 180.199219 452.917969 179.878906 C 453.304688 179.527344 453.433594 179.535156 453.835938 179.160156 C 454.703125 178.351563 453.976563 178.640625 455.539063 177.40625 C 456.316406 176.796875 456.53125 176.175781 457.222656 175.632813 L 462.386719 170.605469 C 462.75 170.203125 462.765625 170.039063 463.113281 169.691406 C 463.46875 169.335938 463.691406 169.277344 464.113281 168.875 C 464.789063 168.234375 465.046875 167.691406 465.804688 167.109375 C 466.855469 166.308594 467 165.792969 467.496094 165.34375 L 471.023438 161.953125 C 472.496094 160.253906 478.046875 154.929688 479.578125 153.398438 L 498.410156 134.5625 C 500.746094 132.222656 500.664063 132.605469 497 132.605469 L 390.554688 132.605469 C 390.78125 133.445313 396.519531 138.84375 397.242188 139.566406 L 417.804688 160.136719 C 422.425781 164.761719 426.917969 169.25 431.539063 173.875 C 432.601563 174.9375 444.496094 187.015625 445.324219 187.570313 "/>
<path style=" stroke:none;fill-rule:evenodd;fill:rgb(0%,64.256287%,90.234375%);fill-opacity:1;" d="M 392.738281 120.59375 C 417.183594 120.59375 441.625 120.59375 466.066406 120.59375 C 467.769531 120.59375 470.433594 120.949219 470.433594 120.046875 L 470.433594 43.605469 C 470.433594 42.375 469.179688 44.039063 468.203125 45.015625 L 402.429688 110.8125 C 400.996094 112.246094 393.320313 119.726563 392.738281 120.59375 "/>
<path style=" stroke:none;fill-rule:evenodd;fill:rgb(0%,64.256287%,90.234375%);fill-opacity:1;" d="M 376.363281 214.871094 L 453.875 214.871094 L 376.410156 137.292969 Z M 376.363281 214.871094 "/>
<path style=" stroke:none;fill-rule:evenodd;fill:rgb(0%,64.256287%,90.234375%);fill-opacity:1;" d="M 385.460938 109.671875 L 440.273438 54.933594 L 385.550781 0.105469 L 385.507813 0.105469 L 385.460938 109.671875 "/>
<path style=" stroke:none;fill-rule:evenodd;fill:rgb(90.234375%,0%,7.054138%);fill-opacity:1;" d="M 374.136719 106.398438 L 374.179688 29.070313 L 296.851563 29.078125 Z M 374.136719 106.398438 "/>
<path style=" stroke:none;fill-rule:evenodd;fill:rgb(0%,0%,0%);fill-opacity:1;" d="M 308.675781 309.335938 L 312.863281 309.335938 C 317.65625 309.335938 323.699219 307.195313 326.726563 305.367188 C 330.148438 303.296875 331.617188 302.3125 334.378906 299.550781 C 337.527344 296.398438 340.90625 291.664063 342.597656 287.570313 C 345.535156 280.453125 345.984375 281.351563 342.894531 280.933594 C 341.585938 280.753906 340.355469 280.546875 338.9375 280.339844 C 337.78125 280.171875 336.234375 279.847656 334.878906 279.847656 C 334.664063 282.429688 331.449219 288.425781 329.65625 290.824219 C 325.628906 296.203125 319.546875 300.417969 311.40625 300.417969 C 307.949219 300.417969 304.789063 299.574219 302.488281 298.417969 C 300.082031 297.210938 297.941406 295.507813 296.328125 293.476563 C 294.640625 291.351563 293.433594 289.316406 292.546875 286.339844 C 291.015625 281.195313 291.027344 279.011719 291.027344 273.660156 C 291.027344 263.851563 294.507813 252.984375 300.347656 245.855469 C 305 240.179688 311.179688 235.621094 319.410156 235.621094 C 325.742188 235.621094 329.296875 236.269531 333.746094 240.761719 C 335.925781 242.964844 337.585938 246.917969 338.375 249.960938 C 338.546875 250.632813 338.675781 251.691406 338.878906 252.382813 C 339.03125 252.90625 338.660156 252.96875 340.828125 252.679688 C 342.992188 252.394531 347.019531 252.171875 348.523438 251.820313 C 348.523438 248.929688 346.875 243.582031 345.855469 241.566406 C 342.878906 235.675781 338.925781 231.253906 332.511719 228.707031 C 323.640625 225.179688 312.804688 226.007813 304.492188 230.160156 C 298.617188 233.097656 293.46875 238.03125 289.824219 243.519531 C 289.164063 244.515625 288.679688 245.265625 288.058594 246.300781 C 284.992188 251.425781 283.054688 257.171875 281.851563 263.574219 C 281.464844 265.648438 280.597656 274.230469 280.914063 276.316406 C 281.09375 277.5 281.117188 279.625 281.195313 280.765625 C 281.546875 285.984375 283.3125 291.757813 285.328125 295.378906 C 287.398438 299.097656 290.726563 302.789063 294.265625 305 C 296.257813 306.25 298.144531 307.132813 300.601563 307.949219 C 302.695313 308.648438 306.007813 309.335938 308.675781 309.335938 "/>
<path style=" stroke:none;fill-rule:evenodd;fill:rgb(0%,0%,0%);fill-opacity:1;" d="M 433.679688 301.691406 C 431.777344 301.691406 429.054688 300.992188 427.816406 300.273438 C 422.449219 297.144531 420.578125 291.941406 420.578125 284.945313 C 420.578125 281.546875 421.316406 277.199219 422.070313 274.425781 C 423.28125 269.96875 424.492188 267.585938 426.871094 264.125 C 427.339844 263.445313 427.695313 262.976563 428.265625 262.421875 L 429.496094 261.105469 C 432.492188 258.261719 435.773438 256.371094 440.773438 256.371094 C 443.066406 256.371094 444.816406 256.875 446.355469 257.703125 C 459.484375 264.765625 453.191406 290.945313 442.597656 298.597656 C 440.203125 300.324219 436.855469 301.691406 433.679688 301.691406 Z M 411.296875 283.488281 C 411.296875 288.789063 411.117188 291.363281 413.117188 296.414063 C 414.488281 299.878906 417.027344 303.234375 420.066406 305.296875 C 423.285156 307.480469 427.539063 309.335938 431.859375 309.335938 C 438.40625 309.335938 441.683594 308.890625 447.449219 305.457031 C 457.878906 299.246094 463.15625 286.261719 463.15625 272.933594 C 463.15625 267.285156 461.851563 261.523438 458.710938 257.175781 L 456.015625 254.046875 C 449.359375 247.890625 439.355469 247.261719 430.925781 250.339844 C 428.492188 251.230469 425.289063 253.160156 423.351563 254.957031 C 421.515625 256.660156 420.988281 257.347656 419.460938 259.257813 C 414.386719 265.605469 411.296875 275.515625 411.296875 283.488281 "/>
<path style=" stroke:none;fill-rule:evenodd;fill:rgb(0%,0%,0%);fill-opacity:1;" d="M 375.089844 301.691406 C 366.53125 301.691406 361.988281 294.351563 361.988281 286.21875 C 361.988281 278.222656 363.597656 270.324219 368.332031 263.988281 C 377.984375 251.0625 395.105469 254.902344 395.105469 272.386719 C 395.105469 276.636719 394.542969 280.085938 393.398438 283.601563 C 392.851563 285.285156 392.496094 286.554688 391.828125 288.035156 C 390.671875 290.59375 390.121094 291.644531 388.554688 293.863281 C 387.578125 295.242188 386.28125 296.640625 384.972656 297.742188 C 383.269531 299.171875 382.507813 299.683594 380.238281 300.652344 C 379.101563 301.136719 376.617188 301.691406 375.089844 301.691406 Z M 373.269531 309.335938 C 379.257813 309.335938 381.859375 309.085938 387.34375 306.304688 C 390.328125 304.789063 392.875 302.648438 395.152344 300.28125 C 396.519531 298.863281 398.445313 295.964844 399.410156 294.167969 C 404.910156 283.953125 406.910156 268.46875 400.738281 258.199219 C 393.542969 246.234375 376.246094 246.226563 366.664063 253.40625 C 361.527344 257.253906 357.222656 263.609375 355.1875 269.769531 C 353.289063 275.523438 353.476563 276.011719 352.757813 281.355469 C 352.613281 282.453125 352.773438 283.546875 352.605469 284.660156 C 352.390625 286.070313 352.65625 286.738281 352.710938 287.859375 C 352.960938 293.023438 354.636719 298.445313 357.757813 301.917969 C 359.398438 303.75 360.191406 304.636719 362.542969 306.050781 C 365.089844 307.582031 369.246094 309.335938 373.269531 309.335938 "/>
<path style=" stroke:none;fill-rule:evenodd;fill:rgb(0%,0%,0%);fill-opacity:1;" d="M 467.523438 308.0625 L 475.722656 308.070313 C 476.386719 308.082031 476.789063 308.210938 477.074219 307.789063 C 477.148438 307.679688 477.527344 305.421875 477.605469 305.042969 L 488.460938 249.832031 C 489.675781 243.773438 491.464844 233.59375 492.8125 227.796875 L 483.351563 227.796875 C 482.101563 233.164063 480.5 242.140625 479.398438 247.863281 L 475.421875 267.914063 C 473.746094 277.328125 471.414063 288.5 469.507813 298.035156 C 468.851563 301.316406 468.277344 304.824219 467.523438 308.0625 "/>
<path style=" stroke:none;fill-rule:evenodd;fill:rgb(0%,0%,0%);fill-opacity:1;" d="M 499.546875 99.84375 C 499.546875 90.46875 507.136719 82.734375 516.46875 82.734375 C 528.914063 82.734375 537.074219 95.515625 532.113281 106.578125 C 531.136719 108.753906 530.21875 110.023438 528.613281 111.628906 C 526.902344 113.339844 525.945313 114.070313 523.628906 115.195313 C 513.148438 120.285156 499.546875 112.484375 499.546875 99.84375 Z M 535.574219 98.574219 L 535.574219 100.921875 C 535.363281 104.519531 534.191406 108.050781 532.066406 110.898438 C 530.097656 113.539063 527.851563 115.480469 524.839844 116.957031 C 519.820313 119.421875 513.296875 119.421875 508.277344 116.957031 C 504.253906 114.980469 501.363281 112.011719 499.363281 108.035156 C 497.652344 104.632813 497.546875 102.296875 497.546875 98.570313 C 497.546875 89.777344 506.097656 80.734375 515.558594 80.734375 L 517.921875 80.734375 C 523.386719 80.734375 528.949219 84.363281 532.144531 88.714844 C 534.230469 91.550781 535.367188 95.035156 535.574219 98.574219 "/>
<path style=" stroke:none;fill-rule:evenodd;fill:rgb(0%,0%,0%);fill-opacity:1;" d="M 517.652344 99.664063 C 517.277344 99.9375 513.132813 99.847656 512.382813 99.742188 C 512.066406 98.933594 512.226563 97.832031 512.230469 96.933594 C 512.230469 96.289063 511.96875 94.5625 512.464844 94.152344 C 515.097656 94.433594 518.890625 93.621094 520.429688 94.972656 C 521.1875 95.636719 521.566406 97.15625 520.890625 98.261719 C 520.296875 99.230469 519.144531 99.664063 517.652344 99.664063 Z M 510.097656 109.1875 L 512.273438 109.1875 L 512.335938 101.71875 L 515.839844 101.769531 C 515.863281 101.726563 515.925781 101.820313 515.964844 101.847656 C 518.144531 102.050781 521.140625 107.476563 522.109375 109.308594 L 525.019531 109.308594 C 524.847656 108.574219 522.972656 105.941406 522.480469 105.113281 C 521.863281 104.074219 521.183594 103.050781 520.238281 102.261719 L 519.195313 101.484375 C 522.699219 101.40625 525.375 97.117188 522.507813 93.621094 C 521.421875 92.296875 519.382813 92.199219 517.015625 92.199219 C 514.710938 92.203125 512.402344 92.199219 510.097656 92.199219 L 510.097656 109.1875 "/>
<path style=" stroke:none;fill-rule:evenodd;fill:rgb(93.75%,35.301208%,39.598083%);fill-opacity:1;" d="M 374.179688 29.070313 L 374.136719 106.398438 C 374.59375 106.085938 374.363281 104.761719 374.363281 104.214844 L 374.367188 29.585938 C 374.246094 28.65625 374.410156 29.398438 374.179688 29.070313 C 373.929688 28.890625 374.230469 28.96875 373.796875 28.882813 L 297.390625 28.859375 C 296.640625 28.972656 297.132813 28.867188 296.851563 29.078125 L 374.179688 29.070313 "/>
<path style=" stroke:none;fill-rule:evenodd;fill:rgb(57.617188%,57.617188%,57.617188%);fill-opacity:1;" d="M 510.097656 109.1875 C 510.398438 109.316406 511.765625 109.515625 512.21875 109.257813 C 512.777344 108.941406 512.464844 102.621094 512.464844 101.847656 L 515.964844 101.847656 C 515.925781 101.820313 515.863281 101.726563 515.839844 101.769531 L 512.335938 101.71875 L 512.273438 109.1875 L 510.097656 109.1875 "/>
<path style=" stroke:none;fill-rule:evenodd;fill:rgb(45.483398%,45.483398%,45.483398%);fill-opacity:1;" d="M 517.652344 99.664063 L 512.460938 99.664063 L 512.464844 94.152344 C 511.96875 94.5625 512.230469 96.289063 512.230469 96.933594 C 512.226563 97.832031 512.066406 98.933594 512.382813 99.742188 C 513.132813 99.847656 517.277344 99.9375 517.652344 99.664063 "/>
</g>
</svg>
