<?xml version="1.0" standalone="no"?>
<!DOCTYPE svg PUBLIC "-//W3C//DTD SVG 20010904//EN"
 "http://www.w3.org/TR/2001/REC-SVG-20010904/DTD/svg10.dtd">
<svg version="1.0" xmlns="http://www.w3.org/2000/svg"
 width="970.000000pt" height="300.000000pt" viewBox="0 0 970.000000 300.000000"
 preserveAspectRatio="xMidYMid meet">

<g transform="translate(0.000000,300.000000) scale(0.100000,-0.100000)"
fill="#000000" stroke="none">
<path d="M3249 2547 c-121 -50 -321 -170 -691 -414 l-187 -123 -66 -1 c-75 -2
-110 15 -79 38 10 7 38 13 63 13 25 0 53 5 61 10 41 26 -166 -7 -222 -36 -41
-21 -135 -93 -168 -129 -23 -25 -24 -28 -8 -39 12 -9 42 -11 98 -8 52 3 80 1
80 -6 0 -20 -151 -147 -188 -158 -32 -9 -200 -92 -266 -131 -12 -7 -29 -13
-40 -13 -16 0 -18 6 -13 43 17 121 18 244 3 305 -15 64 -42 100 -61 81 -5 -5
-28 -44 -50 -86 -39 -75 -87 -124 -132 -138 l-23 -6 0 150 c0 218 -19 344 -67
448 -25 54 -47 71 -69 52 -21 -17 -32 -66 -39 -174 -7 -114 -48 -255 -73 -255
-37 0 -87 110 -103 227 -13 100 -28 125 -73 121 -59 -6 -85 -103 -86 -314 0
-128 -15 -224 -37 -241 -12 -10 -26 -6 -72 20 -31 17 -65 39 -75 49 -11 10
-25 18 -31 18 -8 0 -12 23 -11 69 0 80 -12 101 -59 101 -91 0 -93 -172 -4
-283 29 -35 30 -40 15 -56 -9 -9 -19 -32 -22 -50 -6 -31 -9 -32 -38 -26 -17 4
-85 10 -150 15 -138 8 -195 -2 -254 -46 -88 -66 -106 -105 -82 -168 8 -22 16
-26 48 -26 21 0 56 9 77 20 22 12 49 18 61 16 19 -5 106 -93 178 -180 16 -19
31 -35 35 -34 3 1 13 -2 21 -5 25 -10 132 -35 182 -42 49 -7 59 -19 33 -39 -8
-6 -41 -76 -74 -157 -32 -80 -70 -164 -85 -187 -28 -44 -34 -82 -13 -82 23 0
86 45 124 89 21 25 61 90 88 145 47 94 52 101 78 99 39 -3 78 -49 70 -82 -3
-14 -6 -77 -7 -140 0 -119 12 -177 51 -239 25 -41 95 -112 125 -128 29 -15 86
-18 106 -6 18 12 32 69 32 135 0 33 4 56 9 53 5 -4 23 6 40 20 30 25 31 28 31
107 0 95 21 152 56 152 32 0 153 -113 174 -161 19 -44 60 -65 84 -45 16 14 33
71 41 141 12 104 14 110 43 110 15 0 56 -9 92 -21 88 -27 124 -63 140 -140 14
-66 20 -74 55 -65 18 5 25 15 30 47 10 57 -10 122 -62 202 -50 76 -100 115
-188 145 -33 11 -60 25 -60 31 0 6 32 44 71 84 40 39 92 96 117 126 26 29 85
82 132 116 127 92 197 161 193 188 -2 18 -8 21 -36 19 -49 -5 -35 11 84 104
l102 79 211 3 c193 4 211 2 211 -13 0 -9 -11 -30 -25 -47 -14 -16 -43 -60 -65
-98 -49 -83 -53 -128 -14 -167 24 -24 31 -25 84 -20 71 8 137 33 226 88 108
66 147 99 133 115 -9 11 -26 5 -94 -31 -82 -43 -120 -49 -131 -20 -3 7 24 58
60 114 l66 101 47 1 c47 2 78 4 99 7 6 1 41 38 77 82 l67 80 -80 0 c-61 0 -80
3 -80 14 0 7 63 101 141 207 78 107 145 205 151 218 7 19 5 31 -10 50 -25 34
-64 36 -133 8z m-109 -148 c0 -6 -59 -88 -130 -183 l-131 -173 -91 -7 c-133
-9 -220 -8 -216 4 3 10 548 369 561 370 4 0 7 -5 7 -11z m-1836 -152 c26 -93
30 -122 36 -337 7 -218 6 -240 -12 -300 -11 -36 -22 -67 -24 -69 -8 -9 -71 30
-92 58 -20 27 -21 35 -11 73 6 24 14 66 19 93 5 28 13 64 18 82 6 17 12 69 15
115 2 45 2 65 0 43 -2 -22 -8 -44 -14 -49 -5 -6 -9 -23 -9 -39 0 -31 -37 -183
-50 -207 -9 -16 -12 -7 -25 75 -4 22 -13 59 -21 82 -13 38 -13 46 2 74 36 71
55 149 65 274 7 82 17 139 26 154 l16 24 16 -22 c10 -12 30 -68 45 -124z
m-326 36 c5 -10 12 -54 15 -98 5 -88 23 -139 88 -252 26 -45 52 -151 65 -265
5 -45 4 -58 -7 -61 -8 -2 -28 -9 -45 -14 -42 -14 -65 0 -58 35 3 17 -5 50 -21
87 -20 45 -25 51 -19 25 23 -118 23 -134 2 -150 -57 -43 -88 -74 -88 -86 0
-22 -24 -17 -39 9 -8 12 -20 61 -27 109 -10 71 -9 97 2 145 8 32 17 135 20
228 6 170 17 237 50 283 18 26 50 29 62 5z m622 -343 c6 -12 14 -67 17 -123 5
-98 -3 -167 -26 -232 -6 -16 -13 -42 -15 -56 -6 -28 -64 -114 -73 -106 -2 3
-9 20 -13 39 -30 114 -40 123 -107 91 -34 -16 -35 -18 -30 -59 6 -58 -3 -64
-21 -13 -12 37 -12 47 8 108 12 36 26 74 31 83 5 10 9 26 9 36 0 10 11 24 24
30 48 22 95 74 131 147 20 41 41 75 46 75 4 0 13 -9 19 -20z m-1056 -42 c10
-16 22 -28 25 -28 4 0 27 -18 50 -39 24 -22 58 -47 76 -56 40 -18 47 -28 39
-49 -8 -20 -28 -21 -44 -1 -10 12 -9 15 6 15 14 0 15 3 6 12 -10 10 -17 6 -36
-17 -23 -28 -24 -29 -49 -12 -57 37 -108 129 -106 194 0 22 3 32 7 23 4 -8 15
-27 26 -42z m142 -209 c19 -21 19 -21 -9 -8 -15 7 -27 16 -27 21 0 14 16 9 36
-13z m48 -80 c52 -34 71 -54 96 -100 16 -31 30 -70 30 -85 0 -43 22 -103 54
-153 15 -24 24 -46 19 -50 -9 -7 -15 -40 -14 -90 l0 -34 -61 59 c-56 54 -59
56 -34 19 14 -22 26 -42 26 -45 0 -3 -14 -6 -32 -6 -24 -1 -41 8 -74 41 -62
62 -77 97 -64 143 26 94 12 145 -62 227 -16 17 -28 42 -28 57 0 15 -5 30 -10
33 -8 5 -7 12 2 22 20 24 80 10 152 -38z m1406 32 c0 -9 -70 -75 -110 -103
-14 -10 -47 -32 -73 -49 -26 -17 -78 -66 -115 -108 -96 -109 -182 -193 -223
-219 -19 -12 -62 -25 -95 -28 -54 -7 -58 -6 -45 9 7 10 22 17 33 17 11 0 16 4
12 11 -3 6 -17 8 -33 4 -21 -5 -24 -4 -13 6 6 7 12 21 12 31 0 10 10 23 23 29
21 9 21 9 1 6 -17 -4 -20 0 -17 14 4 13 14 19 33 19 34 0 60 9 60 21 0 5 -13
6 -30 3 -47 -10 -56 -1 -52 46 3 31 10 44 26 50 11 5 15 9 8 9 -18 1 57 89 91
107 31 17 33 14 11 -27 -19 -37 -7 -56 41 -65 48 -9 111 23 240 120 64 48 127
87 150 93 53 14 65 15 65 4z m-1641 -67 c18 -8 41 -14 50 -14 10 0 39 -26 67
-57 47 -55 49 -60 49 -117 0 -39 -4 -61 -12 -63 -7 -3 -13 -13 -13 -23 0 -11
-9 -27 -19 -37 -19 -17 -19 -19 -1 -40 9 -12 20 -19 24 -16 3 3 1 12 -5 20 -6
7 -8 13 -4 13 14 0 45 -32 45 -47 0 -29 -153 -8 -228 31 -18 9 -79 69 -136
134 -104 117 -139 142 -200 142 -53 0 38 48 94 49 19 1 53 3 75 4 31 2 45 -3
63 -20 30 -30 48 -29 25 1 -11 15 -35 28 -63 34 l-45 10 40 2 c22 1 51 6 65
10 30 9 82 3 129 -16z m685 -32 c-1 -7 -2 -21 -2 -32 -2 -18 -7 -20 -39 -14
-59 10 -85 56 -40 73 26 10 83 -9 81 -27z m-130 -4 c22 -31 20 -35 -14 -43
-17 -4 -36 -15 -43 -26 -6 -10 -17 -19 -24 -19 -13 0 -28 37 -24 60 9 49 78
67 105 28z m230 -19 c34 -27 35 -71 2 -93 -24 -15 -26 -15 -45 12 -23 33 -36
76 -26 91 10 17 40 13 69 -10z m152 3 c11 -9 26 -30 32 -45 17 -40 14 -198 -6
-292 -14 -67 -21 -80 -38 -83 -21 -3 -21 -2 -8 50 22 82 15 100 -10 27 -27
-78 -33 -89 -49 -89 -7 0 -18 -9 -25 -20 -16 -25 -38 -26 -45 -1 -7 29 4 114
18 131 48 61 75 149 80 269 1 36 3 67 4 69 4 7 29 -1 47 -16z m-281 -58 c14
-9 25 -22 25 -29 0 -7 7 -18 15 -25 8 -7 15 -19 15 -26 0 -8 -7 -14 -15 -14
-8 0 -15 5 -15 10 0 6 -5 10 -12 10 -6 0 -4 -8 6 -19 21 -23 14 -28 -49 -32
-69 -5 -111 14 -126 58 -10 31 -9 37 12 59 18 19 33 24 71 24 28 0 59 -7 73
-16z m-191 -39 l19 -35 -23 -25 c-13 -14 -31 -25 -41 -25 -19 0 -36 33 -20 38
14 5 14 32 1 32 -11 0 -14 33 -3 43 18 18 50 5 67 -28z m-784 16 c0 -11 -98
-43 -110 -36 -16 10 -12 21 13 32 24 12 97 15 97 4z m1167 -32 c10 -10 -1 -96
-16 -111 -9 -10 -36 13 -54 49 -17 31 -16 32 9 52 30 23 45 26 61 10z m-305
-120 c-4 -39 -19 -43 -46 -14 l-26 28 0 -27 c0 -32 -13 -33 -33 -3 -14 21 -13
24 16 54 l31 33 30 -24 c21 -17 30 -31 28 -47z m246 6 c26 -41 26 -39 6 -70
l-16 -25 -25 20 c-14 11 -32 20 -39 20 -21 0 -16 41 8 67 29 31 39 29 66 -12z
m-122 -13 c21 -26 17 -37 -21 -63 -19 -13 -35 -28 -35 -33 0 -5 -11 8 -25 28
-30 44 -30 45 -9 75 13 18 22 22 47 17 16 -3 36 -14 43 -24z m-103 -65 c19
-29 41 -107 32 -115 -3 -4 -19 1 -34 10 -18 10 -34 12 -42 7 -8 -5 -26 -9 -41
-9 -25 0 -26 2 -21 43 7 66 21 87 59 87 22 0 36 -7 47 -23z m173 -13 c42 -20
53 -53 27 -88 -13 -18 -27 -25 -50 -26 -32 0 -45 14 -20 23 6 2 9 8 5 12 -4 4
-19 -5 -33 -19 -40 -40 -56 -35 -49 17 4 28 15 51 35 70 34 32 40 32 85 11z
m279 -104 c3 -5 -1 -10 -9 -10 -9 0 -16 5 -16 10 0 6 4 10 9 10 6 0 13 -4 16
-10z m-460 -18 c30 -8 35 -21 34 -82 -2 -67 19 -159 40 -180 13 -13 14 -13 2
2 -17 23 -27 164 -13 181 6 7 9 22 6 34 -5 18 0 21 53 27 56 7 59 6 86 -24 27
-31 29 -66 6 -96 -24 -30 -49 -132 -49 -199 0 -61 -3 -75 -21 -91 -21 -19 -22
-19 -81 46 -34 36 -85 101 -114 145 -48 70 -54 86 -54 130 0 27 5 57 10 65 5
8 10 11 10 6 0 -5 7 -3 15 4 8 7 12 16 9 21 -9 15 7 31 25 24 9 -4 25 -10 36
-13z m472 -33 c47 -41 68 -73 58 -88 -2 -5 -7 -50 -11 -102 -12 -159 -46 -201
-90 -109 -12 26 -54 76 -98 118 -68 64 -76 75 -70 100 4 15 10 32 15 37 4 6 7
15 6 20 -1 6 8 11 21 13 25 4 82 -28 118 -67 13 -14 24 -21 24 -16 0 12 -25
50 -52 79 -22 25 -23 32 0 45 25 15 27 15 79 -30z m-837 21 c0 -5 -4 -10 -10
-10 -5 0 -10 5 -10 10 0 6 5 10 10 10 6 0 10 -4 10 -10z m63 -22 c-13 -6 -23
-17 -23 -24 0 -30 -102 -214 -133 -239 -17 -14 -40 -33 -50 -41 -9 -8 -19 -14
-22 -14 -12 0 -3 28 15 48 11 12 20 23 20 26 0 2 16 32 34 65 19 34 30 61 25
61 -14 0 -2 38 23 73 17 23 23 26 35 15 12 -10 19 -7 36 15 12 15 31 26 42 26
19 0 18 -1 -2 -11z m1030 -60 c18 -13 34 -26 35 -30 2 -5 11 -8 19 -8 13 0 13
3 -1 25 -14 21 -14 25 -2 25 8 0 20 -16 26 -35 6 -19 15 -35 19 -35 11 0 44
-61 36 -68 -3 -3 -9 -1 -13 5 -10 16 -128 78 -164 87 -28 6 -58 31 -58 47 0
18 71 9 103 -13z m-859 -20 c-7 -10 45 -129 66 -153 11 -11 48 -55 84 -98 l66
-79 0 -71 c0 -94 -14 -121 -63 -125 -34 -3 -42 2 -90 51 -29 31 -59 68 -66 84
-7 15 -17 35 -21 44 -4 8 -6 29 -3 45 3 22 2 25 -6 14 -5 -8 -13 -11 -16 -8
-9 9 -9 188 0 211 4 9 4 29 1 43 -5 17 -3 23 4 19 5 -3 12 1 15 9 16 52 16 51
25 36 5 -8 7 -17 4 -22z m996 -200 c0 -5 -4 -8 -10 -8 -5 0 -10 10 -10 23 0
18 2 19 10 7 5 -8 10 -18 10 -22z"/>
<path d="M943 1905 c0 -22 2 -30 4 -17 2 12 2 30 0 40 -3 9 -5 -1 -4 -23z"/>
<path d="M950 1850 c0 -5 5 -10 11 -10 5 0 7 5 4 10 -3 6 -8 10 -11 10 -2 0
-4 -4 -4 -10z"/>
<path d="M780 1258 c0 -15 5 -30 10 -33 13 -8 13 25 0 45 -8 12 -10 9 -10 -12z"/>
<path d="M402 1488 c3 -7 13 -15 24 -17 16 -3 17 -1 5 13 -16 19 -34 21 -29 4z"/>
<path d="M450 1440 c0 -5 10 -15 23 -21 22 -12 22 -12 3 10 -21 23 -26 26 -26
11z"/>
<path d="M500 1387 c0 -7 23 -30 50 -52 28 -22 50 -43 50 -47 0 -5 5 -8 11 -8
17 0 7 16 -44 70 -49 51 -67 60 -67 37z"/>
<path d="M560 1232 c0 -10 22 -32 32 -32 15 0 8 15 -12 28 -11 7 -20 9 -20 4z"/>
<path d="M1120 1551 c0 -5 5 -13 10 -16 6 -3 10 -2 10 4 0 5 -4 13 -10 16 -5
3 -10 2 -10 -4z"/>
<path d="M980 1520 c0 -5 7 -10 16 -10 8 0 12 5 9 10 -3 6 -10 10 -16 10 -5 0
-9 -4 -9 -10z"/>
<path d="M1270 1484 c0 -8 5 -12 10 -9 6 4 8 11 5 16 -9 14 -15 11 -15 -7z"/>
<path d="M1077 1434 c-8 -8 1 -24 14 -24 5 0 9 7 9 15 0 15 -12 20 -23 9z"/>
<path d="M1310 1361 c0 -6 5 -13 10 -16 6 -3 10 1 10 9 0 9 -4 16 -10 16 -5 0
-10 -4 -10 -9z"/>
<path d="M1240 1260 c0 -5 5 -10 10 -10 6 0 10 5 10 10 0 6 -4 10 -10 10 -5 0
-10 -4 -10 -10z"/>
<path d="M1117 1253 c-4 -3 -7 -11 -7 -17 0 -6 5 -5 12 2 6 6 9 14 7 17 -3 3
-9 2 -12 -2z"/>
<path d="M1020 1161 c0 -5 5 -13 10 -16 6 -3 10 -2 10 4 0 5 -4 13 -10 16 -5
3 -10 2 -10 -4z"/>
<path d="M1151 784 c0 -11 3 -14 6 -6 3 7 2 16 -1 19 -3 4 -6 -2 -5 -13z"/>
<path d="M660 989 c0 -5 5 -7 10 -4 6 3 10 8 10 11 0 2 -4 4 -10 4 -5 0 -10
-5 -10 -11z"/>
<path d="M636 955 c-3 -8 -1 -15 4 -15 6 0 10 7 10 15 0 8 -2 15 -4 15 -2 0
-6 -7 -10 -15z"/>
<path d="M8590 2489 c-194 -111 -525 -415 -648 -596 -64 -94 -85 -114 -159
-152 -41 -20 -93 -28 -106 -15 -4 4 3 19 13 35 35 48 60 113 60 156 0 36 -5
46 -30 65 l-30 22 23 24 22 24 -24 19 c-36 29 -157 26 -263 -7 -175 -55 -292
-135 -339 -230 l-31 -62 -124 -61 c-69 -33 -127 -61 -129 -61 -1 0 -5 10 -9
23 -3 13 -24 45 -47 71 l-42 47 40 42 c363 385 423 465 423 568 0 53 -17 74
-52 63 -54 -17 -208 -188 -345 -384 -103 -146 -177 -217 -276 -264 -42 -20
-89 -47 -104 -60 -15 -13 -59 -40 -96 -60 -97 -51 -147 -47 -147 14 0 19 27
52 120 141 66 63 120 123 120 132 0 29 -31 95 -48 102 -23 9 -256 -109 -382
-193 -58 -39 -133 -96 -168 -126 -53 -47 -66 -54 -83 -46 -10 6 -19 15 -19 20
0 5 30 35 67 67 202 176 216 197 137 209 -25 3 -61 4 -81 1 -47 -8 -128 -72
-183 -146 -35 -47 -67 -74 -143 -122 -139 -87 -225 -121 -317 -127 -71 -4 -78
-3 -108 23 -26 21 -32 34 -32 64 l0 38 80 22 c160 44 305 116 361 179 40 45
41 104 3 129 -39 25 -168 22 -259 -7 -135 -42 -268 -135 -320 -225 -19 -32
-48 -56 -123 -102 -146 -91 -158 -96 -249 -101 -67 -4 -83 -2 -83 10 0 7 14
22 31 32 57 34 204 162 232 203 56 80 54 146 -5 167 -44 15 -159 -17 -298 -85
-67 -32 -125 -57 -128 -54 -11 10 56 91 127 154 151 133 174 158 168 173 -8
23 -88 32 -130 15 -19 -8 -119 -86 -222 -173 -102 -88 -234 -199 -291 -247
-57 -48 -104 -94 -104 -101 0 -17 -161 -95 -225 -109 -46 -9 -56 -8 -86 9 -19
11 -42 37 -53 58 -32 66 -15 97 110 196 128 101 267 237 312 304 60 92 95 224
69 261 -14 18 -16 18 -58 2 -71 -27 -214 -141 -350 -276 -112 -112 -131 -136
-172 -218 -55 -111 -70 -178 -65 -290 l3 -84 43 -41 43 -40 83 4 c73 3 92 8
167 45 83 41 256 161 272 189 4 7 36 35 70 60 34 26 80 63 101 83 25 21 41 30
44 22 5 -14 -40 -75 -197 -269 -64 -79 -131 -162 -150 -185 -57 -72 -82 -132
-79 -189 4 -60 22 -78 65 -62 33 11 73 63 173 223 l75 120 50 -6 c28 -3 66 -1
86 5 27 7 42 6 64 -5 69 -37 230 -25 363 27 43 16 119 57 170 90 51 33 95 60
98 60 2 0 4 -17 4 -37 0 -44 28 -110 56 -135 34 -30 92 -48 155 -48 112 0 299
76 418 170 28 22 53 40 56 40 3 0 5 -14 5 -31 0 -83 44 -149 99 -149 38 1 61
16 162 110 180 169 381 296 262 167 -68 -74 -115 -152 -120 -201 -5 -40 -2
-48 26 -77 29 -29 36 -31 85 -27 66 5 158 49 258 121 l76 55 27 -28 26 -28
-37 -57 c-61 -97 -97 -184 -98 -240 -1 -114 37 -185 100 -185 81 0 217 69 316
159 84 77 110 126 116 217 l5 74 79 40 c43 22 91 48 105 60 34 26 43 25 43 -5
0 -62 66 -142 136 -165 76 -25 208 6 310 75 42 27 64 35 99 35 52 0 141 29
184 59 43 31 51 27 51 -24 0 -80 39 -143 79 -130 11 3 71 49 133 101 115 96
319 234 347 234 9 0 -4 -20 -35 -52 -153 -159 -193 -268 -111 -303 58 -24 155
9 337 114 l105 60 11 -47 c20 -85 44 -112 102 -112 33 0 88 37 147 100 69 72
283 240 307 240 19 0 5 -23 -53 -87 -74 -82 -99 -129 -99 -186 0 -71 24 -92
102 -92 53 0 76 6 130 33 86 44 308 210 308 231 -1 40 -15 41 -70 4 -165 -112
-237 -137 -260 -92 -22 41 19 94 184 237 53 46 58 64 33 125 -13 31 -21 37
-45 37 -66 0 -394 -191 -520 -303 -78 -68 -105 -78 -110 -41 -2 14 13 33 50
65 104 87 188 172 188 189 0 21 -27 30 -91 30 -77 0 -169 -74 -259 -208 -39
-58 -49 -66 -134 -106 -117 -56 -157 -67 -187 -52 -46 22 -35 43 80 160 71 72
111 120 111 133 0 12 -12 31 -27 43 -56 44 -146 11 -398 -146 -77 -47 -157
-100 -177 -116 -43 -33 -58 -30 -58 13 0 25 13 39 87 97 261 203 622 542 658
618 17 36 17 38 -1 51 -30 22 -85 15 -144 -18z m-4750 -194 c0 -14 -37 -75
-75 -125 -53 -68 -208 -220 -225 -220 -16 0 -10 14 43 97 57 89 97 134 176
200 60 49 81 61 81 48z m1527 -292 c10 -27 -80 -100 -185 -151 -135 -66 -147
-30 -26 77 86 75 196 114 211 74z m2153 -77 c0 -7 -8 -24 -19 -37 -42 -54 -53
-90 -49 -158 l3 -66 -50 -27 c-68 -37 -136 -38 -171 -3 -21 21 -24 31 -19 58
18 81 68 131 196 197 106 54 109 55 109 36z m-2990 -31 c19 -23 4 -47 -90
-139 l-89 -88 -88 7 c-48 4 -90 10 -93 12 -3 3 23 31 57 63 42 40 95 75 163
109 111 55 122 58 140 36z m2143 -333 c34 -2 61 -10 63 -17 9 -22 -16 -97 -49
-154 -28 -47 -132 -141 -156 -141 -4 0 -17 17 -29 39 -32 57 -29 107 13 187
44 84 64 107 84 98 9 -4 42 -9 74 -12z"/>
<path d="M7388 2365 c-34 -19 -71 -79 -63 -104 7 -24 54 -41 110 -41 35 0 48
6 74 32 57 58 54 101 -6 117 -51 14 -83 13 -115 -4z"/>
<path d="M7774 2371 c-31 -14 -74 -69 -74 -96 0 -34 36 -55 96 -55 57 0 94 22
119 70 20 38 19 57 -3 69 -27 15 -114 22 -138 12z"/>
</g>
</svg>
