<?xml version="1.0" encoding="utf-8"?>
<!-- Generator: Adobe Illustrator 19.0.0, SVG Export Plug-In . SVG Version: 6.00 Build 0)  -->
<svg version="1.1" id="layer" xmlns="http://www.w3.org/2000/svg" xmlns:xlink="http://www.w3.org/1999/xlink" x="0px" y="0px"
	 viewBox="-153 -46 652 652" style="enable-background:new -153 -46 652 652;" xml:space="preserve">
<style type="text/css">
	.st0{fill:#008080;}
</style>
<path d="M11.4,295.6v23.1H-5.9V232h31.8c17.5,0,31.8,14.2,31.8,31.8s-14.2,31.8-31.8,31.8H11.4z M25.9,278.3
	c8,0.2,14.6-6.2,14.7-14.2c0.2-8-6.2-14.6-14.2-14.7c-0.2,0-0.4,0-0.6,0H11.4v28.9H25.9z M98.1,232h63.6v17.3h-46.2v22h34.7v17.3
	h-34.7v12.6h46.2v17.3H98.1V232z M245.4,318.7h-5.2L192.9,232h19.8l30.3,55.4l30.2-55.4h19.8L245.4,318.7z M323.6,232h17.3v86.7
	h-17.3V232z M442.4,305h-42.3l-7.5,13.7h-18.7l47.3-86.7l47.4,86.7H450L442.4,305z M433.4,288.6l-12.2-22.3l-12.2,22.4L433.4,288.6z
	 M-84,232l-47.3,86.7h18.7l28.6-52.5l19.3,35.2h-31.9l-9.4,17.3h50.7h5.3h13.4L-84,232z"/>
<polygon class="st0" points="-74.4,295.7 -83.9,278.3 -93.4,295.7 "/>
</svg>
