<svg version="1.1" id="Layer_1" xmlns="http://www.w3.org/2000/svg" xmlns:xlink="http://www.w3.org/1999/xlink" x="0px" y="0px"
	 width="100%" viewBox="0 0 3212 921" enable-background="new 0 0 3212 921" xml:space="preserve">
<path fill="#FFFFFF" opacity="1.000000" stroke="none" 
	d="
M3213.000000,152.000046 
	C3213.000000,408.635529 3213.000000,665.271057 3213.000000,922.000000 
	C2365.300537,922.000000 1517.601196,922.000000 669.531982,921.672363 
	C675.879822,914.956726 682.657898,908.630981 689.302734,902.168213 
	C704.425293,887.459961 719.468811,872.670471 734.583374,857.953979 
	C736.452148,856.134399 738.829041,854.775574 740.434570,852.773499 
	C741.208740,851.808167 741.422791,849.277588 740.717834,848.421570 
	C735.808350,842.460449 730.648193,836.701111 725.460938,830.974426 
	C715.167175,819.610229 704.762634,808.346191 694.491089,796.962158 
	C690.651367,792.706543 687.154358,788.142029 683.322388,783.878906 
	C678.389893,778.391479 673.277832,773.065430 667.891052,767.292603 
	C642.936462,795.195984 618.395996,822.636230 593.659790,850.295471 
	C611.069702,867.318665 628.285217,884.152588 645.504761,900.982422 
	C645.859192,901.328735 646.279419,901.607361 646.638184,901.949768 
	C652.504761,907.548279 658.407959,913.109924 664.172791,918.811340 
	C664.843628,919.474731 664.742981,920.918213 665.000000,922.000000 
	C443.722870,922.000000 222.445740,922.000000 1.000000,922.000000 
	C1.000000,615.967285 1.000000,309.934540 1.298470,3.508451 
	C2.359828,3.757575 3.122718,4.400058 4.020091,5.354595 
	C6.184300,8.024846 8.247069,10.355515 10.238303,12.745777 
	C21.765455,26.582876 33.278389,40.431824 44.791061,54.280979 
	C59.547787,72.032570 74.276917,89.807152 89.060020,107.536743 
	C104.374413,125.903511 119.752129,144.217453 135.078110,162.574554 
	C150.085022,180.549484 165.048843,198.560364 180.055359,216.535629 
	C193.701736,232.881668 207.393097,249.190201 221.040634,265.535278 
	C234.369141,281.498260 247.592087,297.550507 261.060699,313.394135 
	C263.060669,315.746796 265.907471,318.108185 268.784729,318.869232 
	C288.790802,324.161285 309.054535,328.516357 328.955902,334.158539 
	C358.548584,342.548309 387.337830,353.375793 414.850220,367.137329 
	C433.535614,376.483673 452.083099,386.352631 469.661865,397.598511 
	C489.209717,410.104095 507.818237,424.132019 526.378479,438.104553 
	C535.682617,445.108917 544.318665,453.108643 552.639526,461.286377 
	C565.944824,474.362732 579.069763,487.657623 591.641113,501.434814 
	C602.115845,512.914246 611.660767,525.240356 621.666504,537.150269 
	C627.683655,544.312622 633.839966,551.358093 639.853027,558.523865 
	C649.263184,569.737976 658.605103,581.009521 667.932800,592.205017 
	C674.067139,585.137695 679.938049,578.514954 685.650818,571.758606 
	C694.002380,561.881531 702.208740,551.881897 710.536255,541.984314 
	C718.245728,532.821411 726.059204,523.746094 733.779175,514.591980 
	C742.224854,504.577362 749.989441,493.896057 759.177612,484.621582 
	C772.894348,470.775909 787.173523,457.409851 802.005371,444.769043 
	C815.626770,433.159821 829.983398,422.340973 844.571960,411.954620 
	C870.781982,393.294281 898.515564,377.112152 927.968262,364.076324 
	C943.184326,357.341675 958.554504,350.892487 974.128784,345.042999 
	C1003.717163,333.930054 1034.251343,326.066742 1065.232910,319.912170 
	C1069.459106,319.072662 1072.446655,316.577393 1075.000488,313.187378 
	C1078.694580,308.283813 1082.587646,303.522858 1086.546021,298.827637 
	C1090.812256,293.767273 1095.376587,288.955658 1099.580322,283.845825 
	C1103.817261,278.695618 1107.618286,273.184906 1111.892212,268.067596 
	C1116.110718,263.016724 1120.710205,258.285553 1125.085938,253.363800 
	C1127.063599,251.139465 1128.948120,248.828217 1130.798096,246.495438 
	C1134.620117,241.675980 1138.268555,236.713669 1142.215088,231.999847 
	C1146.456299,226.934235 1151.053833,222.167862 1155.322021,217.123917 
	C1161.739502,209.540375 1167.998047,201.822525 1174.340820,194.175522 
	C1176.454590,191.626938 1178.654663,189.149521 1180.752808,186.588455 
	C1185.059570,181.331467 1189.254150,175.981094 1193.626099,170.779388 
	C1197.885254,165.711777 1202.434814,160.885132 1206.622559,155.761292 
	C1210.529297,150.981369 1213.959717,145.809525 1217.908569,141.067261 
	C1222.119995,136.009659 1226.721558,131.278427 1231.095947,126.354286 
	C1233.072632,124.129234 1234.937256,121.802597 1236.808105,119.486099 
	C1240.766968,114.584465 1244.616821,109.592659 1248.659668,104.761925 
	C1252.908325,99.685242 1257.451416,94.852707 1261.641113,89.729591 
	C1265.547363,84.952835 1268.976807,79.781837 1272.947144,75.062706 
	C1277.506226,69.643700 1282.460815,64.558830 1287.179199,59.271530 
	C1289.160034,57.051994 1291.004150,54.707737 1292.861206,52.381012 
	C1296.693604,47.579170 1300.387573,42.662418 1304.334961,37.957802 
	C1308.586304,32.890987 1313.162231,28.096565 1317.413940,23.029991 
	C1322.089233,17.458546 1326.556519,11.712492 1331.414551,5.922782 
	C1332.143188,4.202041 1332.571655,2.601021 1333.000000,1.000001 
	C1959.542480,1.000000 2586.084961,1.000000 3213.000000,1.000000 
	C3213.000000,50.365440 3213.000000,99.731812 3212.531250,149.549103 
	C3166.224365,150.000000 3120.383301,150.254303 3074.551270,149.728180 
	C3067.607910,149.648499 3064.096680,152.980545 3060.456299,157.142517 
	C3050.765137,168.223328 3041.350342,179.545090 3031.761230,190.715622 
	C3025.033936,198.552094 3018.142334,206.247742 3011.428467,214.095230 
	C3002.181885,224.903015 2993.095947,235.848221 2983.823730,246.633759 
	C2976.549072,255.095871 2969.012207,263.332947 2961.742432,271.799133 
	C2950.449951,284.949310 2939.302246,298.223694 2928.061768,311.418304 
	C2918.191406,323.004547 2908.331299,334.600464 2898.339111,346.080902 
	C2896.216797,348.519348 2893.541260,350.476379 2890.899170,352.854492 
	C2868.217041,284.494598 2845.914307,217.279114 2823.689941,150.299072 
	C2774.598145,150.299072 2725.862549,150.299072 2676.952393,150.299072 
	C2677.067383,151.256821 2677.037109,151.937103 2677.237549,152.540604 
	C2687.754395,184.182495 2698.312988,215.810394 2708.819580,247.455612 
	C2727.865479,304.820343 2746.877930,362.196136 2765.912354,419.564697 
	C2771.869629,437.518890 2777.892334,455.451721 2783.758545,473.435608 
	C2784.272949,475.013428 2784.525146,477.362244 2783.718262,478.552094 
	C2781.616699,481.651520 2778.843506,484.292694 2776.364502,487.139526 
	C2769.691650,494.803589 2762.985352,502.439209 2756.379150,510.160553 
	C2747.024170,521.094727 2737.772217,532.116821 2728.428955,543.061096 
	C2720.344482,552.531189 2712.208984,561.958069 2704.069580,571.381409 
	C2693.252197,583.905579 2682.425049,596.421387 2671.571045,608.914001 
	C2664.572754,616.968933 2657.465088,624.929016 2650.503662,633.015625 
	C2640.790771,644.298584 2631.207764,655.693604 2621.494385,666.976379 
	C2614.539062,675.055237 2607.402832,682.978516 2600.452881,691.061768 
	C2590.854736,702.224670 2581.401123,713.511841 2571.798828,724.671082 
	C2564.737305,732.877686 2557.475830,740.912170 2550.413086,749.117798 
	C2540.809082,760.275818 2531.311768,771.525818 2521.764404,782.732544 
	C2515.885742,789.632996 2509.999023,796.526184 2503.623291,804.000000 
	C2506.192139,804.000000 2507.824219,804.000000 2509.456299,804.000000 
	C2554.789551,804.000000 2600.123291,803.920715 2645.455811,804.121033 
	C2650.058105,804.141357 2653.336426,802.951111 2656.115723,799.444458 
	C2658.457275,796.489746 2661.123779,793.795044 2663.570557,790.920410 
	C2672.897461,779.962219 2682.145996,768.937012 2691.517334,758.016846 
	C2698.459717,749.927185 2705.604736,742.011597 2712.554932,733.928406 
	C2722.153564,722.765381 2731.618164,711.487488 2741.206543,700.315918 
	C2747.932861,692.478699 2754.820801,684.780029 2761.547363,676.942932 
	C2771.135742,665.771667 2780.607422,654.500183 2790.195557,643.328613 
	C2796.922119,635.491089 2803.805420,627.788208 2810.536377,619.954529 
	C2820.239014,608.662476 2829.839355,597.282410 2839.536621,585.985596 
	C2846.155762,578.274841 2852.914062,570.683716 2859.524414,562.965332 
	C2868.992676,551.909912 2878.340332,540.750977 2887.819336,529.704712 
	C2894.653320,521.740662 2901.668213,513.931946 2908.511475,505.975586 
	C2918.219482,494.688385 2927.804688,483.295319 2937.517090,472.011871 
	C2944.471924,463.932617 2951.614258,456.014679 2958.556396,447.924622 
	C2967.927246,437.004364 2977.137451,425.946411 2986.507812,415.026031 
	C2993.449951,406.935913 3000.603516,399.027374 3007.545410,390.937195 
	C3016.916260,380.016937 3026.125488,368.958313 3035.496094,358.038025 
	C3042.437988,349.947845 3049.581055,342.030304 3056.535889,333.951050 
	C3066.248779,322.667999 3075.842529,311.282288 3085.539795,299.985687 
	C3092.158936,292.275116 3098.908203,284.676300 3105.527100,276.965546 
	C3115.224121,265.668793 3124.829346,254.293167 3134.526611,242.996613 
	C3141.145508,235.285980 3147.895996,227.688126 3154.514648,219.977570 
	C3164.212158,208.681000 3173.865234,197.346207 3183.496094,185.992889 
	C3188.458496,180.143097 3193.246338,174.143768 3198.270264,168.348434 
	C3203.074463,162.807144 3208.082031,157.442398 3213.000000,152.000046 
M2850.987549,675.831970 
	C2851.325684,677.071777 2851.606689,678.330505 2852.009521,679.548828 
	C2865.328613,719.812256 2878.666260,760.069580 2891.968994,800.338379 
	C2892.645752,802.387085 2892.931885,804.649109 2896.927002,803.980469 
	C2944.863037,803.980469 2992.799072,803.980469 3041.161621,803.980469 
	C3012.727783,718.687378 2984.454834,633.876648 2956.069824,548.730286 
	C2947.536865,558.540955 2939.471680,567.808655 2931.412842,577.081726 
	C2924.733398,584.767395 2918.002441,592.409302 2911.398438,600.159302 
	C2900.452148,613.005005 2889.652832,625.976440 2878.670654,638.791321 
	C2869.584473,649.394104 2860.268555,659.800659 2851.236328,670.448425 
	C2850.431885,671.396606 2850.970215,673.483643 2850.987549,675.831970 
M1444.000000,461.413422 
	C1445.328125,475.411377 1446.766846,489.399994 1447.956299,503.409729 
	C1449.413330,520.571838 1450.626953,537.754395 1452.012085,554.922729 
	C1452.947266,566.515625 1454.028320,578.096680 1454.987061,589.687683 
	C1456.352173,606.190857 1457.651978,622.699280 1459.004395,639.203491 
	C1459.981323,651.126221 1461.083374,663.039368 1461.976562,674.968201 
	C1463.068115,689.548828 1463.994141,704.141846 1465.003174,718.728699 
	C1465.320557,723.314819 1465.625977,727.902527 1466.020142,732.482422 
	C1467.326294,747.656677 1468.660889,762.828552 1470.003784,777.999634 
	C1470.765015,786.600891 1471.563354,795.198914 1472.337158,803.712280 
	C1515.981812,803.712280 1559.386963,803.712280 1603.448486,803.712280 
	C1602.943726,798.658325 1602.402344,793.951721 1602.015259,789.232483 
	C1600.648193,772.562805 1599.355957,755.886963 1597.992676,739.216980 
	C1597.031250,727.459717 1595.985107,715.709473 1595.006226,703.953613 
	C1593.985718,691.701172 1593.015991,679.444458 1591.995728,667.192017 
	C1591.016724,655.436157 1589.979614,643.685181 1589.007690,631.928772 
	C1587.980957,619.509949 1587.017944,607.085754 1585.996826,594.666504 
	C1584.680786,578.659546 1583.334229,562.655151 1582.000854,546.649658 
	C1580.667358,530.644226 1579.334229,514.638733 1578.000854,498.633270 
	C1576.667480,482.627655 1575.326416,466.622681 1574.003540,450.616211 
	C1572.990723,438.363068 1572.006592,426.107544 1571.000000,413.853882 
	C1569.671509,397.681305 1568.344849,381.508575 1566.996338,365.337677 
	C1566.015869,353.582031 1564.910400,341.835999 1564.025269,330.073303 
	C1562.927979,315.493164 1562.004639,300.899963 1560.997803,286.312988 
	C1560.669678,281.560669 1560.388062,276.803589 1559.958008,272.060181 
	C1558.672363,257.884277 1557.239502,243.721283 1556.029297,229.539154 
	C1555.205444,219.883026 1554.753784,210.195511 1553.967651,200.535706 
	C1552.718872,185.190323 1551.190186,169.866196 1550.106812,154.509995 
	C1549.863037,151.054565 1548.956665,149.932114 1545.466797,149.938263 
	C1494.470459,150.028152 1443.473999,149.968246 1392.478027,150.129028 
	C1390.648071,150.134796 1388.173096,151.595810 1387.117188,153.142319 
	C1383.677979,158.179337 1380.845215,163.624863 1377.624756,168.817474 
	C1359.475098,198.080750 1341.200317,227.266800 1323.123535,256.574860 
	C1305.240601,285.568390 1287.546875,314.678528 1269.760376,343.731567 
	C1258.844116,361.562531 1247.916748,379.386871 1236.980469,397.205505 
	C1224.611328,417.358704 1212.228760,437.503632 1199.847778,457.649506 
	C1188.899292,475.464203 1177.933228,493.267944 1166.996094,511.089600 
	C1154.629517,531.240662 1142.301025,551.415039 1129.929565,571.563049 
	C1118.648560,589.934998 1107.325806,608.281372 1096.032715,626.645996 
	C1083.903198,646.370667 1071.785889,666.102844 1059.665527,685.833069 
	C1049.561768,702.280823 1039.459229,718.729431 1029.359863,735.179871 
	C1018.252502,753.272278 1007.137939,771.360291 996.052063,789.465881 
	C993.234314,794.067932 990.513245,798.729248 987.367798,804.000000 
	C990.059875,804.000000 991.852600,804.000000 993.645264,804.000000 
	C1036.308960,804.000000 1078.973267,803.897644 1121.635620,804.137207 
	C1126.643555,804.165344 1129.036011,802.437012 1131.452271,798.282104 
	C1141.799316,780.489685 1152.574585,762.946411 1163.190796,745.310547 
	C1176.293945,723.543396 1189.376465,701.763855 1202.500732,680.009399 
	C1213.714966,661.420654 1224.996216,642.872559 1236.210083,624.283569 
	C1249.333984,602.528809 1262.435181,580.760193 1275.510986,558.976501 
	C1284.944824,543.260315 1294.279785,527.484680 1303.732910,511.780121 
	C1316.918091,489.875275 1330.184326,468.019104 1343.394165,446.129028 
	C1354.527954,427.679047 1365.634521,409.212494 1376.746582,390.749329 
	C1390.345215,368.154053 1403.922241,345.545654 1417.541138,322.962494 
	C1421.733887,316.009888 1426.032837,309.121155 1430.987671,301.056427 
	C1431.723022,311.330505 1432.355103,320.252472 1433.002686,329.173340 
	C1433.323608,333.592407 1433.625000,338.013702 1434.018066,342.426636 
	C1435.325195,357.101257 1436.744019,371.766296 1437.973755,386.447296 
	C1438.782837,396.104919 1439.236816,405.792114 1440.034180,415.450836 
	C1441.273682,430.464172 1442.670044,445.464539 1444.000000,461.413422 
M1862.507812,589.999939 
	C1900.922119,589.666626 1939.337769,589.437256 1977.749512,588.918152 
	C1986.089722,588.805420 1994.615723,588.565735 2002.707031,586.791748 
	C2019.635254,583.080444 2036.580444,579.083801 2053.058838,573.776367 
	C2073.923828,567.056091 2093.520508,557.120544 2111.575439,544.688782 
	C2125.984619,534.767395 2140.266602,524.425781 2153.298340,512.805115 
	C2167.174072,500.431885 2180.477783,487.130463 2192.289551,472.798767 
	C2208.918213,452.622284 2221.954102,429.976562 2231.809326,405.615784 
	C2242.907471,378.182251 2249.852295,349.752991 2251.916504,320.242706 
	C2253.055908,303.952881 2251.644287,287.620880 2247.799072,271.825592 
	C2240.038574,239.944153 2224.174805,212.667923 2199.363037,190.733368 
	C2187.861328,180.565109 2175.288086,172.313980 2161.336426,166.014053 
	C2138.433350,155.671799 2114.163330,150.350571 2089.319824,150.219498 
	C1989.001465,149.690201 1888.678711,149.999130 1788.357544,150.008682 
	C1786.921143,150.008820 1785.484741,150.139526 1783.412598,150.240173 
	C1789.692261,190.751511 1795.896729,230.776886 1802.131714,271.000000 
	C1804.303101,271.000000 1806.117676,271.000000 1807.932251,271.000000 
	C1885.922852,271.000000 1963.913696,270.903931 2041.903687,271.131805 
	C2050.809326,271.157806 2059.903564,272.155396 2068.578125,274.148346 
	C2100.246338,281.423920 2116.616699,306.562317 2118.908936,335.908630 
	C2119.739746,346.544647 2117.698730,356.972260 2115.094482,367.356262 
	C2105.234375,406.673798 2081.629883,435.147461 2046.693237,454.654297 
	C2029.342651,464.341797 2010.573486,468.235992 1990.633667,468.109741 
	C1938.975342,467.782745 1887.313477,468.000000 1835.653076,468.000000 
	C1808.489746,468.000000 1781.326172,468.026733 1754.163086,467.955292 
	C1751.667114,467.948730 1749.763306,468.103851 1749.000977,470.990906 
	C1745.393066,484.653412 1741.629883,498.275085 1738.041260,511.942596 
	C1731.106201,538.355103 1724.309204,564.803955 1717.346680,591.209167 
	C1710.304199,617.917969 1703.091553,644.581787 1696.024902,671.284180 
	C1688.094482,701.249817 1680.230103,731.232910 1672.365356,761.215942 
	C1668.645996,775.395203 1664.992554,789.591736 1661.252319,803.999939 
	C1703.755493,803.999939 1745.747192,803.999939 1787.739014,803.999695 
	C1788.238892,803.999695 1788.864990,804.188110 1789.214844,803.958069 
	C1790.197998,803.311401 1791.633545,802.649963 1791.894653,801.715942 
	C1794.705322,791.662231 1797.361328,781.564453 1799.987915,771.460083 
	C1807.100952,744.095459 1814.118530,716.705872 1821.289062,689.356323 
	C1828.456665,662.017090 1835.761597,634.713867 1843.011597,607.396240 
	C1844.329712,602.429504 1844.802368,596.986816 1847.220093,592.625671 
	C1850.414429,586.863831 1856.762085,591.329529 1862.507812,589.999939 
M2205.500000,804.000000 
	C2285.148193,804.000000 2364.796631,804.000000 2444.447510,804.000000 
	C2455.369141,762.703003 2466.237793,721.605713 2477.182617,680.221375 
	C2297.089844,680.221375 2117.322754,680.221375 1937.444824,680.221375 
	C1926.584229,721.284729 1915.714722,762.382263 1904.707642,804.000000 
	C2004.926514,804.000000 2104.713379,804.000000 2205.500000,804.000000 
M584.033936,725.447205 
	C578.535645,731.921021 573.210754,738.552795 567.495300,744.828918 
	C560.284058,752.747498 552.674438,760.301941 545.389038,768.154724 
	C540.208923,773.738220 535.372192,779.640076 530.196899,785.228210 
	C527.952026,787.652222 529.394226,788.972778 531.052246,790.549194 
	C538.257935,797.400574 545.473755,804.241821 552.625610,811.149109 
	C556.699463,815.083557 560.641968,819.153748 564.674561,823.131409 
	C566.529846,824.961487 567.858215,826.248840 570.508240,823.282593 
	C578.496887,814.340881 587.200562,806.040527 595.249817,797.150024 
	C607.942993,783.130310 620.276062,768.785278 632.868042,754.672913 
	C640.230408,746.421631 647.911438,738.453796 655.240906,730.174194 
	C661.273865,723.359131 670.497498,721.274780 677.213074,727.056641 
	C684.752136,733.547302 691.350159,741.180603 698.022339,748.617615 
	C710.096802,762.076172 721.838440,775.832947 733.877441,789.323792 
	C744.201782,800.893250 754.868042,812.159241 765.094666,823.812622 
	C767.174438,826.182434 768.064331,826.468750 770.274353,824.292297 
	C781.749939,812.990906 793.306885,801.771057 804.933655,790.625183 
	C807.185303,788.466675 807.533447,787.023926 805.165039,784.544922 
	C798.907104,777.994934 792.929199,771.174072 786.922485,764.387878 
	C774.607300,750.474487 762.410339,736.455872 750.042480,722.589722 
	C740.163574,711.513855 729.903625,700.770691 720.257080,689.499634 
	C717.670227,686.477173 715.777039,682.200439 715.199402,678.259949 
	C714.088074,670.679138 718.432678,664.517883 725.962158,660.996216 
	C731.452332,658.428345 739.650024,659.852478 744.382812,665.014221 
	C754.944275,676.532837 765.134460,688.390930 775.564026,700.031616 
	C785.245911,710.837708 795.074768,721.512024 804.773193,732.303467 
	C809.051758,737.064270 813.088013,742.043335 817.378418,746.793091 
	C822.434021,752.389954 827.645935,757.845642 832.900330,763.480835 
	C842.907959,753.857666 852.442200,744.641663 862.030029,735.481812 
	C875.927795,722.204224 889.823364,708.923523 903.816223,695.746521 
	C906.947388,692.798035 907.423279,690.263184 903.912292,687.401184 
	C900.269043,684.431458 896.511047,681.571777 893.113525,678.338013 
	C886.415100,671.962463 880.074402,665.208496 873.324341,658.890320 
	C863.355530,649.559448 853.035034,640.603516 843.090576,631.247437 
	C831.189392,620.050415 819.558472,608.566650 807.751648,597.268616 
	C793.985229,584.095276 780.174622,570.968018 766.338440,557.867981 
	C763.022705,554.728638 759.530334,551.776001 755.929077,548.568176 
	C726.570312,580.403320 697.504272,611.921021 667.964722,643.952209 
	C659.930420,635.054626 652.505920,626.676941 644.909485,618.458130 
	C634.916321,607.646301 624.737366,597.006165 614.737549,586.200317 
	C609.148193,580.160339 603.841187,573.859253 598.258667,567.812744 
	C592.335876,561.397705 586.237549,555.144775 580.002380,548.596863 
	C571.843506,556.036682 563.863037,563.161011 556.052551,570.467224 
	C538.966003,586.450562 521.970276,602.530945 504.928467,618.562195 
	C493.961700,628.878662 482.949554,639.147095 472.010834,649.493164 
	C458.652283,662.128052 445.453766,674.934631 431.951172,687.412842 
	C428.435150,690.662048 428.719208,692.528503 432.033691,695.660278 
	C449.152435,711.835266 466.030701,728.264343 483.061279,744.533203 
	C489.616699,750.795349 496.353027,756.868164 503.340607,763.336121 
	C511.674377,754.266968 520.008057,745.367737 528.151245,736.297485 
	C541.564331,721.357544 554.878296,706.328186 568.185974,691.294006 
	C575.046326,683.543701 581.854797,675.746094 588.593567,667.889954 
	C596.502869,658.669250 606.316711,656.969055 615.737793,664.398987 
	C622.817505,669.982361 622.876282,681.486633 615.953552,689.459290 
	C609.467651,696.928711 602.639343,704.099670 596.054810,711.484985 
	C592.127319,715.890137 588.379211,720.455200 584.033936,725.447205 
M2311.500000,150.000000 
	C2303.003174,150.000000 2294.506348,150.000000 2285.092529,150.000000 
	C2314.803467,186.911835 2330.467773,227.954224 2333.397461,273.880981 
	C2417.258057,273.880981 2500.878662,273.880981 2584.573486,273.880981 
	C2595.458740,232.687790 2606.319580,191.587646 2617.308838,150.000000 
	C2515.402588,150.000000 2413.951172,150.000000 2311.500000,150.000000 
M2535.966309,459.237030 
	C2539.630127,444.622559 2543.293945,430.008087 2547.012451,415.175598 
	C2467.021484,415.175598 2387.259033,415.175598 2307.510498,415.175598 
	C2298.331055,437.879547 2287.049316,459.423950 2273.655518,479.899231 
	C2259.953125,500.846741 2244.083740,520.065186 2226.918457,538.815796 
	C2323.297119,538.815796 2419.023682,538.815796 2514.475342,538.815796 
	C2521.540039,512.373962 2528.541016,486.172119 2535.966309,459.237030 
z"/>
<path fill="#FFFFFF" opacity="1.000000" stroke="none" 
	d="
M5.000000,1.000000 
	C445.699371,1.000000 886.398743,1.000000 1327.447266,1.351314 
	C1323.320557,3.443648 1318.930542,5.462302 1314.354248,6.878996 
	C1291.066162,14.088260 1267.703003,21.055191 1244.417236,28.271526 
	C1215.122803,37.349937 1185.894287,46.640820 1156.606201,55.739933 
	C1133.172363,63.020279 1109.676636,70.102020 1086.235962,77.360703 
	C1056.631714,86.528030 1027.061768,95.805672 997.465271,104.997650 
	C973.414124,112.467369 949.335388,119.848175 925.287415,127.328117 
	C897.850037,135.862305 870.447815,144.510300 842.989258,152.975601 
	C839.453491,154.065659 836.432190,155.400223 834.559937,159.101303 
	C831.616821,162.219193 828.927307,165.142609 826.383240,168.187485 
	C818.303772,177.857239 810.318970,187.606140 802.220825,197.260056 
	C794.633118,206.305435 786.892883,215.223083 779.318848,224.279785 
	C769.767578,235.700806 760.383179,247.261703 750.801941,258.657227 
	C742.776550,268.202362 734.508728,277.543427 726.464355,287.072815 
	C718.229309,296.828003 710.122803,306.691895 701.983459,316.527588 
	C694.161499,325.979736 686.422180,335.500793 678.539490,344.901825 
	C675.216248,348.865143 671.618591,352.598389 667.933472,356.670715 
	C657.038330,343.949585 646.596497,331.937225 636.357544,319.754364 
	C625.199951,306.478394 614.302429,292.983887 603.157043,279.697449 
	C593.458801,268.136230 583.479980,256.810303 573.793579,245.239365 
	C560.980042,229.932877 548.406128,214.425720 535.586182,199.124680 
	C525.788391,187.430588 515.757446,175.932022 505.854950,164.325363 
	C503.206482,161.221085 500.648743,158.039398 497.862915,154.556534 
	C475.928497,147.519333 454.184357,140.806213 432.431549,134.121475 
	C403.727448,125.300598 375.006805,116.533707 346.311615,107.683990 
	C322.555328,100.357437 298.821228,92.958710 275.085358,85.566071 
	C245.650879,76.398567 216.237640,67.162643 186.790802,58.035061 
	C163.660049,50.865265 140.478973,43.857864 117.344315,36.700535 
	C90.818817,28.494158 64.299904,20.265261 37.818962,11.916645 
	C26.824837,8.450540 15.936463,4.649001 5.000000,1.000000 
M682.197571,71.036140 
	C681.125793,71.356575 680.061951,71.707420 678.980957,71.992722 
	C668.388794,74.788071 657.452454,76.676231 647.272949,80.552757 
	C628.010986,87.888062 609.126221,96.232574 590.218201,104.464325 
	C585.921509,106.334892 582.169373,109.456039 578.020508,112.683113 
	C578.308716,113.469414 578.596863,114.255714 579.001587,115.817467 
	C581.389893,125.211823 583.778259,134.606186 586.020203,144.776413 
	C586.346802,149.703690 587.090332,154.645859 586.915283,159.555237 
	C586.522400,170.568680 585.485413,181.558884 585.078064,192.572144 
	C584.823792,199.446152 584.676208,206.064575 590.794800,211.647476 
	C597.038086,217.344070 601.999695,224.452774 607.469604,230.987534 
	C615.769531,240.903183 624.043335,250.840912 632.290955,260.800079 
	C638.338989,268.103180 644.261292,275.511200 650.361328,282.770203 
	C656.122192,289.625580 662.041809,296.347443 668.135193,303.410400 
	C688.578552,279.092712 708.784790,255.056976 728.441528,231.674942 
	C721.165771,222.118759 713.572937,213.098755 707.065674,203.353897 
	C699.255798,191.658493 695.384277,178.151779 695.309937,164.273270 
	C695.243164,151.808044 699.591675,139.977707 707.543640,130.077286 
	C715.907532,119.664070 726.839417,115.339211 738.653198,126.167259 
	C741.981384,129.217758 745.192810,132.395599 748.415039,135.474152 
	C749.274353,133.643219 750.745239,131.855515 750.889404,129.966583 
	C751.479431,122.232704 752.306396,114.428757 751.835876,106.724518 
	C751.255310,97.219650 748.307861,88.258202 741.542664,81.039764 
	C733.539673,72.500725 722.976135,69.568359 711.983093,69.215340 
	C702.352966,68.906075 692.663574,70.444443 682.197571,71.036140 
z"/>
<path fill="#000000" opacity="1.000000" stroke="none" 
	d="
M3213.000000,151.666718 
	C3208.082031,157.442398 3203.074463,162.807144 3198.270264,168.348434 
	C3193.246338,174.143768 3188.458496,180.143097 3183.496094,185.992889 
	C3173.865234,197.346207 3164.212158,208.681000 3154.514648,219.977570 
	C3147.895996,227.688126 3141.145508,235.285980 3134.526611,242.996613 
	C3124.829346,254.293167 3115.224121,265.668793 3105.527100,276.965546 
	C3098.908203,284.676300 3092.158936,292.275116 3085.539795,299.985687 
	C3075.842529,311.282288 3066.248779,322.667999 3056.535889,333.951050 
	C3049.581055,342.030304 3042.437988,349.947845 3035.496094,358.038025 
	C3026.125488,368.958313 3016.916260,380.016937 3007.545410,390.937195 
	C3000.603516,399.027374 2993.449951,406.935913 2986.507812,415.026031 
	C2977.137451,425.946411 2967.927246,437.004364 2958.556396,447.924622 
	C2951.614258,456.014679 2944.471924,463.932617 2937.517090,472.011871 
	C2927.804688,483.295319 2918.219482,494.688385 2908.511475,505.975586 
	C2901.668213,513.931946 2894.653320,521.740662 2887.819336,529.704712 
	C2878.340332,540.750977 2868.992676,551.909912 2859.524414,562.965332 
	C2852.914062,570.683716 2846.155762,578.274841 2839.536621,585.985596 
	C2829.839355,597.282410 2820.239014,608.662476 2810.536377,619.954529 
	C2803.805420,627.788208 2796.922119,635.491089 2790.195557,643.328613 
	C2780.607422,654.500183 2771.135742,665.771667 2761.547363,676.942932 
	C2754.820801,684.780029 2747.932861,692.478699 2741.206543,700.315918 
	C2731.618164,711.487488 2722.153564,722.765381 2712.554932,733.928406 
	C2705.604736,742.011597 2698.459717,749.927185 2691.517334,758.016846 
	C2682.145996,768.937012 2672.897461,779.962219 2663.570557,790.920410 
	C2661.123779,793.795044 2658.457275,796.489746 2656.115723,799.444458 
	C2653.336426,802.951111 2650.058105,804.141357 2645.455811,804.121033 
	C2600.123291,803.920715 2554.789551,804.000000 2509.456299,804.000000 
	C2507.824219,804.000000 2506.192139,804.000000 2503.623291,804.000000 
	C2509.999023,796.526184 2515.885742,789.632996 2521.764404,782.732544 
	C2531.311768,771.525818 2540.809082,760.275818 2550.413086,749.117798 
	C2557.475830,740.912170 2564.737305,732.877686 2571.798828,724.671082 
	C2581.401123,713.511841 2590.854736,702.224670 2600.452881,691.061768 
	C2607.402832,682.978516 2614.539062,675.055237 2621.494385,666.976379 
	C2631.207764,655.693604 2640.790771,644.298584 2650.503662,633.015625 
	C2657.465088,624.929016 2664.572754,616.968933 2671.571045,608.914001 
	C2682.425049,596.421387 2693.252197,583.905579 2704.069580,571.381409 
	C2712.208984,561.958069 2720.344482,552.531189 2728.428955,543.061096 
	C2737.772217,532.116821 2747.024170,521.094727 2756.379150,510.160553 
	C2762.985352,502.439209 2769.691650,494.803589 2776.364502,487.139526 
	C2778.843506,484.292694 2781.616699,481.651520 2783.718262,478.552094 
	C2784.525146,477.362244 2784.272949,475.013428 2783.758545,473.435608 
	C2777.892334,455.451721 2771.869629,437.518890 2765.912354,419.564697 
	C2746.877930,362.196136 2727.865479,304.820343 2708.819580,247.455612 
	C2698.312988,215.810394 2687.754395,184.182495 2677.237549,152.540604 
	C2677.037109,151.937103 2677.067383,151.256821 2676.952393,150.299072 
	C2725.862549,150.299072 2774.598145,150.299072 2823.689941,150.299072 
	C2845.914307,217.279114 2868.217041,284.494598 2890.899170,352.854492 
	C2893.541260,350.476379 2896.216797,348.519348 2898.339111,346.080902 
	C2908.331299,334.600464 2918.191406,323.004547 2928.061768,311.418304 
	C2939.302246,298.223694 2950.449951,284.949310 2961.742432,271.799133 
	C2969.012207,263.332947 2976.549072,255.095871 2983.823730,246.633759 
	C2993.095947,235.848221 3002.181885,224.903015 3011.428467,214.095230 
	C3018.142334,206.247742 3025.033936,198.552094 3031.761230,190.715622 
	C3041.350342,179.545090 3050.765137,168.223328 3060.456299,157.142517 
	C3064.096680,152.980545 3067.607910,149.648499 3074.551270,149.728180 
	C3120.383301,150.254303 3166.224365,150.000000 3212.531250,150.000000 
	C3213.000000,150.444443 3213.000000,150.888901 3213.000000,151.666718 
z"/>
<path fill="#FF0037" opacity="1.000000" stroke="none" 
	d="
M665.399963,922.000000 
	C664.742981,920.918213 664.843628,919.474731 664.172791,918.811340 
	C658.407959,913.109924 652.504761,907.548279 646.638184,901.949768 
	C646.279419,901.607361 645.859192,901.328735 645.504761,900.982422 
	C628.285217,884.152588 611.069702,867.318665 593.659790,850.295471 
	C618.395996,822.636230 642.936462,795.195984 667.891052,767.292603 
	C673.277832,773.065430 678.389893,778.391479 683.322388,783.878906 
	C687.154358,788.142029 690.651367,792.706543 694.491089,796.962158 
	C704.762634,808.346191 715.167175,819.610229 725.460938,830.974426 
	C730.648193,836.701111 735.808350,842.460449 740.717834,848.421570 
	C741.422791,849.277588 741.208740,851.808167 740.434570,852.773499 
	C738.829041,854.775574 736.452148,856.134399 734.583374,857.953979 
	C719.468811,872.670471 704.425293,887.459961 689.302734,902.168213 
	C682.657898,908.630981 675.879822,914.956726 669.081116,921.672363 
	C667.933289,922.000000 666.866638,922.000000 665.399963,922.000000 
z"/>
<path fill="#FF0037" opacity="1.000000" stroke="none" 
	d="
M834.880066,158.962433 
	C836.432190,155.400223 839.453491,154.065659 842.989258,152.975601 
	C870.447815,144.510300 897.850037,135.862305 925.287415,127.328117 
	C949.335388,119.848175 973.414124,112.467369 997.465271,104.997650 
	C1027.061768,95.805672 1056.631714,86.528030 1086.235962,77.360703 
	C1109.676636,70.102020 1133.172363,63.020279 1156.606201,55.739933 
	C1185.894287,46.640820 1215.122803,37.349937 1244.417236,28.271526 
	C1267.703003,21.055191 1291.066162,14.088260 1314.354248,6.878996 
	C1318.930542,5.462302 1323.320557,3.443648 1327.898193,1.351314 
	C1329.388916,1.000000 1330.777832,1.000000 1332.583374,1.000001 
	C1332.571655,2.601021 1332.143188,4.202041 1331.002686,5.911414 
	C1328.997437,6.262712 1327.666626,6.382451 1326.416992,6.766747 
	C1299.450317,15.059306 1272.483765,23.353014 1245.535400,31.704937 
	C1211.133179,42.367020 1176.750366,53.092384 1142.352417,63.768776 
	C1109.065308,74.100426 1075.769653,84.404541 1042.477661,94.720757 
	C1009.185730,105.036980 975.886230,115.328972 942.603943,125.676216 
	C909.949829,135.828186 877.315735,146.044266 844.665161,156.207443 
	C841.430969,157.214157 838.143066,158.048233 834.880066,158.962433 
z"/>
<path fill="#FF0037" opacity="1.000000" stroke="none" 
	d="
M4.500000,1.000000 
	C15.936463,4.649001 26.824837,8.450540 37.818962,11.916645 
	C64.299904,20.265261 90.818817,28.494158 117.344315,36.700535 
	C140.478973,43.857864 163.660049,50.865265 186.790802,58.035061 
	C216.237640,67.162643 245.650879,76.398567 275.085358,85.566071 
	C298.821228,92.958710 322.555328,100.357437 346.311615,107.683990 
	C375.006805,116.533707 403.727448,125.300598 432.431549,134.121475 
	C454.184357,140.806213 475.928497,147.519333 497.705933,154.874146 
	C495.298340,155.439011 492.704468,155.865829 490.448364,155.180573 
	C466.790405,147.994766 443.182373,140.644272 419.568604,133.313309 
	C385.176422,122.636147 350.794495,111.925926 316.401459,101.251556 
	C283.119019,90.921875 249.828018,80.619713 216.540787,70.305450 
	C183.253555,59.991180 149.957520,49.705177 116.681595,39.354568 
	C84.192719,29.248770 51.735279,19.041763 19.235569,8.971080 
	C14.196941,7.409761 9.006073,6.339752 3.885607,5.042540 
	C3.122718,4.400058 2.359828,3.757575 1.298470,3.057546 
	C0.488351,0.065859 2.693802,1.207369 4.500000,1.000000 
z"/>
<path fill="#FF0037" opacity="1.000000" stroke="none" 
	d="
M4.020091,5.354595 
	C9.006073,6.339752 14.196941,7.409761 19.235569,8.971080 
	C51.735279,19.041763 84.192719,29.248770 116.681595,39.354568 
	C149.957520,49.705177 183.253555,59.991180 216.540787,70.305450 
	C249.828018,80.619713 283.119019,90.921875 316.401459,101.251556 
	C350.794495,111.925926 385.176422,122.636147 419.568604,133.313309 
	C443.182373,140.644272 466.790405,147.994766 490.448364,155.180573 
	C492.704468,155.865829 495.298340,155.439011 497.892365,155.210861 
	C500.648743,158.039398 503.206482,161.221085 505.854950,164.325363 
	C515.757446,175.932022 525.788391,187.430588 535.586182,199.124680 
	C548.406128,214.425720 560.980042,229.932877 573.793579,245.239365 
	C583.479980,256.810303 593.458801,268.136230 603.157043,279.697449 
	C614.302429,292.983887 625.199951,306.478394 636.357544,319.754364 
	C646.596497,331.937225 657.038330,343.949585 667.933472,356.670715 
	C671.618591,352.598389 675.216248,348.865143 678.539490,344.901825 
	C686.422180,335.500793 694.161499,325.979736 701.983459,316.527588 
	C710.122803,306.691895 718.229309,296.828003 726.464355,287.072815 
	C734.508728,277.543427 742.776550,268.202362 750.801941,258.657227 
	C760.383179,247.261703 769.767578,235.700806 779.318848,224.279785 
	C786.892883,215.223083 794.633118,206.305435 802.220825,197.260056 
	C810.318970,187.606140 818.303772,177.857239 826.383240,168.187485 
	C828.927307,165.142609 831.616821,162.219193 834.559937,159.101303 
	C838.143066,158.048233 841.430969,157.214157 844.665161,156.207443 
	C877.315735,146.044266 909.949829,135.828186 942.603943,125.676216 
	C975.886230,115.328972 1009.185730,105.036980 1042.477661,94.720757 
	C1075.769653,84.404541 1109.065308,74.100426 1142.352417,63.768776 
	C1176.750366,53.092384 1211.133179,42.367020 1245.535400,31.704937 
	C1272.483765,23.353014 1299.450317,15.059306 1326.416992,6.766747 
	C1327.666626,6.382451 1328.997437,6.262712 1330.702393,6.031136 
	C1326.556519,11.712492 1322.089233,17.458546 1317.413940,23.029991 
	C1313.162231,28.096565 1308.586304,32.890987 1304.334961,37.957802 
	C1300.387573,42.662418 1296.693604,47.579170 1292.861206,52.381012 
	C1291.004150,54.707737 1289.160034,57.051994 1287.179199,59.271530 
	C1282.460815,64.558830 1277.506226,69.643700 1272.947144,75.062706 
	C1268.976807,79.781837 1265.547363,84.952835 1261.641113,89.729591 
	C1257.451416,94.852707 1252.908325,99.685242 1248.659668,104.761925 
	C1244.616821,109.592659 1240.766968,114.584465 1236.808105,119.486099 
	C1234.937256,121.802597 1233.072632,124.129234 1231.095947,126.354286 
	C1226.721558,131.278427 1222.119995,136.009659 1217.908569,141.067261 
	C1213.959717,145.809525 1210.529297,150.981369 1206.622559,155.761292 
	C1202.434814,160.885132 1197.885254,165.711777 1193.626099,170.779388 
	C1189.254150,175.981094 1185.059570,181.331467 1180.752808,186.588455 
	C1178.654663,189.149521 1176.454590,191.626938 1174.340820,194.175522 
	C1167.998047,201.822525 1161.739502,209.540375 1155.322021,217.123917 
	C1151.053833,222.167862 1146.456299,226.934235 1142.215088,231.999847 
	C1138.268555,236.713669 1134.620117,241.675980 1130.798096,246.495438 
	C1128.948120,248.828217 1127.063599,251.139465 1125.085938,253.363800 
	C1120.710205,258.285553 1116.110718,263.016724 1111.892212,268.067596 
	C1107.618286,273.184906 1103.817261,278.695618 1099.580322,283.845825 
	C1095.376587,288.955658 1090.812256,293.767273 1086.546021,298.827637 
	C1082.587646,303.522858 1078.694580,308.283813 1075.000488,313.187378 
	C1072.446655,316.577393 1069.459106,319.072662 1065.232910,319.912170 
	C1034.251343,326.066742 1003.717163,333.930054 974.128784,345.042999 
	C958.554504,350.892487 943.184326,357.341675 927.968262,364.076324 
	C898.515564,377.112152 870.781982,393.294281 844.571960,411.954620 
	C829.983398,422.340973 815.626770,433.159821 802.005371,444.769043 
	C787.173523,457.409851 772.894348,470.775909 759.177612,484.621582 
	C749.989441,493.896057 742.224854,504.577362 733.779175,514.591980 
	C726.059204,523.746094 718.245728,532.821411 710.536255,541.984314 
	C702.208740,551.881897 694.002380,561.881531 685.650818,571.758606 
	C679.938049,578.514954 674.067139,585.137695 667.932800,592.205017 
	C658.605103,581.009521 649.263184,569.737976 639.853027,558.523865 
	C633.839966,551.358093 627.683655,544.312622 621.666504,537.150269 
	C611.660767,525.240356 602.115845,512.914246 591.641113,501.434814 
	C579.069763,487.657623 565.944824,474.362732 552.639526,461.286377 
	C544.318665,453.108643 535.682617,445.108917 526.378479,438.104553 
	C507.818237,424.132019 489.209717,410.104095 469.661865,397.598511 
	C452.083099,386.352631 433.535614,376.483673 414.850220,367.137329 
	C387.337830,353.375793 358.548584,342.548309 328.955902,334.158539 
	C309.054535,328.516357 288.790802,324.161285 268.784729,318.869232 
	C265.907471,318.108185 263.060669,315.746796 261.060699,313.394135 
	C247.592087,297.550507 234.369141,281.498260 221.040634,265.535278 
	C207.393097,249.190201 193.701736,232.881668 180.055359,216.535629 
	C165.048843,198.560364 150.085022,180.549484 135.078110,162.574554 
	C119.752129,144.217453 104.374413,125.903511 89.060020,107.536743 
	C74.276917,89.807152 59.547787,72.032570 44.791061,54.280979 
	C33.278389,40.431824 21.765455,26.582876 10.238303,12.745777 
	C8.247069,10.355515 6.184300,8.024846 4.020091,5.354595 
M796.424805,346.474030 
	C798.068848,346.191406 799.982849,346.355377 801.312073,345.551880 
	C808.587280,341.154083 815.774475,336.603668 822.889954,331.949799 
	C847.012817,316.172028 872.635620,303.207550 898.733521,291.086945 
	C934.984192,274.251190 972.584412,261.338409 1011.353638,251.733383 
	C1016.517517,250.454010 1021.633179,248.979767 1027.177979,247.486206 
	C1026.021362,246.137299 1025.487061,245.514130 1025.222290,244.257477 
	C1028.467651,240.839432 1031.886108,237.567291 1034.918091,233.969406 
	C1039.559082,228.462311 1043.817749,222.633255 1048.456055,217.123840 
	C1052.459229,212.368759 1056.948975,208.019730 1060.894653,203.220581 
	C1066.722046,196.132462 1072.161377,188.726273 1077.946045,181.601761 
	C1083.188110,175.145523 1088.671387,168.885025 1094.656372,161.820389 
	C1092.737183,161.622665 1091.826172,161.277298 1091.078735,161.494568 
	C1087.533203,162.525238 1084.044312,163.749390 1080.513184,164.831970 
	C1065.725952,169.365417 1050.913330,173.816925 1036.143433,178.405655 
	C1021.848450,182.846817 1007.583557,187.385376 993.326599,191.947311 
	C985.191040,194.550522 977.141418,197.428223 968.975220,199.928253 
	C956.964111,203.605438 944.880432,207.044968 932.833618,210.605972 
	C924.497742,213.070023 915.874573,214.864426 907.916443,218.227905 
	C897.775818,222.513870 885.159546,221.964401 878.533142,233.680893 
	C875.442078,239.146378 870.349365,243.466995 866.247498,248.376328 
	C858.278992,257.913269 850.411072,267.534393 842.423401,277.055084 
	C834.732666,286.221802 826.899475,295.269012 819.208252,304.435303 
	C809.430481,316.088257 799.738342,327.812927 789.998413,339.497589 
	C784.424194,346.184814 778.828308,352.853943 773.242188,359.531219 
	C773.567017,359.944153 773.891907,360.357117 774.216736,360.770050 
	C781.462708,355.809692 788.708618,350.849304 796.424805,346.474030 
M250.409012,173.909378 
	C252.256577,175.503845 254.355728,176.886200 255.909103,178.728699 
	C263.499664,187.731949 270.948792,196.854538 278.439941,205.941498 
	C286.034088,215.153397 293.348206,224.616180 301.319214,233.489120 
	C305.454376,238.092178 308.292694,244.128296 315.239777,246.058624 
	C338.735596,252.587158 362.409424,258.652527 385.485535,266.460449 
	C405.497467,273.231567 425.138428,281.380676 444.300476,290.301575 
	C462.814301,298.920715 480.811768,308.780640 498.468353,319.069733 
	C513.992554,328.116150 528.758545,338.468903 543.801758,348.332642 
	C548.911926,351.683319 553.846130,355.302185 558.860779,358.798462 
	C559.229980,356.681000 559.128357,354.927277 558.224548,353.840851 
	C549.103943,342.877350 539.862305,332.014282 530.633606,321.140869 
	C522.885376,312.011719 515.054565,302.952118 507.358978,293.778870 
	C497.575806,282.117188 487.883606,270.379089 478.168793,258.660126 
	C472.010010,251.230835 466.200287,243.478729 459.626251,236.438980 
	C455.310303,231.817291 452.415283,225.911026 445.193695,223.794342 
	C417.144684,215.573029 389.300873,206.651505 361.380707,197.990662 
	C326.977173,187.318695 292.573914,176.645859 258.169769,165.975861 
	C252.661011,164.267395 247.148270,162.571823 241.203751,160.736420 
	C244.470078,165.360718 247.260681,169.311539 250.409012,173.909378 
z"/>
<path fill="#000000" opacity="1.000000" stroke="none" 
	d="
M1444.000000,460.941895 
	C1442.670044,445.464539 1441.273682,430.464172 1440.034180,415.450836 
	C1439.236816,405.792114 1438.782837,396.104919 1437.973755,386.447296 
	C1436.744019,371.766296 1435.325195,357.101257 1434.018066,342.426636 
	C1433.625000,338.013702 1433.323608,333.592407 1433.002686,329.173340 
	C1432.355103,320.252472 1431.723022,311.330505 1430.987671,301.056427 
	C1426.032837,309.121155 1421.733887,316.009888 1417.541138,322.962494 
	C1403.922241,345.545654 1390.345215,368.154053 1376.746582,390.749329 
	C1365.634521,409.212494 1354.527954,427.679047 1343.394165,446.129028 
	C1330.184326,468.019104 1316.918091,489.875275 1303.732910,511.780121 
	C1294.279785,527.484680 1284.944824,543.260315 1275.510986,558.976501 
	C1262.435181,580.760193 1249.333984,602.528809 1236.210083,624.283569 
	C1224.996216,642.872559 1213.714966,661.420654 1202.500732,680.009399 
	C1189.376465,701.763855 1176.293945,723.543396 1163.190796,745.310547 
	C1152.574585,762.946411 1141.799316,780.489685 1131.452271,798.282104 
	C1129.036011,802.437012 1126.643555,804.165344 1121.635620,804.137207 
	C1078.973267,803.897644 1036.308960,804.000000 993.645264,804.000000 
	C991.852600,804.000000 990.059875,804.000000 987.367798,804.000000 
	C990.513245,798.729248 993.234314,794.067932 996.052063,789.465881 
	C1007.137939,771.360291 1018.252502,753.272278 1029.359863,735.179871 
	C1039.459229,718.729431 1049.561768,702.280823 1059.665527,685.833069 
	C1071.785889,666.102844 1083.903198,646.370667 1096.032715,626.645996 
	C1107.325806,608.281372 1118.648560,589.934998 1129.929565,571.563049 
	C1142.301025,551.415039 1154.629517,531.240662 1166.996094,511.089600 
	C1177.933228,493.267944 1188.899292,475.464203 1199.847778,457.649506 
	C1212.228760,437.503632 1224.611328,417.358704 1236.980469,397.205505 
	C1247.916748,379.386871 1258.844116,361.562531 1269.760376,343.731567 
	C1287.546875,314.678528 1305.240601,285.568390 1323.123535,256.574860 
	C1341.200317,227.266800 1359.475098,198.080750 1377.624756,168.817474 
	C1380.845215,163.624863 1383.677979,158.179337 1387.117188,153.142319 
	C1388.173096,151.595810 1390.648071,150.134796 1392.478027,150.129028 
	C1443.473999,149.968246 1494.470459,150.028152 1545.466797,149.938263 
	C1548.956665,149.932114 1549.863037,151.054565 1550.106812,154.509995 
	C1551.190186,169.866196 1552.718872,185.190323 1553.967651,200.535706 
	C1554.753784,210.195511 1555.205444,219.883026 1556.029297,229.539154 
	C1557.239502,243.721283 1558.672363,257.884277 1559.958008,272.060181 
	C1560.388062,276.803589 1560.669678,281.560669 1560.997803,286.312988 
	C1562.004639,300.899963 1562.927979,315.493164 1564.025269,330.073303 
	C1564.910400,341.835999 1566.015869,353.582031 1566.996338,365.337677 
	C1568.344849,381.508575 1569.671509,397.681305 1571.000000,413.853882 
	C1572.006592,426.107544 1572.990723,438.363068 1574.003540,450.616211 
	C1575.326416,466.622681 1576.667480,482.627655 1578.000854,498.633270 
	C1579.334229,514.638733 1580.667358,530.644226 1582.000854,546.649658 
	C1583.334229,562.655151 1584.680786,578.659546 1585.996826,594.666504 
	C1587.017944,607.085754 1587.980957,619.509949 1589.007690,631.928772 
	C1589.979614,643.685181 1591.016724,655.436157 1591.995728,667.192017 
	C1593.015991,679.444458 1593.985718,691.701172 1595.006226,703.953613 
	C1595.985107,715.709473 1597.031250,727.459717 1597.992676,739.216980 
	C1599.355957,755.886963 1600.648193,772.562805 1602.015259,789.232483 
	C1602.402344,793.951721 1602.943726,798.658325 1603.448486,803.712280 
	C1559.386963,803.712280 1515.981812,803.712280 1472.337158,803.712280 
	C1471.563354,795.198914 1470.765015,786.600891 1470.003784,777.999634 
	C1468.660889,762.828552 1467.326294,747.656677 1466.020142,732.482422 
	C1465.625977,727.902527 1465.320557,723.314819 1465.003174,718.728699 
	C1463.994141,704.141846 1463.068115,689.548828 1461.976562,674.968201 
	C1461.083374,663.039368 1459.981323,651.126221 1459.004395,639.203491 
	C1457.651978,622.699280 1456.352173,606.190857 1454.987061,589.687683 
	C1454.028320,578.096680 1452.947266,566.515625 1452.012085,554.922729 
	C1450.626953,537.754395 1449.413330,520.571838 1447.956299,503.409729 
	C1446.766846,489.399994 1445.328125,475.411377 1444.000000,460.941895 
z"/>
<path fill="#000000" opacity="1.000000" stroke="none" 
	d="
M1862.010254,590.000000 
	C1856.762085,591.329529 1850.414429,586.863831 1847.220093,592.625671 
	C1844.802368,596.986816 1844.329712,602.429504 1843.011597,607.396240 
	C1835.761597,634.713867 1828.456665,662.017090 1821.289062,689.356323 
	C1814.118530,716.705872 1807.100952,744.095459 1799.987915,771.460083 
	C1797.361328,781.564453 1794.705322,791.662231 1791.894653,801.715942 
	C1791.633545,802.649963 1790.197998,803.311401 1789.214844,803.958069 
	C1788.864990,804.188110 1788.238892,803.999695 1787.739014,803.999695 
	C1745.747192,803.999939 1703.755493,803.999939 1661.252319,803.999939 
	C1664.992554,789.591736 1668.645996,775.395203 1672.365356,761.215942 
	C1680.230103,731.232910 1688.094482,701.249817 1696.024902,671.284180 
	C1703.091553,644.581787 1710.304199,617.917969 1717.346680,591.209167 
	C1724.309204,564.803955 1731.106201,538.355103 1738.041260,511.942596 
	C1741.629883,498.275085 1745.393066,484.653412 1749.000977,470.990906 
	C1749.763306,468.103851 1751.667114,467.948730 1754.163086,467.955292 
	C1781.326172,468.026733 1808.489746,468.000000 1835.653076,468.000000 
	C1887.313477,468.000000 1938.975342,467.782745 1990.633667,468.109741 
	C2010.573486,468.235992 2029.342651,464.341797 2046.693237,454.654297 
	C2081.629883,435.147461 2105.234375,406.673798 2115.094482,367.356262 
	C2117.698730,356.972260 2119.739746,346.544647 2118.908936,335.908630 
	C2116.616699,306.562317 2100.246338,281.423920 2068.578125,274.148346 
	C2059.903564,272.155396 2050.809326,271.157806 2041.903687,271.131805 
	C1963.913696,270.903931 1885.922852,271.000000 1807.932251,271.000000 
	C1806.117676,271.000000 1804.303101,271.000000 1802.131714,271.000000 
	C1795.896729,230.776886 1789.692261,190.751511 1783.412598,150.240173 
	C1785.484741,150.139526 1786.921143,150.008820 1788.357544,150.008682 
	C1888.678711,149.999130 1989.001465,149.690201 2089.319824,150.219498 
	C2114.163330,150.350571 2138.433350,155.671799 2161.336426,166.014053 
	C2175.288086,172.313980 2187.861328,180.565109 2199.363037,190.733368 
	C2224.174805,212.667923 2240.038574,239.944153 2247.799072,271.825592 
	C2251.644287,287.620880 2253.055908,303.952881 2251.916504,320.242706 
	C2249.852295,349.752991 2242.907471,378.182251 2231.809326,405.615784 
	C2221.954102,429.976562 2208.918213,452.622284 2192.289551,472.798767 
	C2180.477783,487.130463 2167.174072,500.431885 2153.298340,512.805115 
	C2140.266602,524.425781 2125.984619,534.767395 2111.575439,544.688782 
	C2093.520508,557.120544 2073.923828,567.056091 2053.058838,573.776367 
	C2036.580444,579.083801 2019.635254,583.080444 2002.707031,586.791748 
	C1994.615723,588.565735 1986.089722,588.805420 1977.749512,588.918152 
	C1939.337769,589.437256 1900.922119,589.666626 1862.010254,590.000000 
z"/>
<path fill="#000000" opacity="1.000000" stroke="none" 
	d="
M2205.000000,804.000000 
	C2104.713379,804.000000 2004.926514,804.000000 1904.707642,804.000000 
	C1915.714722,762.382263 1926.584229,721.284729 1937.444824,680.221375 
	C2117.322754,680.221375 2297.089844,680.221375 2477.182617,680.221375 
	C2466.237793,721.605713 2455.369141,762.703003 2444.447510,804.000000 
	C2364.796631,804.000000 2285.148193,804.000000 2205.000000,804.000000 
z"/>
<path fill="#FF0037" opacity="1.000000" stroke="none" 
	d="
M584.292236,725.197754 
	C588.379211,720.455200 592.127319,715.890137 596.054810,711.484985 
	C602.639343,704.099670 609.467651,696.928711 615.953552,689.459290 
	C622.876282,681.486633 622.817505,669.982361 615.737793,664.398987 
	C606.316711,656.969055 596.502869,658.669250 588.593567,667.889954 
	C581.854797,675.746094 575.046326,683.543701 568.185974,691.294006 
	C554.878296,706.328186 541.564331,721.357544 528.151245,736.297485 
	C520.008057,745.367737 511.674377,754.266968 503.340607,763.336121 
	C496.353027,756.868164 489.616699,750.795349 483.061279,744.533203 
	C466.030701,728.264343 449.152435,711.835266 432.033691,695.660278 
	C428.719208,692.528503 428.435150,690.662048 431.951172,687.412842 
	C445.453766,674.934631 458.652283,662.128052 472.010834,649.493164 
	C482.949554,639.147095 493.961700,628.878662 504.928467,618.562195 
	C521.970276,602.530945 538.966003,586.450562 556.052551,570.467224 
	C563.863037,563.161011 571.843506,556.036682 580.002380,548.596863 
	C586.237549,555.144775 592.335876,561.397705 598.258667,567.812744 
	C603.841187,573.859253 609.148193,580.160339 614.737549,586.200317 
	C624.737366,597.006165 634.916321,607.646301 644.909485,618.458130 
	C652.505920,626.676941 659.930420,635.054626 667.964722,643.952209 
	C697.504272,611.921021 726.570312,580.403320 755.929077,548.568176 
	C759.530334,551.776001 763.022705,554.728638 766.338440,557.867981 
	C780.174622,570.968018 793.985229,584.095276 807.751648,597.268616 
	C819.558472,608.566650 831.189392,620.050415 843.090576,631.247437 
	C853.035034,640.603516 863.355530,649.559448 873.324341,658.890320 
	C880.074402,665.208496 886.415100,671.962463 893.113525,678.338013 
	C896.511047,681.571777 900.269043,684.431458 903.912292,687.401184 
	C907.423279,690.263184 906.947388,692.798035 903.816223,695.746521 
	C889.823364,708.923523 875.927795,722.204224 862.030029,735.481812 
	C852.442200,744.641663 842.907959,753.857666 832.900330,763.480835 
	C827.645935,757.845642 822.434021,752.389954 817.378418,746.793091 
	C813.088013,742.043335 809.051758,737.064270 804.773193,732.303467 
	C795.074768,721.512024 785.245911,710.837708 775.564026,700.031616 
	C765.134460,688.390930 754.944275,676.532837 744.382812,665.014221 
	C739.650024,659.852478 731.452332,658.428345 725.962158,660.996216 
	C718.432678,664.517883 714.088074,670.679138 715.199402,678.259949 
	C715.777039,682.200439 717.670227,686.477173 720.257080,689.499634 
	C729.903625,700.770691 740.163574,711.513855 750.042480,722.589722 
	C762.410339,736.455872 774.607300,750.474487 786.922485,764.387878 
	C792.929199,771.174072 798.907104,777.994934 805.165039,784.544922 
	C807.533447,787.023926 807.185303,788.466675 804.933655,790.625183 
	C793.306885,801.771057 781.749939,812.990906 770.274353,824.292297 
	C768.064331,826.468750 767.174438,826.182434 765.094666,823.812622 
	C754.868042,812.159241 744.201782,800.893250 733.877441,789.323792 
	C721.838440,775.832947 710.096802,762.076172 698.022339,748.617615 
	C691.350159,741.180603 684.752136,733.547302 677.213074,727.056641 
	C670.497498,721.274780 661.273865,723.359131 655.240906,730.174194 
	C647.911438,738.453796 640.230408,746.421631 632.868042,754.672913 
	C620.276062,768.785278 607.942993,783.130310 595.249817,797.150024 
	C587.200562,806.040527 578.496887,814.340881 570.508240,823.282593 
	C567.858215,826.248840 566.529846,824.961487 564.674561,823.131409 
	C560.641968,819.153748 556.699463,815.083557 552.625610,811.149109 
	C545.473755,804.241821 538.257935,797.400574 531.052246,790.549194 
	C529.394226,788.972778 527.952026,787.652222 530.196899,785.228210 
	C535.372192,779.640076 540.208923,773.738220 545.389038,768.154724 
	C552.674438,760.301941 560.284058,752.747498 567.495300,744.828918 
	C573.210754,738.552795 578.535645,731.921021 584.292236,725.197754 
z"/>
<path fill="#000000" opacity="1.000000" stroke="none" 
	d="
M2312.000000,150.000000 
	C2413.951172,150.000000 2515.402588,150.000000 2617.308838,150.000000 
	C2606.319580,191.587646 2595.458740,232.687790 2584.573486,273.880981 
	C2500.878662,273.880981 2417.258057,273.880981 2333.397461,273.880981 
	C2330.467773,227.954224 2314.803467,186.911835 2285.092529,150.000000 
	C2294.506348,150.000000 2303.003174,150.000000 2312.000000,150.000000 
z"/>
<path fill="#000000" opacity="1.000000" stroke="none" 
	d="
M2535.753906,459.603638 
	C2528.541016,486.172119 2521.540039,512.373962 2514.475342,538.815796 
	C2419.023682,538.815796 2323.297119,538.815796 2226.918457,538.815796 
	C2244.083740,520.065186 2259.953125,500.846741 2273.655518,479.899231 
	C2287.049316,459.423950 2298.331055,437.879547 2307.510498,415.175598 
	C2387.259033,415.175598 2467.021484,415.175598 2547.012451,415.175598 
	C2543.293945,430.008087 2539.630127,444.622559 2535.753906,459.603638 
z"/>
<path fill="#FF0037" opacity="1.000000" stroke="none" 
	d="
M2850.885254,675.041870 
	C2850.970215,673.483643 2850.431885,671.396606 2851.236328,670.448425 
	C2860.268555,659.800659 2869.584473,649.394104 2878.670654,638.791321 
	C2889.652832,625.976440 2900.452148,613.005005 2911.398438,600.159302 
	C2918.002441,592.409302 2924.733398,584.767395 2931.412842,577.081726 
	C2939.471680,567.808655 2947.536865,558.540955 2956.069824,548.730286 
	C2984.454834,633.876648 3012.727783,718.687378 3041.161621,803.980469 
	C2992.799072,803.980469 2944.863037,803.980469 2896.413818,803.542847 
	C2894.585693,799.179077 2893.257324,795.257446 2891.957764,791.326416 
	C2879.636230,754.055969 2867.331299,716.780151 2854.971924,679.522339 
	C2854.307617,677.520142 2854.418701,674.541504 2850.885254,675.041870 
z"/>
<path fill="#FF0037" opacity="1.000000" stroke="none" 
	d="
M2850.936523,675.436890 
	C2854.418701,674.541504 2854.307617,677.520142 2854.971924,679.522339 
	C2867.331299,716.780151 2879.636230,754.055969 2891.957764,791.326416 
	C2893.257324,795.257446 2894.585693,799.179077 2895.950195,803.469238 
	C2892.931885,804.649109 2892.645752,802.387085 2891.968994,800.338379 
	C2878.666260,760.069580 2865.328613,719.812256 2852.009521,679.548828 
	C2851.606689,678.330505 2851.325684,677.071777 2850.936523,675.436890 
z"/>
<path fill="#FF0037" opacity="1.000000" stroke="none" 
	d="
M578.885071,115.042030 
	C578.596863,114.255714 578.308716,113.469414 578.450256,112.389389 
	C580.752808,111.985138 582.820129,112.346352 584.459595,111.670174 
	C588.399902,110.045052 592.144470,107.943108 595.959412,106.016556 
	C621.220642,93.259674 647.396484,82.929337 674.918884,76.139450 
	C676.563965,75.733597 678.481079,73.863518 679.592834,74.321686 
	C683.660522,75.998039 682.807678,73.189507 683.000366,71.166656 
	C692.663574,70.444443 702.352966,68.906075 711.983093,69.215340 
	C722.976135,69.568359 733.539673,72.500725 741.542664,81.039764 
	C748.307861,88.258202 751.255310,97.219650 751.835876,106.724518 
	C752.306396,114.428757 751.479431,122.232704 750.889404,129.966583 
	C750.745239,131.855515 749.274353,133.643219 748.415039,135.474152 
	C745.192810,132.395599 741.981384,129.217758 738.653198,126.167259 
	C726.839417,115.339211 715.907532,119.664070 707.543640,130.077286 
	C699.591675,139.977707 695.243164,151.808044 695.309937,164.273270 
	C695.384277,178.151779 699.255798,191.658493 707.065674,203.353897 
	C713.572937,213.098755 721.165771,222.118759 728.441528,231.674942 
	C708.784790,255.056976 688.578552,279.092712 668.135193,303.410400 
	C662.041809,296.347443 656.122192,289.625580 650.361328,282.770203 
	C644.261292,275.511200 638.338989,268.103180 632.290955,260.800079 
	C624.043335,250.840912 615.769531,240.903183 607.469604,230.987534 
	C601.999695,224.452774 597.038086,217.344070 590.794800,211.647476 
	C584.676208,206.064575 584.823792,199.446152 585.078064,192.572144 
	C585.485413,181.558884 586.522400,170.568680 586.915283,159.555237 
	C587.090332,154.645859 586.346802,149.703690 586.443420,144.379364 
	C587.395020,143.138245 588.520935,142.132629 588.344238,141.479187 
	C587.711975,139.140656 585.433838,136.587326 585.952393,134.718430 
	C587.656921,128.574493 583.664978,123.826118 582.792908,118.378235 
	C582.586853,117.090645 580.244629,116.144989 578.885071,115.042030 
z"/>
<path fill="#FF0037" opacity="1.000000" stroke="none" 
	d="
M682.598999,71.101395 
	C682.807678,73.189507 683.660522,75.998039 679.592834,74.321686 
	C678.481079,73.863518 676.563965,75.733597 674.918884,76.139450 
	C647.396484,82.929337 621.220642,93.259674 595.959412,106.016556 
	C592.144470,107.943108 588.399902,110.045052 584.459595,111.670174 
	C582.820129,112.346352 580.752808,111.985138 578.523315,112.048615 
	C582.169373,109.456039 585.921509,106.334892 590.218201,104.464325 
	C609.126221,96.232574 628.010986,87.888062 647.272949,80.552757 
	C657.452454,76.676231 668.388794,74.788071 678.980957,71.992722 
	C680.061951,71.707420 681.125793,71.356575 682.598999,71.101395 
z"/>
<path fill="#FF0037" opacity="1.000000" stroke="none" 
	d="
M578.943359,115.429749 
	C580.244629,116.144989 582.586853,117.090645 582.792908,118.378235 
	C583.664978,123.826118 587.656921,128.574493 585.952393,134.718430 
	C585.433838,136.587326 587.711975,139.140656 588.344238,141.479187 
	C588.520935,142.132629 587.395020,143.138245 586.516602,143.991425 
	C583.778259,134.606186 581.389893,125.211823 578.943359,115.429749 
z"/>
<path fill="#FFFFFF" opacity="1.000000" stroke="none" 
	d="
M795.954590,345.888916 
	C788.708618,350.849304 781.462708,355.809692 774.216736,360.770050 
	C773.891907,360.357117 773.567017,359.944153 773.242188,359.531219 
	C778.828308,352.853943 784.424194,346.184814 789.998413,339.497589 
	C799.738342,327.812927 809.430481,316.088257 819.208252,304.435303 
	C826.899475,295.269012 834.732666,286.221802 842.423401,277.055084 
	C850.411072,267.534393 858.278992,257.913269 866.247498,248.376328 
	C870.349365,243.466995 875.442078,239.146378 878.533142,233.680893 
	C885.159546,221.964401 897.775818,222.513870 907.916443,218.227905 
	C915.874573,214.864426 924.497742,213.070023 932.833618,210.605972 
	C944.880432,207.044968 956.964111,203.605438 968.975220,199.928253 
	C977.141418,197.428223 985.191040,194.550522 993.326599,191.947311 
	C1007.583557,187.385376 1021.848450,182.846817 1036.143433,178.405655 
	C1050.913330,173.816925 1065.725952,169.365417 1080.513184,164.831970 
	C1084.044312,163.749390 1087.533203,162.525238 1091.078735,161.494568 
	C1091.826172,161.277298 1092.737183,161.622665 1094.656372,161.820389 
	C1088.671387,168.885025 1083.188110,175.145523 1077.946045,181.601761 
	C1072.161377,188.726273 1066.722046,196.132462 1060.894653,203.220581 
	C1056.948975,208.019730 1052.459229,212.368759 1048.456055,217.123840 
	C1043.817749,222.633255 1039.559082,228.462311 1034.918091,233.969406 
	C1031.886108,237.567291 1028.467651,240.839432 1024.683350,244.622864 
	C1000.727173,251.674271 976.994080,257.436890 953.984009,265.312256 
	C932.032288,272.825409 910.402405,281.626953 889.424927,291.541840 
	C868.073364,301.633575 847.492126,313.427917 826.964172,325.160004 
	C816.195923,331.314240 806.264099,338.932068 795.954590,345.888916 
z"/>
<path fill="#FFFFFF" opacity="1.000000" stroke="none" 
	d="
M250.230164,173.585876 
	C247.260681,169.311539 244.470078,165.360718 241.203751,160.736420 
	C247.148270,162.571823 252.661011,164.267395 258.169769,165.975861 
	C292.573914,176.645859 326.977173,187.318695 361.380707,197.990662 
	C389.300873,206.651505 417.144684,215.573029 445.193695,223.794342 
	C452.415283,225.911026 455.310303,231.817291 459.626251,236.438980 
	C466.200287,243.478729 472.010010,251.230835 478.168793,258.660126 
	C487.883606,270.379089 497.575806,282.117188 507.358978,293.778870 
	C515.054565,302.952118 522.885376,312.011719 530.633606,321.140869 
	C539.862305,332.014282 549.103943,342.877350 558.224548,353.840851 
	C559.128357,354.927277 559.229980,356.681000 558.860779,358.798462 
	C553.846130,355.302185 548.911926,351.683319 543.801758,348.332642 
	C528.758545,338.468903 513.992554,328.116150 498.468353,319.069733 
	C480.811768,308.780640 462.814301,298.920715 444.300476,290.301575 
	C425.138428,281.380676 405.497467,273.231567 385.485535,266.460449 
	C362.409424,258.652527 338.735596,252.587158 315.239777,246.058624 
	C308.292694,244.128296 305.454376,238.092178 301.319214,233.489120 
	C293.348206,224.616180 286.034088,215.153397 278.439941,205.941498 
	C270.948792,196.854538 263.499664,187.731949 255.909103,178.728699 
	C254.355728,176.886200 252.256577,175.503845 250.230164,173.585876 
z"/>
<path fill="#FF0037" opacity="1.000000" stroke="none" 
	d="
M796.189697,346.181458 
	C806.264099,338.932068 816.195923,331.314240 826.964172,325.160004 
	C847.492126,313.427917 868.073364,301.633575 889.424927,291.541840 
	C910.402405,281.626953 932.032288,272.825409 953.984009,265.312256 
	C976.994080,257.436890 1000.727173,251.674271 1024.548584,244.939606 
	C1025.487061,245.514130 1026.021362,246.137299 1027.177979,247.486206 
	C1021.633179,248.979767 1016.517517,250.454010 1011.353638,251.733383 
	C972.584412,261.338409 934.984192,274.251190 898.733521,291.086945 
	C872.635620,303.207550 847.012817,316.172028 822.889954,331.949799 
	C815.774475,336.603668 808.587280,341.154083 801.312073,345.551880 
	C799.982849,346.355377 798.068848,346.191406 796.189697,346.181458 
z"/>
</svg>