<svg version="1.1" id="Layer_1" xmlns="http://www.w3.org/2000/svg" xmlns:xlink="http://www.w3.org/1999/xlink" x="0px" y="0px"
	 width="100%" viewBox="0 0 960 1050" enable-background="new 0 0 960 1050" xml:space="preserve">
<path fill="#02395F" opacity="1.000000" stroke="none" 
	d="
M592.000000,1051.000000 
	C394.666656,1051.000000 197.833328,1051.000000 1.000000,1051.000000 
	C1.000000,701.000000 1.000000,351.000000 1.000000,1.000000 
	C321.000000,1.000000 641.000000,1.000000 961.000000,1.000000 
	C961.000000,351.000000 961.000000,701.000000 961.000000,1051.000000 
	C838.166687,1051.000000 715.333313,1051.000000 592.000000,1051.000000 
M504.136749,811.199219 
	C504.429901,811.451904 504.723053,811.704529 505.466888,812.273865 
	C505.680145,812.768372 505.893372,813.262878 506.052032,814.457092 
	C506.644226,815.311157 507.236450,816.165161 508.125793,817.467346 
	C508.139923,817.645996 508.154022,817.824707 507.906586,818.248474 
	C508.136658,818.408264 508.366699,818.568054 508.967712,819.365723 
	C509.553741,821.540100 510.139801,823.714417 510.763916,826.030090 
	C517.804016,826.030090 524.905579,826.103699 532.003906,825.983032 
	C534.005493,825.949036 535.997314,825.346130 538.421021,824.567566 
	C537.985779,823.378113 537.550537,822.188721 536.894653,820.532532 
	C536.911865,820.361267 536.929016,820.190002 537.326721,819.685608 
	C536.976135,819.115234 536.625610,818.544861 536.001282,817.366272 
	C535.955872,816.926086 535.910400,816.485840 536.271240,815.710754 
	C535.892944,815.135315 535.514587,814.559814 534.886230,813.544617 
	C534.884949,813.376038 534.883606,813.207397 535.231262,812.611389 
	C534.556580,811.401001 533.881958,810.190613 532.831177,808.352905 
	C529.420776,799.571838 524.175110,792.046265 516.870911,786.124084 
	C509.007812,779.748718 499.933411,775.786438 489.857697,773.161926 
	C488.896820,773.135498 487.935913,773.109070 486.146545,773.152344 
	C484.773743,772.993347 483.400970,772.834351 481.710236,771.993408 
	C477.797607,772.226868 473.884979,772.460327 469.198944,772.902405 
	C468.134857,772.941040 467.070770,772.979736 465.601624,772.597717 
	C464.723938,772.949707 463.846252,773.301636 462.212219,773.926514 
	C454.718567,775.700134 447.195557,777.377991 440.803070,782.068237 
	C433.217438,787.634033 426.165802,793.468018 421.643585,802.194275 
	C416.105438,812.881042 414.666626,824.276917 412.947235,836.392761 
	C412.647675,837.137024 412.090057,837.880188 412.086823,838.625793 
	C412.024658,852.998474 411.991150,867.371643 412.087646,881.743835 
	C412.095154,882.860718 413.108002,883.970825 413.877838,885.848511 
	C414.283600,898.610474 416.060059,911.204224 423.000885,922.131226 
	C431.508179,935.524353 443.915741,943.831360 459.566956,947.189941 
	C473.368286,950.151428 486.939514,950.063416 500.282593,944.945801 
	C509.722565,941.325134 517.563232,935.904053 524.112061,927.881592 
	C531.832581,918.424011 535.576904,907.667175 537.728821,895.339783 
	C537.394470,894.989441 537.063660,894.337036 536.725342,894.333130 
	C528.941711,894.243469 521.157166,894.201477 513.373413,894.249878 
	C512.915710,894.252747 512.463318,895.089172 511.433838,896.033264 
	C510.554993,898.349121 509.676147,900.664978 508.151428,903.168335 
	C507.107513,905.462341 506.063599,907.756409 504.905670,910.631531 
	C504.522919,911.078979 504.140198,911.526367 503.176697,912.115173 
	C502.789581,912.757019 502.402466,913.398804 501.784729,914.642212 
	C500.492523,915.749817 499.200287,916.857422 497.328217,918.049316 
	C496.941315,918.452026 496.554443,918.854736 496.119507,919.141296 
	C496.119507,919.141296 496.223816,919.211365 495.607849,919.185364 
	C495.063446,919.704041 494.519043,920.222717 493.399780,921.174316 
	C490.932526,922.090393 488.465271,923.006531 485.571686,923.527893 
	C484.707245,923.909363 483.842804,924.290833 482.214996,924.932861 
	C481.145569,924.959839 480.076111,924.986816 478.435699,924.531921 
	C476.290985,924.671021 474.146271,924.810120 471.489777,925.049561 
	C471.325684,924.992188 471.161560,924.934814 470.591797,924.298279 
	C467.389343,923.548889 464.186890,922.799500 460.261719,921.979370 
	C446.171051,914.553223 441.068481,902.163513 441.463806,886.400574 
	C441.082947,883.259888 440.702087,880.119202 440.124390,876.062317 
	C440.184174,865.714722 440.243988,855.367065 440.984558,844.716919 
	C440.970490,841.471069 440.956451,838.225220 440.819763,834.111816 
	C441.947601,828.412537 443.075470,822.713257 444.864563,816.813416 
	C445.544922,815.134766 446.225281,813.456055 447.055023,811.125977 
	C450.915497,807.701538 454.775970,804.277039 459.354858,800.915161 
	C460.240967,800.333496 461.127075,799.751770 462.465881,798.892395 
	C462.642914,798.890137 462.819916,798.887939 463.270111,799.148254 
	C463.466919,798.911804 463.663727,798.675293 464.326508,798.127625 
	C464.877441,798.064880 465.428345,798.002136 466.305908,798.327271 
	C466.877563,797.983948 467.449249,797.640686 468.750763,797.048279 
	C469.991852,797.047729 471.247223,797.169678 472.471741,797.026978 
	C481.038574,796.028503 489.101959,797.147644 496.401489,803.097229 
	C496.952148,803.390991 497.502777,803.684814 498.668762,804.199646 
	C500.105255,805.817017 501.541748,807.434326 503.057404,809.640381 
	C503.462494,810.033997 503.867584,810.427612 504.147034,810.874817 
	C504.147034,810.874817 504.229248,810.765747 504.136749,811.199219 
M303.608368,709.551147 
	C303.608368,709.551147 303.677643,709.527588 304.344086,709.747192 
	C305.241699,709.264526 306.139343,708.781921 307.744202,707.963013 
	C317.911957,703.804321 328.293121,700.093384 338.194092,695.374817 
	C350.888611,689.325012 363.388153,682.802734 375.627594,675.875916 
	C394.952881,664.938965 412.905975,652.024780 428.938599,636.568970 
	C437.953339,627.878540 446.965393,619.184814 455.898041,610.410522 
	C457.025482,609.303040 457.661377,607.695068 458.951324,605.639587 
	C402.437012,612.472595 349.526764,603.775635 298.812592,579.728577 
	C359.854645,478.498474 420.631531,377.708099 481.543427,276.693817 
	C525.090698,349.207092 568.353882,421.247437 611.699524,493.425049 
	C550.969543,517.349121 504.139069,559.390320 459.074371,605.710815 
	C467.208344,605.102661 474.109436,604.586670 481.663239,604.561035 
	C485.468750,604.151123 489.274292,603.741211 493.871704,603.117798 
	C502.878876,603.199402 511.886017,603.280945 521.381836,604.075989 
	C524.917603,604.075378 528.453430,604.074768 532.868469,603.921021 
	C537.240295,604.364075 541.612122,604.807129 546.209656,605.882751 
	C547.808716,605.916260 549.407837,605.949707 551.756470,605.876160 
	C552.498840,606.002686 553.241150,606.129150 554.184509,606.863770 
	C555.459900,606.898743 556.735291,606.933777 558.761536,606.877197 
	C559.501282,607.016846 560.241028,607.156555 561.150085,607.866394 
	C562.105896,607.892822 563.061707,607.919250 564.768799,607.866516 
	C565.505798,608.014954 566.242798,608.163330 567.146240,608.876221 
	C568.098572,608.916565 569.050842,608.956909 570.820496,608.950195 
	C580.540466,611.370667 590.260498,613.791138 600.088684,616.723694 
	C600.731262,616.797668 601.373840,616.871643 602.597168,616.912415 
	C603.134094,617.111023 603.671021,617.309570 604.205566,617.870178 
	C604.470032,617.876221 604.734497,617.882324 605.575928,617.872375 
	C606.112549,618.061890 606.649170,618.251404 607.178711,618.821838 
	C607.451233,618.830627 607.723816,618.839355 608.576843,618.843079 
	C609.115051,619.041321 609.653259,619.239502 610.181274,619.817810 
	C610.453186,619.830627 610.725098,619.843445 611.569336,619.859802 
	C612.095825,620.064880 612.622375,620.269958 613.155212,620.855408 
	C613.436279,620.873657 613.717285,620.891968 614.523682,620.915588 
	C614.677185,621.000000 614.830627,621.084351 615.089111,621.683289 
	C615.728210,621.781067 616.367371,621.878845 617.756958,622.009521 
	C619.760437,622.891052 621.739868,623.833069 623.773010,624.639832 
	C626.721924,625.809998 629.839111,626.625671 632.656006,628.045654 
	C640.457703,631.978577 648.244080,635.964294 655.843811,640.269348 
	C664.316040,645.068848 672.896729,649.786804 680.843689,655.374329 
	C689.899902,661.742004 698.308472,669.030701 707.334045,676.379089 
	C707.840942,676.603821 708.347839,676.828491 709.465820,677.342468 
	C716.295044,684.270935 723.124268,691.199463 730.041931,698.710388 
	C730.418884,699.139893 730.795898,699.569458 731.533142,700.546387 
	C738.404602,709.567688 745.238953,718.617676 752.192078,727.575623 
	C753.112122,728.761047 754.636719,729.477295 756.407776,731.123291 
	C757.834595,731.415039 759.260925,731.959167 760.688232,731.961426 
	C791.147949,732.010437 821.607788,732.024109 852.067261,731.926819 
	C853.661499,731.921692 855.252502,730.872742 857.000122,729.642090 
	C848.217285,714.527954 839.542664,699.349609 830.622131,684.317200 
	C821.032288,668.156860 811.180542,652.152222 801.500977,636.044861 
	C793.143372,622.137329 784.935059,608.139832 776.538147,594.256165 
	C765.070862,575.295654 753.396179,556.460327 741.979553,537.469604 
	C730.785278,518.848572 719.904968,500.038635 708.700867,481.423584 
	C695.250244,459.075897 681.505188,436.905365 668.068176,414.549622 
	C654.547424,392.054626 641.351562,369.364258 627.823669,346.873535 
	C613.552917,323.147827 598.948364,299.622772 584.691833,275.888611 
	C570.300293,251.929688 556.257690,227.761292 541.878479,203.794907 
	C524.990784,175.647644 507.906067,147.618607 490.904602,119.539627 
	C487.877045,114.539406 484.838684,109.545708 481.471741,103.999504 
	C355.303772,313.191406 229.758286,521.351135 103.835464,730.136536 
	C107.740211,730.618469 110.364937,730.942383 113.265793,731.939148 
	C115.843948,731.959900 118.422112,731.980713 121.851250,731.868408 
	C123.564011,732.003113 125.276772,732.137817 127.292328,732.968872 
	C131.198090,732.969788 135.103867,732.970703 139.936340,732.826538 
	C151.956299,732.881958 163.976257,732.937378 176.630753,733.505432 
	C180.424133,733.096802 184.217499,732.688171 188.845627,732.069519 
	C190.562424,732.043518 192.279236,732.017456 194.559891,732.478088 
	C196.710556,732.081421 198.861221,731.684753 201.779572,731.069641 
	C203.368576,731.246582 205.012863,731.779297 206.537521,731.542358 
	C215.830399,730.097900 225.111084,728.561890 234.367188,726.897034 
	C247.171753,724.593872 260.003571,722.394165 272.717682,719.657471 
	C278.611633,718.388672 284.255219,715.956970 290.363220,714.390076 
	C290.921722,714.035583 291.480194,713.681030 292.732361,713.013977 
	C295.157104,712.306885 297.581818,711.599854 300.248413,711.150330 
	C300.421875,710.934387 300.595337,710.718445 301.260132,710.164062 
	C301.843933,710.061218 302.427765,709.958374 303.182892,710.121887 
	C303.182892,710.121887 303.567291,710.043335 303.567291,710.043335 
	C303.567291,710.043335 303.557404,709.603638 303.608368,709.551147 
M358.807373,874.144592 
	C358.807373,874.144592 358.678833,874.284119 358.851776,873.563232 
	C359.909180,872.126038 360.966583,870.688843 362.766022,869.000854 
	C365.869751,867.474670 369.422638,866.482910 371.993286,864.322510 
	C379.805145,857.757141 387.026062,850.591187 389.795807,839.880798 
	C389.852692,839.250305 389.909546,838.619873 389.903809,837.464417 
	C389.980621,837.305786 390.057465,837.147217 390.662567,836.639893 
	C390.760895,835.422119 390.859192,834.204346 390.855774,832.187866 
	C390.987152,831.126343 391.118530,830.064819 391.935669,828.719971 
	C393.452881,825.667480 394.192474,822.679138 390.994324,819.185364 
	C389.603790,803.943237 383.062592,791.556519 370.216492,782.995911 
	C361.136963,776.945374 350.812073,774.462952 339.950684,773.103516 
	C338.291931,772.072083 336.642303,770.160645 334.973022,770.143311 
	C314.995941,769.935974 295.015930,769.991638 275.036743,770.031860 
	C272.380066,770.037231 269.927826,770.584778 269.989471,775.038818 
	C269.969727,832.422974 269.949982,889.807190 270.200897,947.922058 
	C278.196533,948.232849 286.191284,948.575439 294.189423,948.794922 
	C294.839447,948.812744 295.512573,947.988647 296.113770,947.281494 
	C296.113770,947.281494 296.341919,947.117493 297.020203,946.755188 
	C297.325500,944.843018 297.889923,942.931763 297.896149,941.018616 
	C297.961212,921.070984 298.002991,901.122742 297.877258,881.175720 
	C297.853943,877.479309 298.676300,875.716187 302.850159,875.854919 
	C311.817230,876.152710 320.799286,875.999878 330.166412,876.623840 
	C342.097382,900.326355 354.028320,924.028931 366.401520,948.314880 
	C375.946014,948.444092 385.490448,948.584167 395.035370,948.660706 
	C395.402283,948.663635 395.774109,948.053955 396.073975,946.866577 
	C396.066010,946.578064 396.058075,946.289490 396.243011,945.700378 
	C395.991516,945.534119 395.740021,945.367920 395.060120,944.684692 
	C393.140015,940.731506 391.311188,936.730835 389.283752,932.833496 
	C381.191254,917.277100 373.036987,901.752930 364.952911,885.444458 
	C363.326202,882.626343 361.699493,879.808228 359.820435,876.770325 
	C359.820435,876.770325 359.818115,876.435791 359.834137,875.748840 
	C359.435913,875.243530 359.037689,874.738220 358.807373,874.144592 
M857.195496,895.876953 
	C857.195496,895.876953 857.102112,895.573059 856.695862,894.924805 
	C848.505310,894.730835 840.315002,894.515869 832.123413,894.409302 
	C831.745178,894.404419 831.354309,895.369812 830.833801,896.625244 
	C829.107422,900.784424 828.033569,905.399231 825.515442,909.005554 
	C820.650330,915.973145 814.552368,920.976013 805.665894,923.577881 
	C796.924255,926.137268 788.810120,925.667786 781.362061,922.307556 
	C769.423279,916.921021 761.773926,906.838928 761.305725,893.576904 
	C760.537964,871.831665 760.613770,850.024475 761.301392,828.273987 
	C761.633240,817.778259 766.610901,808.964233 775.675537,802.532288 
	C782.078674,797.988770 788.971313,797.395508 796.331665,796.872681 
	C804.734192,796.275818 811.434143,799.875366 817.693115,804.390442 
	C824.964539,809.635803 828.553162,817.595398 830.836670,825.671387 
	C840.139099,825.671387 848.875122,825.671387 858.111572,825.671387 
	C856.269836,819.377136 855.395874,813.120361 852.654541,807.831604 
	C849.052307,800.882019 844.706604,793.993530 839.311279,788.399414 
	C834.927307,783.853821 828.526062,781.253845 822.871948,777.217896 
	C821.573242,776.839539 820.274536,776.461182 818.396423,776.088806 
	C817.865845,775.880005 817.335266,775.671143 816.795471,775.103333 
	C816.530640,775.106873 816.265869,775.110413 815.472351,775.129578 
	C815.314941,775.050049 815.157593,774.970581 814.700745,774.401550 
	C813.794067,774.289062 812.887451,774.176575 811.227539,774.095825 
	C810.496521,773.930115 809.765503,773.764404 808.855286,773.050659 
	C807.903381,773.034241 806.951477,773.017822 805.243164,773.082397 
	C804.495605,772.966980 803.747986,772.851624 802.694214,772.034851 
	C798.051392,770.698486 793.417847,769.549744 788.228210,772.950012 
	C787.160095,772.988159 786.091919,773.026306 784.608887,772.601440 
	C783.410034,773.026794 782.211121,773.452209 780.539062,774.117798 
	C780.364075,774.091553 780.189148,774.065308 779.687439,773.653137 
	C779.124390,773.999207 778.561401,774.345215 777.231812,775.015259 
	C771.863098,777.344788 766.356628,779.404602 761.155090,782.061340 
	C751.014099,787.240967 744.123352,795.719849 739.460938,805.827026 
	C735.689026,814.003784 734.166443,822.888123 732.937134,832.394287 
	C732.627563,833.472290 732.052002,834.549316 732.048218,835.628357 
	C731.989502,852.510193 731.969299,869.392517 732.074951,886.273865 
	C732.082703,887.515198 733.121460,888.750122 733.919495,890.848999 
	C734.589478,905.087952 738.340515,918.295410 747.954041,929.154846 
	C757.069031,939.451294 768.675903,945.737061 782.264709,947.821167 
	C789.411804,948.917419 796.849915,950.231018 803.889404,949.338562 
	C811.443481,948.380920 818.964478,946.368469 826.083130,942.513245 
	C834.563171,937.920654 841.095337,931.518982 846.871643,924.322937 
	C850.148254,920.241028 851.767456,914.828735 854.654846,909.905701 
	C854.746765,909.263611 854.838684,908.621460 854.920776,907.466614 
	C855.002258,907.316284 855.083679,907.166016 855.686646,906.901733 
	C855.752441,906.256042 855.818237,905.610413 855.881287,904.294922 
	C856.014465,903.871765 856.147705,903.448669 856.786194,902.912109 
	C856.832397,902.267151 856.878601,901.622253 856.882019,900.307983 
	C856.998779,899.879089 857.115479,899.450134 857.795410,898.870605 
	C857.700684,897.860168 857.605896,896.849670 857.195496,895.876953 
M682.976807,774.010254 
	C682.976807,774.010254 682.956360,773.984802 682.217957,774.270569 
	C681.811279,775.786621 681.050659,777.302307 681.048950,778.818787 
	C680.988037,833.268982 680.984436,887.719299 681.062256,942.169434 
	C681.064636,943.823853 682.018433,945.476868 682.816040,947.227295 
	C682.954834,947.397034 682.995056,947.587463 683.547302,948.392822 
	C690.654724,948.595459 697.761475,948.870544 704.870178,948.936951 
	C706.213928,948.949524 707.565552,948.133789 708.894165,947.852356 
	C708.894165,947.852356 708.746948,947.809875 709.584717,947.855225 
	C710.389709,946.173889 711.894531,944.494080 711.898315,942.810852 
	C712.021240,888.193115 711.999878,833.575012 711.997498,778.956970 
	C711.997437,778.124817 712.290161,777.036316 711.878906,776.515503 
	C711.099243,775.528076 709.907471,774.865967 708.963257,774.030029 
	C708.963257,774.030029 708.933411,774.110291 708.927795,773.320190 
	C707.504089,772.225769 706.133972,770.280884 704.647156,770.187195 
	C698.838562,769.821289 692.973083,769.780334 687.174927,770.222900 
	C685.693298,770.336060 684.380981,772.668335 682.976807,774.010254 
M614.269348,947.581665 
	C614.456604,947.356445 614.675842,947.168518 615.478149,946.388550 
	C615.652710,944.419006 615.978577,942.449585 615.979736,940.479980 
	C616.007263,893.012451 616.000000,845.544983 616.738892,797.897644 
	C617.492737,797.958740 618.246582,798.019836 619.162476,798.835754 
	C620.495117,799.554871 621.819458,800.880005 623.161621,800.898254 
	C635.038940,801.060059 646.919434,800.983948 658.798950,800.993408 
	C661.308777,800.995361 663.020325,800.203247 662.601013,796.451721 
	C662.400635,788.942566 662.200195,781.433411 661.951294,773.164673 
	C659.271118,772.109863 656.596252,770.152771 653.909973,770.136841 
	C619.041931,769.930664 584.172180,769.991760 549.302917,770.024231 
	C547.499573,770.025879 545.537598,770.005859 543.944702,770.686646 
	C542.721924,771.209290 541.964478,772.820740 540.670654,774.703064 
	C540.550964,782.194641 540.431335,789.686279 540.235107,798.060669 
	C541.656006,799.037842 543.060730,800.834412 544.500366,800.862854 
	C556.204773,801.093872 567.917786,801.096436 579.622192,800.865662 
	C581.099060,800.836609 582.541260,799.051941 584.741272,797.897644 
	C585.497559,797.959290 586.253906,798.020935 587.261169,798.456116 
	C587.459900,798.687073 587.696777,798.868286 588.178284,799.917175 
	C588.188904,847.327087 588.190552,894.736938 588.242737,942.146790 
	C588.244873,944.076721 588.724304,946.006104 589.613220,948.484009 
	C597.747742,948.301147 605.882202,948.118286 614.269348,947.581665 
M224.242538,946.603088 
	C224.486969,947.005432 224.731384,947.407715 225.437164,948.370239 
	C234.766159,949.387146 244.064285,949.445801 254.651794,948.038574 
	C253.077667,945.686462 252.175110,944.337830 250.909073,942.309570 
	C248.263489,935.115112 245.592712,927.929749 242.977386,920.724304 
	C236.682205,903.380432 230.446167,886.015137 224.123718,868.681213 
	C218.097427,852.159363 212.026642,835.653564 205.911041,819.164551 
	C200.319916,804.089722 194.642624,789.046936 188.958069,773.214600 
	C188.303253,772.340149 187.678970,770.735413 186.988815,770.706604 
	C181.397247,770.472778 175.786865,770.398193 170.200562,770.662720 
	C169.416855,770.699768 168.732758,772.840637 167.712555,774.669556 
	C165.411896,780.915833 163.107605,787.160767 160.811432,793.408691 
	C158.113220,800.750610 155.442764,808.102783 152.723099,815.436707 
	C148.437592,826.993225 144.084991,838.524963 139.829575,850.092468 
	C136.670822,858.678955 133.675674,867.325745 130.507385,875.908691 
	C127.438530,884.222351 124.193886,892.471069 121.113731,900.780701 
	C117.672516,910.064331 114.217377,919.345581 110.982841,928.702026 
	C108.790771,935.042969 106.968697,941.511719 105.609245,948.476562 
	C111.694099,948.651855 117.779373,948.960876 123.863594,948.941406 
	C126.566566,948.932739 129.267410,948.261230 132.340515,947.286743 
	C135.846848,937.334351 139.209839,927.326904 142.986908,917.478333 
	C143.697021,915.626770 146.040497,913.118408 147.662277,913.094604 
	C167.987167,912.796082 188.318939,912.818481 208.645370,913.058960 
	C210.215607,913.077515 212.526245,915.037659 213.182663,916.634033 
	C216.066223,923.646423 218.468094,930.856873 220.803055,938.247559 
	C221.002945,938.449402 221.202835,938.651245 221.790375,939.288940 
	C221.886581,939.857239 221.982773,940.425598 221.825012,941.281921 
	C222.060898,941.500610 222.296783,941.719360 222.849228,942.377625 
	C222.930130,942.906921 223.011017,943.436279 222.690170,944.308044 
	C223.081985,944.873779 223.473801,945.439453 224.242538,946.603088 
z"/>
<path fill="#FEFEFE" opacity="1.000000" stroke="none" 
	d="
M290.012329,714.052490 
	C284.255219,715.956970 278.611633,718.388672 272.717682,719.657471 
	C260.003571,722.394165 247.171753,724.593872 234.367188,726.897034 
	C225.111084,728.561890 215.830399,730.097900 206.537521,731.542358 
	C205.012863,731.779297 203.368576,731.246582 200.995819,731.115723 
	C198.140060,731.438354 196.068039,731.714905 193.996033,731.991455 
	C192.279236,732.017456 190.562424,732.043518 187.978851,732.103027 
	C183.406784,732.421997 179.701508,732.707458 175.996216,732.992859 
	C163.976257,732.937378 151.956299,732.881958 139.093292,732.762024 
	C134.496674,732.555847 130.743103,732.414185 126.989532,732.272461 
	C125.276772,732.137817 123.564011,732.003113 121.059357,731.799072 
	C117.841530,731.575256 115.415596,731.420776 112.989655,731.266296 
	C110.364937,730.942383 107.740211,730.618469 103.835464,730.136536 
	C229.758286,521.351135 355.303772,313.191406 481.471741,103.999504 
	C484.838684,109.545708 487.877045,114.539406 490.904602,119.539627 
	C507.906067,147.618607 524.990784,175.647644 541.878479,203.794907 
	C556.257690,227.761292 570.300293,251.929688 584.691833,275.888611 
	C598.948364,299.622772 613.552917,323.147827 627.823669,346.873535 
	C641.351562,369.364258 654.547424,392.054626 668.068176,414.549622 
	C681.505188,436.905365 695.250244,459.075897 708.700867,481.423584 
	C719.904968,500.038635 730.785278,518.848572 741.979553,537.469604 
	C753.396179,556.460327 765.070862,575.295654 776.538147,594.256165 
	C784.935059,608.139832 793.143372,622.137329 801.500977,636.044861 
	C811.180542,652.152222 821.032288,668.156860 830.622131,684.317200 
	C839.542664,699.349609 848.217285,714.527954 856.501953,729.927246 
	C847.201904,730.206543 838.399841,730.177917 829.597961,730.199219 
	C805.025757,730.258667 780.453552,730.338867 755.881348,730.410889 
	C754.636719,729.477295 753.112122,728.761047 752.192078,727.575623 
	C745.238953,718.617676 738.404602,709.567688 731.410400,699.965088 
	C730.842957,698.965210 730.398254,698.546570 729.953491,698.127991 
	C723.124268,691.199463 716.295044,684.270935 709.018433,676.921875 
	C708.046814,676.307251 707.522644,676.113159 706.998535,675.919067 
	C698.308472,669.030701 689.899902,661.742004 680.843689,655.374329 
	C672.896729,649.786804 664.316040,645.068848 655.843811,640.269348 
	C648.244080,635.964294 640.457703,631.978577 632.656006,628.045654 
	C629.839111,626.625671 626.721924,625.809998 623.773010,624.639832 
	C621.739868,623.833069 619.760437,622.891052 617.177368,621.793091 
	C616.059814,621.440735 615.521973,621.304688 614.984070,621.168701 
	C614.830627,621.084351 614.677185,621.000000 614.090515,620.722412 
	C613.487854,620.511108 613.318420,620.493042 613.148926,620.474976 
	C612.622375,620.269958 612.095825,620.064880 611.127563,619.665161 
	C610.685852,619.470581 610.191467,619.437744 610.191467,619.437744 
	C609.653259,619.239502 609.115051,619.041321 608.128479,618.655151 
	C607.680115,618.467224 607.185791,618.440918 607.185791,618.440918 
	C606.649170,618.251404 606.112549,618.061890 605.130127,617.701172 
	C604.684265,617.530029 604.207947,617.508179 604.207947,617.508179 
	C603.671021,617.309570 603.134094,617.111023 602.099487,616.734253 
	C601.061340,616.441284 600.520935,616.326416 599.980469,616.211609 
	C590.260498,613.791138 580.540466,611.370667 570.138184,608.812500 
	C568.630554,608.553711 567.805176,608.432739 566.979797,608.311707 
	C566.242798,608.163330 565.505798,608.014954 564.121033,607.737854 
	C562.642456,607.504883 561.811584,607.400574 560.980774,607.296265 
	C560.241028,607.156555 559.501282,607.016846 558.078369,606.763184 
	C556.257996,606.517944 555.120728,606.386780 553.983521,606.255676 
	C553.241150,606.129150 552.498840,606.002686 551.049438,605.777466 
	C548.889587,605.535828 547.436768,605.392944 545.983948,605.250122 
	C541.612122,604.807129 537.240295,604.364075 531.979858,603.890381 
	C527.691895,603.694031 524.292542,603.528320 520.893188,603.362549 
	C511.886017,603.280945 502.878876,603.199402 493.012177,603.156128 
	C488.438599,603.486572 484.724548,603.778687 481.010498,604.070740 
	C474.109436,604.586670 467.208344,605.102661 459.074371,605.710815 
	C504.139069,559.390320 550.969543,517.349121 611.699524,493.425049 
	C568.353882,421.247437 525.090698,349.207092 481.543427,276.693817 
	C420.631531,377.708099 359.854645,478.498474 298.812592,579.728577 
	C349.526764,603.775635 402.437012,612.472595 458.951324,605.639587 
	C457.661377,607.695068 457.025482,609.303040 455.898041,610.410522 
	C446.965393,619.184814 437.953339,627.878540 428.938599,636.568970 
	C412.905975,652.024780 394.952881,664.938965 375.627594,675.875916 
	C363.388153,682.802734 350.888611,689.325012 338.194092,695.374817 
	C328.293121,700.093384 317.911957,703.804321 307.085632,708.135254 
	C305.510559,708.714172 304.594116,709.120911 303.677643,709.527588 
	C303.677643,709.527588 303.608368,709.551147 303.405823,709.552429 
	C303.203308,709.553711 303.011566,709.855530 303.011566,709.855530 
	C302.427765,709.958374 301.843933,710.061218 300.782104,710.349121 
	C300.304047,710.534241 300.006561,710.892761 300.006561,710.892761 
	C297.581818,711.599854 295.157104,712.306885 292.108032,713.148315 
	C290.993225,713.539246 290.502777,713.795898 290.012329,714.052490 
z"/>
<path fill="#FDFDFD" opacity="1.000000" stroke="none" 
	d="
M364.905579,886.216797 
	C373.036987,901.752930 381.191254,917.277100 389.283752,932.833496 
	C391.311188,936.730835 393.140015,940.731506 395.348633,945.189453 
	C395.774811,945.796509 395.912445,945.898743 396.050110,946.000916 
	C396.058075,946.289490 396.066010,946.578064 395.630920,947.304016 
	C385.445007,947.738159 375.702148,947.734802 365.959290,947.731445 
	C354.028320,924.028931 342.097382,900.326355 329.864746,875.961182 
	C318.529755,875.298584 307.496399,875.298584 296.341919,875.298584 
	C296.341919,899.180786 296.341919,923.149170 296.341919,947.117493 
	C296.341919,947.117493 296.113770,947.281494 295.667480,947.479492 
	C286.790863,947.515442 278.360565,947.353394 269.930237,947.191345 
	C269.949982,889.807190 269.969727,832.422974 270.480438,774.538818 
	C293.980835,773.980347 316.990295,773.921814 339.999725,773.863220 
	C350.812073,774.462952 361.136963,776.945374 370.216492,782.995911 
	C383.062592,791.556519 389.603790,803.943237 391.044800,820.038513 
	C391.146790,823.595520 391.198334,826.299438 391.249878,829.003296 
	C391.118530,830.064819 390.987152,831.126343 390.735138,832.887573 
	C390.454437,834.721008 390.294342,835.854797 390.134277,836.988586 
	C390.057465,837.147217 389.980621,837.305786 389.752808,837.935425 
	C389.499207,838.939087 389.396637,839.471863 389.294067,840.004578 
	C387.026062,850.591187 379.805145,857.757141 371.993286,864.322510 
	C369.422638,866.482910 365.869751,867.474670 362.043610,869.154114 
	C359.857208,869.892090 358.393219,870.476807 356.689972,871.157104 
	C357.490631,872.415955 358.084717,873.350037 358.678833,874.284119 
	C358.678833,874.284119 358.807373,874.144592 358.777405,874.510254 
	C359.104340,875.395935 359.461212,875.915833 359.818115,876.435791 
	C359.818115,876.435791 359.820435,876.770325 359.979248,877.234802 
	C361.727203,880.538452 363.316376,883.377625 364.905579,886.216797 
M344.255707,851.046021 
	C358.393738,847.106323 365.603607,837.377075 364.824860,823.289307 
	C364.085632,809.916504 355.734833,799.666016 341.941589,798.546204 
	C326.964661,797.330383 311.812653,798.270447 296.506348,798.270447 
	C296.506348,816.089539 296.506348,833.800720 296.506348,851.999573 
	C303.509338,851.999573 310.280426,852.100281 317.047363,851.974609 
	C325.841064,851.811279 334.631439,851.468079 344.255707,851.046021 
z"/>
<path fill="#FBFCFD" opacity="1.000000" stroke="none" 
	d="
M222.078964,940.993896 
	C221.982773,940.425598 221.886581,939.857239 221.586182,938.823547 
	C221.381989,938.358154 221.044571,937.995483 221.044586,937.995483 
	C218.468094,930.856873 216.066223,923.646423 213.182663,916.634033 
	C212.526245,915.037659 210.215607,913.077515 208.645370,913.058960 
	C188.318939,912.818481 167.987167,912.796082 147.662277,913.094604 
	C146.040497,913.118408 143.697021,915.626770 142.986908,917.478333 
	C139.209839,927.326904 135.846848,937.334351 131.689667,947.547607 
	C122.352928,947.846741 113.667038,947.885010 104.981148,947.923340 
	C106.968697,941.511719 108.790771,935.042969 110.982841,928.702026 
	C114.217377,919.345581 117.672516,910.064331 121.113731,900.780701 
	C124.193886,892.471069 127.438530,884.222351 130.507385,875.908691 
	C133.675674,867.325745 136.670822,858.678955 139.829575,850.092468 
	C144.084991,838.524963 148.437592,826.993225 152.723099,815.436707 
	C155.442764,808.102783 158.113220,800.750610 160.811432,793.408691 
	C163.107605,787.160767 165.411896,780.915833 168.325928,774.336792 
	C175.627304,773.999268 182.315308,773.994629 189.003296,773.989990 
	C194.642624,789.046936 200.319916,804.089722 205.911041,819.164551 
	C212.026642,835.653564 218.097427,852.159363 224.123718,868.681213 
	C230.446167,886.015137 236.682205,903.380432 242.977386,920.724304 
	C245.592712,927.929749 248.263489,935.115112 251.152985,943.080139 
	C251.644394,945.020813 251.891876,946.190979 252.234329,947.810059 
	C242.759705,947.810059 233.867752,947.810059 224.975800,947.810059 
	C224.731384,947.407715 224.486969,947.005432 224.078461,946.016052 
	C223.640228,944.941223 223.366074,944.453369 223.091919,943.965576 
	C223.011017,943.436279 222.930130,942.906921 222.657089,941.883545 
	C222.336288,941.257568 222.207626,941.125732 222.078964,940.993896 
M153.849670,890.164062 
	C170.816971,890.164062 187.784256,890.164062 205.317902,890.164062 
	C196.645370,864.771606 188.132828,839.847534 179.346771,814.122681 
	C178.561218,815.826660 178.023407,816.783386 177.664322,817.803040 
	C169.599442,840.703003 161.546448,863.607239 153.530167,886.524231 
	C153.163010,887.573853 153.159195,888.750610 153.849670,890.164062 
z"/>
<path fill="#FBFCFD" opacity="1.000000" stroke="none" 
	d="
M857.232178,899.021240 
	C857.115479,899.450134 856.998779,899.879089 856.719604,900.855469 
	C856.465149,901.943787 856.373047,902.484680 856.280945,903.025574 
	C856.147705,903.448669 856.014465,903.871765 855.666138,904.820312 
	C855.355713,905.902344 855.260437,906.459045 855.165161,907.015686 
	C855.083679,907.166016 855.002258,907.316284 854.714905,907.919434 
	C854.383789,908.920105 854.258484,909.467834 854.133118,910.015503 
	C851.767456,914.828735 850.148254,920.241028 846.871643,924.322937 
	C841.095337,931.518982 834.563171,937.920654 826.083130,942.513245 
	C818.964478,946.368469 811.443481,948.380920 803.889404,949.338562 
	C796.849915,950.231018 789.411804,948.917419 782.264709,947.821167 
	C768.675903,945.737061 757.069031,939.451294 747.954041,929.154846 
	C738.340515,918.295410 734.589478,905.087952 733.869385,890.010498 
	C733.772522,870.081543 733.725830,850.991150 733.679077,831.900757 
	C734.166443,822.888123 735.689026,814.003784 739.460938,805.827026 
	C744.123352,795.719849 751.014099,787.240967 761.155090,782.061340 
	C766.356628,779.404602 771.863098,777.344788 777.889648,774.883057 
	C779.036438,774.513672 779.525330,774.276428 780.014221,774.039185 
	C780.189148,774.065308 780.364075,774.091553 781.121826,774.037109 
	C782.810974,773.659058 783.917358,773.361755 785.023804,773.064514 
	C786.091919,773.026306 787.160095,772.988159 789.075562,772.889709 
	C794.282104,772.798340 798.641235,772.767273 803.000427,772.736206 
	C803.747986,772.851624 804.495605,772.966980 805.898682,773.193359 
	C807.380920,773.402405 808.207703,773.500549 809.034485,773.598633 
	C809.765503,773.764404 810.496521,773.930115 811.861389,774.275818 
	C813.330261,774.600891 814.165222,774.746033 815.000244,774.891113 
	C815.157593,774.970581 815.314941,775.050049 815.900513,775.294434 
	C816.328674,775.459290 816.804688,775.462341 816.804688,775.462341 
	C817.335266,775.671143 817.865845,775.880005 818.906738,776.317505 
	C820.617920,776.961182 821.818665,777.376099 823.019470,777.791016 
	C828.526062,781.253845 834.927307,783.853821 839.311279,788.399414 
	C844.706604,793.993530 849.052307,800.882019 852.654541,807.831604 
	C855.395874,813.120361 856.269836,819.377136 858.111572,825.671387 
	C848.875122,825.671387 840.139099,825.671387 830.836670,825.671387 
	C828.553162,817.595398 824.964539,809.635803 817.693115,804.390442 
	C811.434143,799.875366 804.734192,796.275818 796.331665,796.872681 
	C788.971313,797.395508 782.078674,797.988770 775.675537,802.532288 
	C766.610901,808.964233 761.633240,817.778259 761.301392,828.273987 
	C760.613770,850.024475 760.537964,871.831665 761.305725,893.576904 
	C761.773926,906.838928 769.423279,916.921021 781.362061,922.307556 
	C788.810120,925.667786 796.924255,926.137268 805.665894,923.577881 
	C814.552368,920.976013 820.650330,915.973145 825.515442,909.005554 
	C828.033569,905.399231 829.107422,900.784424 831.367493,896.183411 
	C840.301514,895.685425 848.701782,895.629272 857.102112,895.573059 
	C857.102112,895.573059 857.195496,895.876953 857.349304,896.261230 
	C857.412842,897.437439 857.322510,898.229370 857.232178,899.021240 
z"/>
<path fill="#FCFDFD" opacity="1.000000" stroke="none" 
	d="
M508.797302,902.980774 
	C509.676147,900.664978 510.554993,898.349121 512.184143,895.857422 
	C521.276672,895.823669 529.618958,895.965637 537.961182,896.107666 
	C535.576904,907.667175 531.832581,918.424011 524.112061,927.881592 
	C517.563232,935.904053 509.722565,941.325134 500.282593,944.945801 
	C486.939514,950.063416 473.368286,950.151428 459.566956,947.189941 
	C443.915741,943.831360 431.508179,935.524353 423.000885,922.131226 
	C416.060059,911.204224 414.283600,898.610474 413.848022,884.997437 
	C413.776733,868.065613 413.735229,851.984802 413.693695,835.904053 
	C414.666626,824.276917 416.105438,812.881042 421.643585,802.194275 
	C426.165802,793.468018 433.217438,787.634033 440.803070,782.068237 
	C447.195557,777.377991 454.718567,775.700134 462.904602,773.834290 
	C464.400208,773.500854 465.203461,773.259583 466.006683,773.018372 
	C467.070770,772.979736 468.134857,772.941040 470.043762,772.871216 
	C474.601746,772.785095 478.314972,772.730225 482.028168,772.675354 
	C483.400970,772.834351 484.773743,772.993347 486.831512,773.288696 
	C488.352631,773.528931 489.188751,773.632751 490.024902,773.736511 
	C499.933411,775.786438 509.007812,779.748718 516.870911,786.124084 
	C524.175110,792.046265 529.420776,799.571838 533.033325,808.988342 
	C533.784424,810.762085 534.333374,811.900391 534.882263,813.038696 
	C534.883606,813.207397 534.884949,813.376038 534.984680,814.053955 
	C535.343750,815.057373 535.604370,815.551514 535.864990,816.045654 
	C535.910400,816.485840 535.955872,816.926086 536.103394,817.949097 
	C536.452393,819.027527 536.699280,819.523132 536.946106,820.018738 
	C536.929016,820.190002 536.911865,820.361267 536.967896,821.111633 
	C537.358643,822.795227 537.676147,823.899658 537.993652,825.004150 
	C535.997314,825.346130 534.005493,825.949036 532.003906,825.983032 
	C524.905579,826.103699 517.804016,826.030090 510.763916,826.030090 
	C510.139801,823.714417 509.553741,821.540100 508.761230,818.814697 
	C508.554718,818.263672 508.168152,818.003357 508.168152,818.003357 
	C508.154022,817.824707 508.139923,817.645996 507.957764,816.926086 
	C507.228699,815.509033 506.667664,814.633179 506.106628,813.757385 
	C505.893372,813.262878 505.680145,812.768372 505.222076,811.854248 
	C504.727905,811.211731 504.478577,810.988770 504.229248,810.765747 
	C504.229248,810.765747 504.147034,810.874817 504.153351,810.564331 
	C503.765869,809.853088 503.372040,809.452393 502.978210,809.051697 
	C501.541748,807.434326 500.105255,805.817017 498.227966,803.810303 
	C497.260651,803.106628 496.734192,802.792236 496.207703,802.477844 
	C489.101959,797.147644 481.038574,796.028503 472.471741,797.026978 
	C471.247223,797.169678 469.991852,797.047729 468.106934,797.126099 
	C466.968475,797.449097 466.473877,797.694214 465.979279,797.939392 
	C465.428345,798.002136 464.877441,798.064880 463.833496,798.309692 
	C463.225952,798.623108 463.111450,798.754456 462.996918,798.885742 
	C462.819916,798.887939 462.642914,798.890137 461.913605,799.042603 
	C460.453033,799.746094 459.544739,800.299316 458.636444,800.852600 
	C454.775970,804.277039 450.915497,807.701538 446.701965,811.639343 
	C445.633698,813.773132 444.918488,815.393555 444.203308,817.013977 
	C443.075470,822.713257 441.947601,828.412537 440.743713,834.922485 
	C440.546387,838.828552 440.425079,841.924011 440.303802,845.019470 
	C440.243988,855.367065 440.184174,865.714722 440.135986,876.953796 
	C440.416779,880.903015 440.685944,883.960815 440.955078,887.018555 
	C441.068481,902.163513 446.171051,914.553223 460.868591,922.277344 
	C464.649445,923.342651 467.823425,924.110046 470.997437,924.877441 
	C471.161560,924.934814 471.325684,924.992188 472.083801,925.122070 
	C474.787445,925.134277 476.897064,925.074036 479.006683,925.013794 
	C480.076111,924.986816 481.145569,924.959839 482.912170,924.851379 
	C484.405579,924.487488 485.201782,924.205078 485.997986,923.922607 
	C488.465271,923.006531 490.932526,922.090393 493.968079,920.910645 
	C495.098846,920.168396 495.661316,919.689880 496.223816,919.211365 
	C496.223816,919.211365 496.119507,919.141296 496.423676,919.142334 
	C497.121246,918.750610 497.514648,918.357788 497.908081,917.965088 
	C499.200287,916.857422 500.492523,915.749817 502.160217,914.232910 
	C502.942932,913.207031 503.350189,912.590393 503.757446,911.973755 
	C504.140198,911.526367 504.522919,911.078979 505.245056,910.158936 
	C506.655426,907.451111 507.726349,905.215942 508.797302,902.980774 
z"/>
<path fill="#FAFBFC" opacity="1.000000" stroke="none" 
	d="
M587.010193,798.082581 
	C586.253906,798.020935 585.497559,797.959290 583.909546,797.897888 
	C572.262024,797.889404 561.445679,797.934753 550.630676,797.840515 
	C547.189331,797.810547 543.751221,797.409241 540.311646,797.177856 
	C540.431335,789.686279 540.550964,782.194641 541.303711,774.344971 
	C581.957764,773.966064 621.978821,773.945129 661.999756,773.924194 
	C662.200195,781.433411 662.400635,788.942566 662.274902,797.074341 
	C647.632690,797.824890 633.316528,797.952942 619.000427,798.080933 
	C618.246582,798.019836 617.492737,797.958740 615.933105,798.087891 
	C615.023804,798.761658 614.829468,799.245178 614.829712,799.728577 
	C614.852600,848.825012 614.890259,897.921448 614.927002,947.017883 
	C614.675842,947.168518 614.456604,947.356445 613.676270,947.699097 
	C605.049255,947.856201 597.015320,947.895996 588.981384,947.935730 
	C588.724304,946.006104 588.244873,944.076721 588.242737,942.146790 
	C588.190552,894.736938 588.188904,847.327087 588.106995,799.163574 
	C587.693848,798.300842 587.351990,798.191711 587.010193,798.082581 
z"/>
<path fill="#FEFEFE" opacity="1.000000" stroke="none" 
	d="
M682.936707,947.798706 
	C682.995056,947.587463 682.954834,947.397034 682.730042,946.720947 
	C682.650574,890.791565 682.654114,835.368652 682.676025,779.945679 
	C682.676819,777.958679 682.858826,775.971741 682.956360,773.984802 
	C682.956360,773.984802 682.976807,774.010254 683.453003,774.003906 
	C692.263977,774.035156 700.598694,774.072754 708.933411,774.110291 
	C708.933411,774.110291 708.963257,774.030029 708.975159,774.511108 
	C708.997559,831.272766 709.010010,887.553345 709.007324,943.833862 
	C709.007263,945.159180 708.837524,946.484558 708.746948,947.809875 
	C708.746948,947.809875 708.894165,947.852356 708.439270,947.799927 
	C699.635132,947.764526 691.285950,947.781616 682.936707,947.798706 
z"/>
<path fill="#02385E" opacity="1.000000" stroke="none" 
	d="
M709.165833,947.832520 
	C708.837524,946.484558 709.007263,945.159180 709.007324,943.833862 
	C709.010010,887.553345 708.997559,831.272766 708.937012,774.530518 
	C709.907471,774.865967 711.099243,775.528076 711.878906,776.515503 
	C712.290161,777.036316 711.997437,778.124817 711.997498,778.956970 
	C711.999878,833.575012 712.021240,888.193115 711.898315,942.810852 
	C711.894531,944.494080 710.389709,946.173889 709.165833,947.832520 
z"/>
<path fill="#02385E" opacity="1.000000" stroke="none" 
	d="
M661.975586,773.544434 
	C621.978821,773.945129 581.957764,773.966064 541.468445,773.967468 
	C541.964478,772.820740 542.721924,771.209290 543.944702,770.686646 
	C545.537598,770.005859 547.499573,770.025879 549.302917,770.024231 
	C584.172180,769.991760 619.041931,769.930664 653.909973,770.136841 
	C656.596252,770.152771 659.271118,772.109863 661.975586,773.544434 
z"/>
<path fill="#012F57" opacity="1.000000" stroke="none" 
	d="
M682.587158,774.127686 
	C682.858826,775.971741 682.676819,777.958679 682.676025,779.945679 
	C682.654114,835.368652 682.650574,890.791565 682.586304,946.672546 
	C682.018433,945.476868 681.064636,943.823853 681.062256,942.169434 
	C680.984436,887.719299 680.988037,833.268982 681.048950,778.818787 
	C681.050659,777.302307 681.811279,775.786621 682.587158,774.127686 
z"/>
<path fill="#02385E" opacity="1.000000" stroke="none" 
	d="
M339.975220,773.483398 
	C316.990295,773.921814 293.980835,773.980347 270.506897,774.078186 
	C269.927826,770.584778 272.380066,770.037231 275.036743,770.031860 
	C295.015930,769.991638 314.995941,769.935974 334.973022,770.143311 
	C336.642303,770.160645 338.291931,772.072083 339.975220,773.483398 
z"/>
<path fill="#21496D" opacity="1.000000" stroke="none" 
	d="
M296.681061,946.936340 
	C296.341919,923.149170 296.341919,899.180786 296.341919,875.298584 
	C307.496399,875.298584 318.529755,875.298584 329.669159,875.665039 
	C320.799286,875.999878 311.817230,876.152710 302.850159,875.854919 
	C298.676300,875.716187 297.853943,877.479309 297.877258,881.175720 
	C298.002991,901.122742 297.961212,921.070984 297.896149,941.018616 
	C297.889923,942.931763 297.325500,944.843018 296.681061,946.936340 
z"/>
<path fill="#012F57" opacity="1.000000" stroke="none" 
	d="
M756.144531,730.767090 
	C780.453552,730.338867 805.025757,730.258667 829.597961,730.199219 
	C838.399841,730.177917 847.201904,730.206543 856.424438,730.261108 
	C855.252502,730.872742 853.661499,731.921692 852.067261,731.926819 
	C821.607788,732.024109 791.147949,732.010437 760.688232,731.961426 
	C759.260925,731.959167 757.834595,731.415039 756.144531,730.767090 
z"/>
<path fill="#012F57" opacity="1.000000" stroke="none" 
	d="
M615.202576,946.703247 
	C614.890259,897.921448 614.852600,848.825012 614.829712,799.728577 
	C614.829468,799.245178 615.023804,798.761658 615.563110,798.177856 
	C616.000000,845.544983 616.007263,893.012451 615.979736,940.479980 
	C615.978577,942.449585 615.652710,944.419006 615.202576,946.703247 
z"/>
<path fill="#02385E" opacity="1.000000" stroke="none" 
	d="
M619.081421,798.458374 
	C633.316528,797.952942 647.632690,797.824890 662.362061,797.489868 
	C663.020325,800.203247 661.308777,800.995361 658.798950,800.993408 
	C646.919434,800.983948 635.038940,801.060059 623.161621,800.898254 
	C621.819458,800.880005 620.495117,799.554871 619.081421,798.458374 
z"/>
<path fill="#02385E" opacity="1.000000" stroke="none" 
	d="
M540.273376,797.619263 
	C543.751221,797.409241 547.189331,797.810547 550.630676,797.840515 
	C561.445679,797.934753 572.262024,797.889404 583.538696,797.989380 
	C582.541260,799.051941 581.099060,800.836609 579.622192,800.865662 
	C567.917786,801.096436 556.204773,801.093872 544.500366,800.862854 
	C543.060730,800.834412 541.656006,799.037842 540.273376,797.619263 
z"/>
<path fill="#02385E" opacity="1.000000" stroke="none" 
	d="
M708.930603,773.715210 
	C700.598694,774.072754 692.263977,774.035156 683.460083,773.989319 
	C684.380981,772.668335 685.693298,770.336060 687.174927,770.222900 
	C692.973083,769.780334 698.838562,769.821289 704.647156,770.187195 
	C706.133972,770.280884 707.504089,772.225769 708.930603,773.715210 
z"/>
<path fill="#02385E" opacity="1.000000" stroke="none" 
	d="
M188.980682,773.602295 
	C182.315308,773.994629 175.627304,773.999268 168.470947,774.005859 
	C168.732758,772.840637 169.416855,770.699768 170.200562,770.662720 
	C175.786865,770.398193 181.397247,770.472778 186.988815,770.706604 
	C187.678970,770.735413 188.303253,772.340149 188.980682,773.602295 
z"/>
<path fill="#0B3D63" opacity="1.000000" stroke="none" 
	d="
M225.206482,948.090149 
	C233.867752,947.810059 242.759705,947.810059 252.234329,947.810059 
	C251.891876,946.190979 251.644394,945.020813 251.334717,943.419922 
	C252.175110,944.337830 253.077667,945.686462 254.651794,948.038574 
	C244.064285,949.445801 234.766159,949.387146 225.206482,948.090149 
z"/>
<path fill="#012F57" opacity="1.000000" stroke="none" 
	d="
M733.308105,832.147522 
	C733.725830,850.991150 733.772522,870.081543 733.750061,889.579956 
	C733.121460,888.750122 732.082703,887.515198 732.074951,886.273865 
	C731.969299,869.392517 731.989502,852.510193 732.048218,835.628357 
	C732.052002,834.549316 732.627563,833.472290 733.308105,832.147522 
z"/>
<path fill="#134166" opacity="1.000000" stroke="none" 
	d="
M366.180420,948.023193 
	C375.702148,947.734802 385.445007,947.738159 395.665771,947.735596 
	C395.774109,948.053955 395.402283,948.663635 395.035370,948.660706 
	C385.490448,948.584167 375.946014,948.444092 366.180420,948.023193 
z"/>
<path fill="#012F57" opacity="1.000000" stroke="none" 
	d="
M856.898987,895.248901 
	C848.701782,895.629272 840.301514,895.685425 831.435303,895.812439 
	C831.354309,895.369812 831.745178,894.404419 832.123413,894.409302 
	C840.315002,894.515869 848.505310,894.730835 856.898987,895.248901 
z"/>
<path fill="#012F57" opacity="1.000000" stroke="none" 
	d="
M537.844971,895.723755 
	C529.618958,895.965637 521.276672,895.823669 512.471436,895.609619 
	C512.463318,895.089172 512.915710,894.252747 513.373413,894.249878 
	C521.157166,894.201477 528.941711,894.243469 536.725342,894.333130 
	C537.063660,894.337036 537.394470,894.989441 537.844971,895.723755 
z"/>
<path fill="#21496D" opacity="1.000000" stroke="none" 
	d="
M270.065582,947.556702 
	C278.360565,947.353394 286.790863,947.515442 295.698059,947.616577 
	C295.512573,947.988647 294.839447,948.812744 294.189423,948.794922 
	C286.191284,948.575439 278.196533,948.232849 270.065582,947.556702 
z"/>
<path fill="#012F57" opacity="1.000000" stroke="none" 
	d="
M413.320465,836.148438 
	C413.735229,851.984802 413.776733,868.065613 413.735901,884.615234 
	C413.108002,883.970825 412.095154,882.860718 412.087646,881.743835 
	C411.991150,867.371643 412.024658,852.998474 412.086823,838.625793 
	C412.090057,837.880188 412.647675,837.137024 413.320465,836.148438 
z"/>
<path fill="#02385E" opacity="1.000000" stroke="none" 
	d="
M802.847290,772.385559 
	C798.641235,772.767273 794.282104,772.798340 789.460938,772.772705 
	C793.417847,769.549744 798.051392,770.698486 802.847290,772.385559 
z"/>
<path fill="#012F57" opacity="1.000000" stroke="none" 
	d="
M105.295197,948.199951 
	C113.667038,947.885010 122.352928,947.846741 131.504028,947.849548 
	C129.267410,948.261230 126.566566,948.932739 123.863594,948.941406 
	C117.779373,948.960876 111.694099,948.651855 105.295197,948.199951 
z"/>
<path fill="#012F57" opacity="1.000000" stroke="none" 
	d="
M683.242004,948.095764 
	C691.285950,947.781616 699.635132,947.764526 708.448975,947.723877 
	C707.565552,948.133789 706.213928,948.949524 704.870178,948.936951 
	C697.761475,948.870544 690.654724,948.595459 683.242004,948.095764 
z"/>
<path fill="#012F57" opacity="1.000000" stroke="none" 
	d="
M589.297302,948.209839 
	C597.015320,947.895996 605.049255,947.856201 613.549927,947.875977 
	C605.882202,948.118286 597.747742,948.301147 589.297302,948.209839 
z"/>
<path fill="#194469" opacity="1.000000" stroke="none" 
	d="
M481.869202,772.334351 
	C478.314972,772.730225 474.601746,772.785095 470.430450,772.766907 
	C473.884979,772.460327 477.797607,772.226868 481.869202,772.334351 
z"/>
<path fill="#0B3D63" opacity="1.000000" stroke="none" 
	d="
M176.313477,733.249146 
	C179.701508,732.707458 183.406784,732.421997 187.561462,732.208008 
	C184.217499,732.688171 180.424133,733.096802 176.313477,733.249146 
z"/>
<path fill="#0B3D63" opacity="1.000000" stroke="none" 
	d="
M127.140930,732.620728 
	C130.743103,732.414185 134.496674,732.555847 138.629944,732.834595 
	C135.103867,732.970703 131.198090,732.969788 127.140930,732.620728 
z"/>
<path fill="#134166" opacity="1.000000" stroke="none" 
	d="
M441.209442,886.709595 
	C440.685944,883.960815 440.416779,880.903015 440.234436,877.411865 
	C440.702087,880.119202 441.082947,883.259888 441.209442,886.709595 
z"/>
<path fill="#134166" opacity="1.000000" stroke="none" 
	d="
M440.644165,844.868164 
	C440.425079,841.924011 440.546387,838.828552 440.805054,835.356201 
	C440.956451,838.225220 440.970490,841.471069 440.644165,844.868164 
z"/>
<path fill="#053A60" opacity="1.000000" stroke="none" 
	d="
M391.592773,828.861633 
	C391.198334,826.299438 391.146790,823.595520 391.155762,820.444458 
	C394.192474,822.679138 393.452881,825.667480 391.592773,828.861633 
z"/>
<path fill="#134166" opacity="1.000000" stroke="none" 
	d="
M470.794617,924.587891 
	C467.823425,924.110046 464.649445,923.342651 461.229919,922.312622 
	C464.186890,922.799500 467.389343,923.548889 470.794617,924.587891 
z"/>
<path fill="#194469" opacity="1.000000" stroke="none" 
	d="
M364.929230,885.830627 
	C363.316376,883.377625 361.727203,880.538452 360.105408,877.344666 
	C361.699493,879.808228 363.326202,882.626343 364.929230,885.830627 
z"/>
<path fill="#0B3D63" opacity="1.000000" stroke="none" 
	d="
M113.127724,731.602722 
	C115.415596,731.420776 117.841530,731.575256 120.633865,731.865601 
	C118.422112,731.980713 115.843948,731.959900 113.127724,731.602722 
z"/>
<path fill="#0B3D63" opacity="1.000000" stroke="none" 
	d="
M194.277954,732.234741 
	C196.068039,731.714905 198.140060,731.438354 200.611969,731.224854 
	C198.861221,731.684753 196.710556,732.081421 194.277954,732.234741 
z"/>
<path fill="#194469" opacity="1.000000" stroke="none" 
	d="
M508.474365,903.074585 
	C507.726349,905.215942 506.655426,907.451111 505.302094,909.868347 
	C506.063599,907.756409 507.107513,905.462341 508.474365,903.074585 
z"/>
<path fill="#134166" opacity="1.000000" stroke="none" 
	d="
M478.721191,924.772827 
	C476.897064,925.074036 474.787445,925.134277 472.339691,925.071899 
	C474.146271,924.810120 476.290985,924.671021 478.721191,924.772827 
z"/>
<path fill="#194469" opacity="1.000000" stroke="none" 
	d="
M358.765320,873.923706 
	C358.084717,873.350037 357.490631,872.415955 356.689972,871.157104 
	C358.393219,870.476807 359.857208,869.892090 361.672577,869.279541 
	C360.966583,870.688843 359.909180,872.126038 358.765320,873.923706 
z"/>
<path fill="#012F57" opacity="1.000000" stroke="none" 
	d="
M481.336853,604.315918 
	C484.724548,603.778687 488.438599,603.486572 492.616211,603.262817 
	C489.274292,603.741211 485.468750,604.151123 481.336853,604.315918 
z"/>
<path fill="#012F57" opacity="1.000000" stroke="none" 
	d="
M521.137512,603.719238 
	C524.292542,603.528320 527.691895,603.694031 531.540222,603.966919 
	C528.453430,604.074768 524.917603,604.075378 521.137512,603.719238 
z"/>
<path fill="#134166" opacity="1.000000" stroke="none" 
	d="
M546.096802,605.566406 
	C547.436768,605.392944 548.889587,605.535828 550.674683,605.830933 
	C549.407837,605.949707 547.808716,605.916260 546.096802,605.566406 
z"/>
<path fill="#134166" opacity="1.000000" stroke="none" 
	d="
M444.533936,816.913696 
	C444.918488,815.393555 445.633698,813.773132 446.627258,811.965088 
	C446.225281,813.456055 445.544922,815.134766 444.533936,816.913696 
z"/>
<path fill="#134166" opacity="1.000000" stroke="none" 
	d="
M554.083984,606.559692 
	C555.120728,606.386780 556.257996,606.517944 557.702942,606.808960 
	C556.735291,606.933777 555.459900,606.898743 554.083984,606.559692 
z"/>
<path fill="#194469" opacity="1.000000" stroke="none" 
	d="
M822.945679,777.504456 
	C821.818665,777.376099 820.617920,776.961182 819.196533,776.314575 
	C820.274536,776.461182 821.573242,776.839539 822.945679,777.504456 
z"/>
<path fill="#02385E" opacity="1.000000" stroke="none" 
	d="
M784.816345,772.833008 
	C783.917358,773.361755 782.810974,773.659058 781.358398,773.916992 
	C782.211121,773.452209 783.410034,773.026794 784.816345,772.833008 
z"/>
<path fill="#053A60" opacity="1.000000" stroke="none" 
	d="
M390.398438,836.814209 
	C390.294342,835.854797 390.454437,834.721008 390.786011,833.286865 
	C390.859192,834.204346 390.760895,835.422119 390.398438,836.814209 
z"/>
<path fill="#194469" opacity="1.000000" stroke="none" 
	d="
M535.056763,812.825073 
	C534.333374,811.900391 533.784424,810.762085 533.221375,809.302002 
	C533.881958,810.190613 534.556580,811.401001 535.056763,812.825073 
z"/>
<path fill="#194469" opacity="1.000000" stroke="none" 
	d="
M538.207336,824.785889 
	C537.676147,823.899658 537.358643,822.795227 537.078247,821.344971 
	C537.550537,822.188721 537.985779,823.378113 538.207336,824.785889 
z"/>
<path fill="#134166" opacity="1.000000" stroke="none" 
	d="
M561.065430,607.581299 
	C561.811584,607.400574 562.642456,607.504883 563.745361,607.777405 
	C563.061707,607.919250 562.105896,607.892822 561.065430,607.581299 
z"/>
<path fill="#194469" opacity="1.000000" stroke="none" 
	d="
M857.513794,898.945923 
	C857.322510,898.229370 857.412842,897.437439 857.507141,896.242432 
	C857.605896,896.849670 857.700684,897.860168 857.513794,898.945923 
z"/>
<path fill="#194469" opacity="1.000000" stroke="none" 
	d="
M808.944885,773.324707 
	C808.207703,773.500549 807.380920,773.402405 806.276855,773.152832 
	C806.951477,773.017822 807.903381,773.034241 808.944885,773.324707 
z"/>
<path fill="#194469" opacity="1.000000" stroke="none" 
	d="
M489.941284,773.449219 
	C489.188751,773.632751 488.352631,773.528931 487.245758,773.253906 
	C487.935913,773.109070 488.896820,773.135498 489.941284,773.449219 
z"/>
<path fill="#134166" opacity="1.000000" stroke="none" 
	d="
M567.062988,608.593994 
	C567.805176,608.432739 568.630554,608.553711 569.729553,608.835938 
	C569.050842,608.956909 568.098572,608.916565 567.062988,608.593994 
z"/>
<path fill="#194469" opacity="1.000000" stroke="none" 
	d="
M465.804138,772.808044 
	C465.203461,773.259583 464.400208,773.500854 463.282776,773.697876 
	C463.846252,773.301636 464.723938,772.949707 465.804138,772.808044 
z"/>
<path fill="#194469" opacity="1.000000" stroke="none" 
	d="
M506.079346,814.107239 
	C506.667664,814.633179 507.228699,815.509033 507.809204,816.702026 
	C507.236450,816.165161 506.644226,815.311157 506.079346,814.107239 
z"/>
<path fill="#134166" opacity="1.000000" stroke="none" 
	d="
M485.784851,923.725220 
	C485.201782,924.205078 484.405579,924.487488 483.293854,924.721130 
	C483.842804,924.290833 484.707245,923.909363 485.784851,923.725220 
z"/>
<path fill="#194469" opacity="1.000000" stroke="none" 
	d="
M814.850464,774.646362 
	C814.165222,774.746033 813.330261,774.600891 812.238037,774.259949 
	C812.887451,774.176575 813.794067,774.289062 814.850464,774.646362 
z"/>
<path fill="#21496D" opacity="1.000000" stroke="none" 
	d="
M304.010864,709.637390 
	C304.594116,709.120911 305.510559,708.714172 306.731995,708.303406 
	C306.139343,708.781921 305.241699,709.264526 304.010864,709.637390 
z"/>
<path fill="#134166" opacity="1.000000" stroke="none" 
	d="
M458.995667,800.883911 
	C459.544739,800.299316 460.453033,799.746094 461.687256,799.181458 
	C461.127075,799.751770 460.240967,800.333496 458.995667,800.883911 
z"/>
<path fill="#02385E" opacity="1.000000" stroke="none" 
	d="
M779.850830,773.846191 
	C779.525330,774.276428 779.036438,774.513672 778.272949,774.721069 
	C778.561401,774.345215 779.124390,773.999207 779.850830,773.846191 
z"/>
<path fill="#194469" opacity="1.000000" stroke="none" 
	d="
M615.036621,621.426025 
	C615.521973,621.304688 616.059814,621.440735 616.802124,621.776672 
	C616.367371,621.878845 615.728210,621.781067 615.036621,621.426025 
z"/>
<path fill="#194469" opacity="1.000000" stroke="none" 
	d="
M854.394043,909.960632 
	C854.258484,909.467834 854.383789,908.920105 854.719849,908.175842 
	C854.838684,908.621460 854.746765,909.263611 854.394043,909.960632 
z"/>
<path fill="#194469" opacity="1.000000" stroke="none" 
	d="
M855.425903,906.958740 
	C855.260437,906.459045 855.355713,905.902344 855.667480,905.155212 
	C855.818237,905.610413 855.752441,906.256042 855.425903,906.958740 
z"/>
<path fill="#0B3D63" opacity="1.000000" stroke="none" 
	d="
M222.891052,944.136841 
	C223.366074,944.453369 223.640228,944.941223 223.889999,945.717041 
	C223.473801,945.439453 223.081985,944.873779 222.891052,944.136841 
z"/>
<path fill="#194469" opacity="1.000000" stroke="none" 
	d="
M856.533569,902.968872 
	C856.373047,902.484680 856.465149,901.943787 856.740967,901.190063 
	C856.878601,901.622253 856.832397,902.267151 856.533569,902.968872 
z"/>
<path fill="#21496D" opacity="1.000000" stroke="none" 
	d="
M290.187805,714.221313 
	C290.502777,713.795898 290.993225,713.539246 291.761169,713.304565 
	C291.480194,713.681030 290.921722,714.035583 290.187805,714.221313 
z"/>
<path fill="#194469" opacity="1.000000" stroke="none" 
	d="
M600.034546,616.467651 
	C600.520935,616.326416 601.061340,616.441284 601.809082,616.750854 
	C601.373840,616.871643 600.731262,616.797668 600.034546,616.467651 
z"/>
<path fill="#194469" opacity="1.000000" stroke="none" 
	d="
M536.068115,815.878174 
	C535.604370,815.551514 535.343750,815.057373 535.109741,814.273804 
	C535.514587,814.559814 535.892944,815.135315 536.068115,815.878174 
z"/>
<path fill="#053A60" opacity="1.000000" stroke="none" 
	d="
M389.544922,839.942688 
	C389.396637,839.471863 389.499207,838.939087 389.784088,838.197876 
	C389.909546,838.619873 389.852692,839.250305 389.544922,839.942688 
z"/>
<path fill="#194469" opacity="1.000000" stroke="none" 
	d="
M537.136414,819.852173 
	C536.699280,819.523132 536.452393,819.027527 536.240295,818.253174 
	C536.625610,818.544861 536.976135,819.115234 537.136414,819.852173 
z"/>
<path fill="#134166" opacity="1.000000" stroke="none" 
	d="
M466.142578,798.133301 
	C466.473877,797.694214 466.968475,797.449097 467.742004,797.250671 
	C467.449249,797.640686 466.877563,797.983948 466.142578,798.133301 
z"/>
<path fill="#194469" opacity="1.000000" stroke="none" 
	d="
M495.915833,919.198364 
	C495.661316,919.689880 495.098846,920.168396 494.255493,920.694153 
	C494.519043,920.222717 495.063446,919.704041 495.915833,919.198364 
z"/>
<path fill="#194469" opacity="1.000000" stroke="none" 
	d="
M503.467072,912.044434 
	C503.350189,912.590393 502.942932,913.207031 502.275513,913.932129 
	C502.402466,913.398804 502.789581,912.757019 503.467072,912.044434 
z"/>
<path fill="#194469" opacity="1.000000" stroke="none" 
	d="
M707.166260,676.149048 
	C707.522644,676.113159 708.046814,676.307251 708.712891,676.777222 
	C708.347839,676.828491 707.840942,676.603821 707.166260,676.149048 
z"/>
<path fill="#194469" opacity="1.000000" stroke="none" 
	d="
M496.304596,802.787537 
	C496.734192,802.792236 497.260651,803.106628 497.920288,803.699829 
	C497.502777,803.684814 496.952148,803.390991 496.304596,802.787537 
z"/>
<path fill="#194469" opacity="1.000000" stroke="none" 
	d="
M503.017822,809.346069 
	C503.372040,809.452393 503.765869,809.853088 504.216187,810.537476 
	C503.867584,810.427612 503.462494,810.033997 503.017822,809.346069 
z"/>
<path fill="#194469" opacity="1.000000" stroke="none" 
	d="
M504.182983,810.982483 
	C504.478577,810.988770 504.727905,811.211731 504.996735,811.695923 
	C504.723053,811.704529 504.429901,811.451904 504.182983,810.982483 
z"/>
<path fill="#194469" opacity="1.000000" stroke="none" 
	d="
M497.618134,918.007202 
	C497.514648,918.357788 497.121246,918.750610 496.447693,919.200439 
	C496.554443,918.854736 496.941315,918.452026 497.618134,918.007202 
z"/>
<path fill="#194469" opacity="1.000000" stroke="none" 
	d="
M359.826111,876.092285 
	C359.461212,875.915833 359.104340,875.395935 358.693481,874.554443 
	C359.037689,874.738220 359.435913,875.243530 359.826111,876.092285 
z"/>
<path fill="#194469" opacity="1.000000" stroke="none" 
	d="
M729.997681,698.419189 
	C730.398254,698.546570 730.842957,698.965210 731.230347,699.691406 
	C730.795898,699.569458 730.418884,699.139893 729.997681,698.419189 
z"/>
<path fill="#194469" opacity="1.000000" stroke="none" 
	d="
M607.182251,618.631348 
	C607.185791,618.440918 607.680115,618.467224 607.838257,618.657654 
	C607.723816,618.839355 607.451233,618.830627 607.182251,618.631348 
z"/>
<path fill="#194469" opacity="1.000000" stroke="none" 
	d="
M816.800049,775.282837 
	C816.804688,775.462341 816.328674,775.459290 816.164856,775.286621 
	C816.265869,775.110413 816.530640,775.106873 816.800049,775.282837 
z"/>
<path fill="#194469" opacity="1.000000" stroke="none" 
	d="
M508.037354,818.125916 
	C508.168152,818.003357 508.554718,818.263672 508.575745,818.495728 
	C508.366699,818.568054 508.136658,818.408264 508.037354,818.125916 
z"/>
<path fill="#194469" opacity="1.000000" stroke="none" 
	d="
M610.186401,619.627808 
	C610.191467,619.437744 610.685852,619.470581 610.841431,619.663452 
	C610.725098,619.843445 610.453186,619.830627 610.186401,619.627808 
z"/>
<path fill="#0B3D63" opacity="1.000000" stroke="none" 
	d="
M220.923813,938.121521 
	C221.044571,937.995483 221.381989,938.358154 221.392349,938.605591 
	C221.202835,938.651245 221.002945,938.449402 220.923813,938.121521 
z"/>
<path fill="#0B3D63" opacity="1.000000" stroke="none" 
	d="
M221.951996,941.137939 
	C222.207626,941.125732 222.336288,941.257568 222.498810,941.663757 
	C222.296783,941.719360 222.060898,941.500610 221.951996,941.137939 
z"/>
<path fill="#194469" opacity="1.000000" stroke="none" 
	d="
M613.152100,620.665161 
	C613.318420,620.493042 613.487854,620.511108 613.827881,620.719727 
	C613.717285,620.891968 613.436279,620.873657 613.152100,620.665161 
z"/>
<path fill="#134166" opacity="1.000000" stroke="none" 
	d="
M396.146545,945.850647 
	C395.912445,945.898743 395.774811,945.796509 395.562836,945.447937 
	C395.740021,945.367920 395.991516,945.534119 396.146545,945.850647 
z"/>
<path fill="#134166" opacity="1.000000" stroke="none" 
	d="
M463.133514,799.016968 
	C463.111450,798.754456 463.225952,798.623108 463.600525,798.465332 
	C463.663727,798.675293 463.466919,798.911804 463.133514,799.016968 
z"/>
<path fill="#194469" opacity="1.000000" stroke="none" 
	d="
M604.206787,617.689209 
	C604.207947,617.508179 604.684265,617.530029 604.841614,617.709229 
	C604.734497,617.882324 604.470032,617.876221 604.206787,617.689209 
z"/>
<path fill="#21496D" opacity="1.000000" stroke="none" 
	d="
M303.097229,709.988708 
	C303.011566,709.855530 303.203308,709.553711 303.380371,709.578674 
	C303.557404,709.603638 303.567291,710.043335 303.567291,710.043335 
	C303.567291,710.043335 303.182892,710.121887 303.097229,709.988708 
z"/>
<path fill="#21496D" opacity="1.000000" stroke="none" 
	d="
M300.127502,711.021545 
	C300.006561,710.892761 300.304047,710.534241 300.536438,710.518372 
	C300.595337,710.718445 300.421875,710.934387 300.127502,711.021545 
z"/>
<path fill="#012F57" opacity="1.000000" stroke="none" 
	d="
M587.135681,798.269409 
	C587.351990,798.191711 587.693848,798.300842 588.003784,798.704834 
	C587.696777,798.868286 587.459900,798.687073 587.135681,798.269409 
z"/>
<path fill="#053B60" opacity="1.000000" stroke="none" 
	d="
M343.839478,851.124207 
	C334.631439,851.468079 325.841064,851.811279 317.047363,851.974609 
	C310.280426,852.100281 303.509338,851.999573 296.506348,851.999573 
	C296.506348,833.800720 296.506348,816.089539 296.506348,798.270447 
	C311.812653,798.270447 326.964661,797.330383 341.941589,798.546204 
	C355.734833,799.666016 364.085632,809.916504 364.824860,823.289307 
	C365.603607,837.377075 358.393738,847.106323 343.839478,851.124207 
z"/>
<path fill="#053A60" opacity="1.000000" stroke="none" 
	d="
M153.417908,890.016113 
	C153.159195,888.750610 153.163010,887.573853 153.530167,886.524231 
	C161.546448,863.607239 169.599442,840.703003 177.664322,817.803040 
	C178.023407,816.783386 178.561218,815.826660 179.346771,814.122681 
	C188.132828,839.847534 196.645370,864.771606 205.317902,890.164062 
	C187.784256,890.164062 170.816971,890.164062 153.417908,890.016113 
z"/>
</svg>