<svg height="661" viewBox="1.2 1.3 151.1 37.4" width="2500" xmlns="http://www.w3.org/2000/svg"><g fill="#fff"><path clip-rule="evenodd" d="m44.7 7c.1-.6.5-.9 1.7-.9h5.3l-2.1 11.8c-.4 2.1-.6 2.8 1.9 2.7h8.1l-.6 1.1c-.5.8-.8 1-1.7 1h-13.3c-1.4-.1-2-.3-1.9-1.2zm23.2 14.8c-.2.7-.9.8-1.6.8h-5.1c.9-5.2 1.8-10.5 2.7-15.7.2-.8 1-.9 1.7-.9h5.1c-1 5.3-1.9 10.6-2.8 15.8m28.2-15.7c-.7 0-1.5.1-1.7.9-.8 4.6-1.6 9.1-2.4 13.7h-2.3l-3.7-14.6h-5c-2.1.1-2.4.6-3.4 2.3l-8.2 14.3h4.4c1.3 0 1.7-.4 2.2-1.2.3-.5.4-.7.6-1.1h3c.9 0 1.2-.2 1.6-.8.2-.4.5-.8.7-1.2h-4.2l3.8-6.8 2.2 11.1h11.9c1.6-.1 2.5-.9 2.7-2.1l1.3-7.5 5.5 9.5h4.4c.7 0 1.3-.4 1.4-1l2.7-15.5h-4.9c-.6 0-1.3.1-1.5.8l-1.5 8.7-5.5-9.5h-4.1m29.9.9c.1-.6.5-.9 1.7-.9h5.2l-2.1 11.8c-.4 2.1-.6 2.8 1.9 2.7h8.1l-.6 1.1c-.5.8-.8 1-1.7 1h-13.1c-1.4-.1-2-.3-1.9-1.2zm23.1 14.8c-.2.7-.9.8-1.6.8h-5.1c.9-5.2 1.8-10.5 2.7-15.7.2-.8 1-.9 1.7-.9h5.1c-1 5.3-1.9 10.6-2.8 15.8" fill-rule="evenodd"/><path d="m138.5 23h-13.1c-1-.1-1.6-.2-2-.6-.2-.2-.3-.5-.2-.9l2.5-14.5c.2-1 1.1-1.1 2-1.1h5.5l-2.2 12.2c-.2 1-.3 1.6-.1 1.9.2.2.7.3 1.7.3h8.6l-.8 1.5c-.5.9-.9 1.2-1.9 1.2zm-10.8-16.6c-1.2 0-1.4.3-1.4.7l-2.5 14.5c0 .3 0 .4.1.5.2.3.9.3 1.5.4h13.1c.8 0 1-.1 1.5-.9l.4-.7h-7.6c-1.2 0-1.8-.1-2.2-.5-.4-.5-.3-1.2-.1-2.4v-.2l2-11.5h-4.8zm19.8 16.5h-5.4l.1-.3c.5-2.6.9-5.2 1.4-7.9.4-2.6.9-5.2 1.3-7.8.3-1.1 1.5-1.1 2-1.1h5.4l-.1.3c-.9 4.5-1.6 9.1-2.4 13.5l-.4 2.3c-.3 1-1.4 1-1.9 1zm-4.8-.6h4.8c.8 0 1.2-.2 1.3-.6l.4-2.3c.7-4.3 1.5-8.7 2.3-13.1h-4.8c-.9 0-1.3.2-1.4.7-.4 2.6-.9 5.2-1.3 7.8-.4 2.5-.8 5-1.3 7.5z"/><path clip-rule="evenodd" d="m44.7 27.1h5.2v1.5h-3.1v1.1h2.6v1.4h-2.6v2.8h-2.1zm11.9 4.8h-3.8c0 .3.1.5.2.7.2.2.4.3.7.3.2 0 .4 0 .5-.1l.3-.3 1.8.2c-.3.5-.6.8-1 1.1-.4.2-1 .3-1.7.3-.6 0-1.2-.1-1.5-.3-.4-.2-.7-.5-.9-.9-.1-.5-.2-.9-.2-1.5 0-.8.2-1.4.7-1.9s1.2-.7 2-.7c.7 0 1.3.1 1.7.3s.7.5.9.9.3.9.3 1.6zm-1.9-.9c0-.4-.1-.6-.3-.8-.1-.2-.3-.2-.6-.2s-.5.1-.7.4c-.1.1-.2.4-.2.7h1.8zm8.9.9h-3.8c0 .3.1.5.2.7.2.2.4.3.7.3.2 0 .4 0 .5-.1l.3-.3 1.8.2c-.3.5-.6.8-1 1.1-.4.2-1 .3-1.7.3-.6 0-1.2-.1-1.5-.3-.4-.2-.7-.5-.9-.9s-.4-.9-.4-1.4c0-.8.2-1.4.7-1.9s1.2-.7 2-.7c.7 0 1.3.1 1.7.3s.7.5.9.9.3.9.3 1.6v.2zm-2-.9c0-.4-.1-.6-.3-.8-.1-.2-.3-.2-.6-.2s-.5.1-.7.4c-.1.1-.2.4-.2.7h1.8zm3.5-3.9h1.9v6.8h-1.9zm8.5 0v1.9h1v1.4h-1v1.7c0 .2 0 .3.1.4s.2.2.3.2.3 0 .6-.1l.1 1.3c-.5.1-.9.2-1.3.2-.5 0-.8-.1-1-.2s-.4-.3-.5-.5-.2-.6-.2-1.2v-1.7h-.7v-1.5h.7v-.9zm2.5 0h1.9v2.5c.3-.3.5-.5.8-.6s.5-.2.9-.2c.5 0 .9.2 1.2.5s.4.8.4 1.4v3.1h-1.9v-2.7c0-.3-.1-.5-.2-.7-.1-.1-.3-.2-.5-.2s-.4.1-.5.3-.2.5-.2.9v2.4h-1.9zm12.4 4.8h-3.8c0 .3.1.5.2.7.2.2.4.3.7.3.2 0 .4 0 .5-.1l.3-.3 1.8.2c-.3.5-.6.8-1 1.1-.4.2-1 .3-1.7.3-.6 0-1.2-.1-1.5-.3-.4-.2-.7-.5-.9-.9s-.4-.9-.4-1.4c0-.8.2-1.4.7-1.9s1.2-.7 2-.7c.7 0 1.3.1 1.7.3s.7.5.9.9.3.9.3 1.6v.2zm-1.9-.9c0-.4-.1-.6-.3-.8s-.4-.2-.6-.2c-.3 0-.5.1-.7.4-.1.1-.2.4-.2.7h1.8zm11.1-3.9v6.8h-1.8v-.7c-.2.3-.5.5-.7.6s-.5.2-.9.2c-.7 0-1.2-.3-1.5-.8-.4-.5-.5-1.1-.5-1.9s.2-1.4.6-1.9c.4-.4.9-.6 1.5-.6.3 0 .6 0 .8.1s.4.2.6.4v-2.3zm-1.9 4.3c0-.4-.1-.7-.2-.9-.2-.2-.4-.3-.6-.3s-.4.1-.5.3-.2.5-.2.9.1.7.2.9c.2.2.3.3.6.3.2 0 .4-.1.6-.3 0-.2.1-.5.1-.9m3.7-4.3h1.9v1.3h-1.9zm0 1.9h1.9v4.9h-1.9zm5.8 0h.9v1.4h-.9v3.5h-1.9v-3.5h-.7v-1.4h.7v-.2c0-.2 0-.4.1-.7 0-.2.1-.4.2-.6s.3-.3.5-.4.5-.1.9-.1c.3 0 .8 0 1.4.1l-.2 1.1c-.2 0-.4-.1-.5-.1-.2 0-.3 0-.4.1s-.1.1-.2.3c.1.1.1.2.1.5m4.5 0h.9v1.4h-.9v3.5h-1.9v-3.5h-.7v-1.4h.7v-.2c0-.2 0-.4.1-.7 0-.2.1-.4.2-.6s.3-.3.5-.4.5-.1.9-.1c.3 0 .8 0 1.4.1l-.2 1.1c-.2 0-.4-.1-.5-.1-.2 0-.3 0-.4.1s-.1.1-.2.3c.1.1.1.2.1.5m7.5 2.9h-3.8c0 .3.1.5.2.7.2.2.4.3.7.3.2 0 .4 0 .5-.1l.3-.3 1.8.2c-.3.5-.6.8-1 1.1-.4.2-1 .3-1.7.3-.6 0-1.2-.1-1.5-.3-.4-.2-.7-.5-.9-.9s-.4-.9-.4-1.4c0-.8.2-1.4.7-1.9s1.2-.7 2-.7c.7 0 1.3.1 1.7.3s.7.5.9.9.3.9.3 1.6v.2zm-1.9-.9c0-.4-.1-.6-.3-.8s-.4-.2-.6-.2c-.3 0-.5.1-.7.4-.1.1-.2.4-.2.7h1.8zm3.4-2h1.8v.8c.2-.3.3-.6.5-.7s.4-.2.7-.2.6.1.9.3l-.6 1.3c-.2-.1-.4-.1-.5-.1-.2 0-.4.1-.6.3-.2.3-.3.8-.3 1.6v1.6h-1.9zm10.4 2.9h-3.8c0 .3.1.5.2.7.2.2.4.3.7.3.2 0 .4 0 .5-.1l.3-.3 1.8.2c-.3.5-.6.8-1 1.1-.4.2-1 .3-1.7.3-.6 0-1.2-.1-1.5-.3-.4-.2-.7-.5-.9-.9s-.4-.9-.4-1.4c0-.8.2-1.4.7-1.9s1.2-.7 2-.7c.7 0 1.3.1 1.7.3s.7.5.9.9.3.9.3 1.6v.2zm-1.9-.9c0-.4-.1-.6-.3-.8s-.4-.2-.6-.2c-.3 0-.5.1-.7.4-.1.1-.2.4-.2.7h1.8zm3.4-2h1.7v.8c.3-.3.5-.6.8-.7s.6-.2 1-.2c.5 0 .9.2 1.2.5s.4.8.4 1.4v3.1h-1.8v-2.7c0-.3-.1-.5-.2-.7-.1-.1-.3-.2-.5-.2s-.4.1-.5.3-.2.5-.2.9v2.4h-1.9zm10.6 2.9 1.8.2c-.1.4-.3.7-.5 1s-.5.5-.9.6c-.3.2-.8.2-1.3.2s-1 0-1.3-.1-.6-.3-.9-.5c-.2-.2-.4-.5-.6-.8-.1-.3-.2-.7-.2-1.2s.1-.9.3-1.3c.1-.2.3-.5.5-.7s.4-.3.7-.4c.4-.2.8-.2 1.4-.2.8 0 1.4.1 1.8.4s.7.7.9 1.3l-1.8.2c-.1-.2-.2-.4-.3-.5s-.3-.2-.6-.2-.6.1-.8.3-.3.6-.3 1 .1.7.3.9.4.3.7.3c.2 0 .5-.1.6-.2.2.2.4 0 .5-.3m8.7 0h-3.8c0 .3.1.5.2.7.2.2.4.3.7.3.2 0 .4 0 .5-.1l.3-.3 1.8.2c-.3.5-.6.8-1 1.1-.4.2-1 .3-1.7.3-.6 0-1.2-.1-1.5-.3-.4-.2-.7-.5-.9-.9s-.4-.9-.4-1.4c0-.8.2-1.4.7-1.9s1.2-.7 2-.7c.7 0 1.3.1 1.7.3s.7.5.9.9.3.9.3 1.6v.2zm-1.9-.9c0-.4-.1-.6-.3-.8s-.4-.2-.6-.2c-.3 0-.5.1-.7.4-.1.1-.2.4-.2.7h1.8zm-134-26.6c8.6-3.1 18.1 1.3 21.3 9.9 3.1 8.6-1.3 18.1-9.9 21.3-8.6 3.1-18.1-1.3-21.3-9.9-3-8.1.8-17 8.4-20.7zm3.7 1-3 17.3 10.9-6.1-.4 2.5-16.4 9.2-1.3-1.1 3.3-18.9c-5.1 3.8-7.3 10.6-5 16.8 2.5 6.9 9.7 10.8 16.7 9.4l2.7-15.4 6.6-3.7-2.8 16c4.6-3.9 6.6-10.4 4.4-16.3-.3-.8-.6-1.5-1-2.2l-6.8 3.8.5-2.7 5.2-2.9c-3.2-4.2-8.4-6.4-13.6-5.7" fill-rule="evenodd"/></g></svg>